G04 #@! TF.GenerationSoftware,KiCad,Pcbnew,(5.1.2)-2*
G04 #@! TF.CreationDate,2019-08-23T10:29:04+03:00*
G04 #@! TF.ProjectId,pneumatic,706e6575-6d61-4746-9963-2e6b69636164,rev?*
G04 #@! TF.SameCoordinates,Original*
G04 #@! TF.FileFunction,Copper,L2,Bot*
G04 #@! TF.FilePolarity,Positive*
%FSLAX46Y46*%
G04 Gerber Fmt 4.6, Leading zero omitted, Abs format (unit mm)*
G04 Created by KiCad (PCBNEW (5.1.2)-2) date 2019-08-23 10:29:04*
%MOMM*%
%LPD*%
G04 APERTURE LIST*
%ADD10C,1.524000*%
%ADD11O,1.600000X1.600000*%
%ADD12R,1.600000X1.600000*%
%ADD13O,1.700000X1.700000*%
%ADD14R,1.700000X1.700000*%
%ADD15C,2.400000*%
%ADD16R,2.400000X2.400000*%
%ADD17C,3.000000*%
%ADD18O,1.905000X2.000000*%
%ADD19R,1.905000X2.000000*%
%ADD20C,1.600000*%
%ADD21C,0.100000*%
%ADD22C,3.500000*%
%ADD23R,3.500000X3.500000*%
%ADD24O,1.727200X1.727200*%
%ADD25R,1.727200X1.727200*%
%ADD26O,2.200000X2.200000*%
%ADD27R,2.200000X2.200000*%
%ADD28C,0.250000*%
%ADD29C,0.254000*%
G04 APERTURE END LIST*
D10*
X147320000Y-81280000D03*
X133350000Y-81280000D03*
X147320000Y-78740000D03*
X133350000Y-78740000D03*
X147320000Y-76200000D03*
X133350000Y-76200000D03*
X147320000Y-73660000D03*
X133350000Y-73660000D03*
D11*
X123190000Y-96520000D03*
X107950000Y-96520000D03*
X123190000Y-60960000D03*
X107950000Y-93980000D03*
X123190000Y-63500000D03*
X107950000Y-91440000D03*
X123190000Y-66040000D03*
X107950000Y-88900000D03*
X123190000Y-68580000D03*
X107950000Y-86360000D03*
X123190000Y-71120000D03*
X107950000Y-83820000D03*
X123190000Y-73660000D03*
X107950000Y-81280000D03*
X123190000Y-76200000D03*
X107950000Y-78740000D03*
X123190000Y-78740000D03*
X107950000Y-76200000D03*
X123190000Y-81280000D03*
X107950000Y-73660000D03*
X123190000Y-83820000D03*
X107950000Y-71120000D03*
X123190000Y-86360000D03*
X107950000Y-68580000D03*
X123190000Y-88900000D03*
X107950000Y-66040000D03*
X123190000Y-91440000D03*
X107950000Y-63500000D03*
X123190000Y-93980000D03*
D12*
X107950000Y-60960000D03*
D13*
X109220000Y-53340000D03*
X111760000Y-53340000D03*
X114300000Y-53340000D03*
X116840000Y-53340000D03*
D14*
X119380000Y-53340000D03*
D15*
X160020000Y-40920000D03*
X160020000Y-44420000D03*
X160020000Y-47920000D03*
X160020000Y-51420000D03*
X160020000Y-54920000D03*
D16*
X160020000Y-58420000D03*
D17*
X160890000Y-99630000D03*
X160890000Y-87630000D03*
X148590000Y-99630000D03*
X162890000Y-93630000D03*
X148590000Y-87630000D03*
D18*
X151130000Y-67310000D03*
X148590000Y-67310000D03*
D19*
X146050000Y-67310000D03*
D18*
X151130000Y-46990000D03*
X148590000Y-46990000D03*
D19*
X146050000Y-46990000D03*
D18*
X151130000Y-57150000D03*
X148590000Y-57150000D03*
D19*
X146050000Y-57150000D03*
D11*
X139700000Y-66040000D03*
D20*
X132080000Y-66040000D03*
D11*
X139700000Y-57150000D03*
D20*
X132080000Y-57150000D03*
D11*
X132080000Y-46990000D03*
D20*
X139700000Y-46990000D03*
D21*
G36*
X130880765Y-90154213D02*
G01*
X130965704Y-90166813D01*
X131048999Y-90187677D01*
X131129848Y-90216605D01*
X131207472Y-90253319D01*
X131281124Y-90297464D01*
X131350094Y-90348616D01*
X131413718Y-90406282D01*
X131471384Y-90469906D01*
X131522536Y-90538876D01*
X131566681Y-90612528D01*
X131603395Y-90690152D01*
X131632323Y-90771001D01*
X131653187Y-90854296D01*
X131665787Y-90939235D01*
X131670000Y-91025000D01*
X131670000Y-92775000D01*
X131665787Y-92860765D01*
X131653187Y-92945704D01*
X131632323Y-93028999D01*
X131603395Y-93109848D01*
X131566681Y-93187472D01*
X131522536Y-93261124D01*
X131471384Y-93330094D01*
X131413718Y-93393718D01*
X131350094Y-93451384D01*
X131281124Y-93502536D01*
X131207472Y-93546681D01*
X131129848Y-93583395D01*
X131048999Y-93612323D01*
X130965704Y-93633187D01*
X130880765Y-93645787D01*
X130795000Y-93650000D01*
X129045000Y-93650000D01*
X128959235Y-93645787D01*
X128874296Y-93633187D01*
X128791001Y-93612323D01*
X128710152Y-93583395D01*
X128632528Y-93546681D01*
X128558876Y-93502536D01*
X128489906Y-93451384D01*
X128426282Y-93393718D01*
X128368616Y-93330094D01*
X128317464Y-93261124D01*
X128273319Y-93187472D01*
X128236605Y-93109848D01*
X128207677Y-93028999D01*
X128186813Y-92945704D01*
X128174213Y-92860765D01*
X128170000Y-92775000D01*
X128170000Y-91025000D01*
X128174213Y-90939235D01*
X128186813Y-90854296D01*
X128207677Y-90771001D01*
X128236605Y-90690152D01*
X128273319Y-90612528D01*
X128317464Y-90538876D01*
X128368616Y-90469906D01*
X128426282Y-90406282D01*
X128489906Y-90348616D01*
X128558876Y-90297464D01*
X128632528Y-90253319D01*
X128710152Y-90216605D01*
X128791001Y-90187677D01*
X128874296Y-90166813D01*
X128959235Y-90154213D01*
X129045000Y-90150000D01*
X130795000Y-90150000D01*
X130880765Y-90154213D01*
X130880765Y-90154213D01*
G37*
D22*
X129920000Y-91900000D03*
D21*
G36*
X135693513Y-93403611D02*
G01*
X135766318Y-93414411D01*
X135837714Y-93432295D01*
X135907013Y-93457090D01*
X135973548Y-93488559D01*
X136036678Y-93526398D01*
X136095795Y-93570242D01*
X136150330Y-93619670D01*
X136199758Y-93674205D01*
X136243602Y-93733322D01*
X136281441Y-93796452D01*
X136312910Y-93862987D01*
X136337705Y-93932286D01*
X136355589Y-94003682D01*
X136366389Y-94076487D01*
X136370000Y-94150000D01*
X136370000Y-95650000D01*
X136366389Y-95723513D01*
X136355589Y-95796318D01*
X136337705Y-95867714D01*
X136312910Y-95937013D01*
X136281441Y-96003548D01*
X136243602Y-96066678D01*
X136199758Y-96125795D01*
X136150330Y-96180330D01*
X136095795Y-96229758D01*
X136036678Y-96273602D01*
X135973548Y-96311441D01*
X135907013Y-96342910D01*
X135837714Y-96367705D01*
X135766318Y-96385589D01*
X135693513Y-96396389D01*
X135620000Y-96400000D01*
X133620000Y-96400000D01*
X133546487Y-96396389D01*
X133473682Y-96385589D01*
X133402286Y-96367705D01*
X133332987Y-96342910D01*
X133266452Y-96311441D01*
X133203322Y-96273602D01*
X133144205Y-96229758D01*
X133089670Y-96180330D01*
X133040242Y-96125795D01*
X132996398Y-96066678D01*
X132958559Y-96003548D01*
X132927090Y-95937013D01*
X132902295Y-95867714D01*
X132884411Y-95796318D01*
X132873611Y-95723513D01*
X132870000Y-95650000D01*
X132870000Y-94150000D01*
X132873611Y-94076487D01*
X132884411Y-94003682D01*
X132902295Y-93932286D01*
X132927090Y-93862987D01*
X132958559Y-93796452D01*
X132996398Y-93733322D01*
X133040242Y-93674205D01*
X133089670Y-93619670D01*
X133144205Y-93570242D01*
X133203322Y-93526398D01*
X133266452Y-93488559D01*
X133332987Y-93457090D01*
X133402286Y-93432295D01*
X133473682Y-93414411D01*
X133546487Y-93403611D01*
X133620000Y-93400000D01*
X135620000Y-93400000D01*
X135693513Y-93403611D01*
X135693513Y-93403611D01*
G37*
D17*
X134620000Y-94900000D03*
D23*
X134620000Y-88900000D03*
D24*
X121920000Y-43180000D03*
X121920000Y-45720000D03*
X119380000Y-43180000D03*
X119380000Y-45720000D03*
X116840000Y-43180000D03*
X116840000Y-45720000D03*
X114300000Y-43180000D03*
X114300000Y-45720000D03*
X111760000Y-43180000D03*
D25*
X111760000Y-45720000D03*
D26*
X156210000Y-81280000D03*
D27*
X163830000Y-81280000D03*
D26*
X144780000Y-39370000D03*
D27*
X152400000Y-39370000D03*
D26*
X156210000Y-73660000D03*
D27*
X163830000Y-73660000D03*
D28*
X107950000Y-68580000D02*
X115570000Y-68580000D01*
X119380000Y-64770000D02*
X119380000Y-53340000D01*
X115570000Y-68580000D02*
X119380000Y-64770000D01*
X125730000Y-66040000D02*
X123190000Y-68580000D01*
X125730000Y-41910000D02*
X125730000Y-66040000D01*
X124460000Y-40640000D02*
X125730000Y-41910000D01*
X116840000Y-43180000D02*
X119380000Y-40640000D01*
X119380000Y-40640000D02*
X124460000Y-40640000D01*
X125730000Y-68580000D02*
X133350000Y-76200000D01*
X123190000Y-68580000D02*
X125730000Y-68580000D01*
X123190000Y-76200000D02*
X121920000Y-74930000D01*
X121920000Y-48260000D02*
X119380000Y-45720000D01*
X121920000Y-74930000D02*
X121920000Y-48260000D01*
X119380000Y-43180000D02*
X118110000Y-44450000D01*
X118110000Y-46209130D02*
X121430870Y-49530000D01*
X118110000Y-44450000D02*
X118110000Y-46209130D01*
X121430870Y-49530000D02*
X121430870Y-76980870D01*
X121430870Y-76980870D02*
X123190000Y-78740000D01*
D29*
G36*
X167513000Y-105283000D02*
G01*
X104267000Y-105283000D01*
X104267000Y-58269801D01*
X106425000Y-58269801D01*
X106425000Y-58570199D01*
X106483605Y-58864826D01*
X106598562Y-59142358D01*
X106765455Y-59392131D01*
X106934977Y-59561653D01*
X106905820Y-59570498D01*
X106795506Y-59629463D01*
X106698815Y-59708815D01*
X106619463Y-59805506D01*
X106560498Y-59915820D01*
X106524188Y-60035518D01*
X106511928Y-60160000D01*
X106511928Y-61760000D01*
X106524188Y-61884482D01*
X106560498Y-62004180D01*
X106619463Y-62114494D01*
X106698815Y-62211185D01*
X106795506Y-62290537D01*
X106905820Y-62349502D01*
X107025518Y-62385812D01*
X107043482Y-62387581D01*
X106930392Y-62480392D01*
X106751068Y-62698899D01*
X106617818Y-62948192D01*
X106535764Y-63218691D01*
X106508057Y-63500000D01*
X106535764Y-63781309D01*
X106617818Y-64051808D01*
X106751068Y-64301101D01*
X106930392Y-64519608D01*
X107148899Y-64698932D01*
X107281858Y-64770000D01*
X107148899Y-64841068D01*
X106930392Y-65020392D01*
X106751068Y-65238899D01*
X106617818Y-65488192D01*
X106535764Y-65758691D01*
X106508057Y-66040000D01*
X106535764Y-66321309D01*
X106617818Y-66591808D01*
X106751068Y-66841101D01*
X106930392Y-67059608D01*
X107148899Y-67238932D01*
X107281858Y-67310000D01*
X107148899Y-67381068D01*
X106930392Y-67560392D01*
X106751068Y-67778899D01*
X106617818Y-68028192D01*
X106535764Y-68298691D01*
X106508057Y-68580000D01*
X106535764Y-68861309D01*
X106617818Y-69131808D01*
X106751068Y-69381101D01*
X106930392Y-69599608D01*
X107148899Y-69778932D01*
X107281858Y-69850000D01*
X107148899Y-69921068D01*
X106930392Y-70100392D01*
X106751068Y-70318899D01*
X106617818Y-70568192D01*
X106535764Y-70838691D01*
X106508057Y-71120000D01*
X106535764Y-71401309D01*
X106617818Y-71671808D01*
X106751068Y-71921101D01*
X106930392Y-72139608D01*
X107148899Y-72318932D01*
X107281858Y-72390000D01*
X107148899Y-72461068D01*
X106930392Y-72640392D01*
X106751068Y-72858899D01*
X106617818Y-73108192D01*
X106535764Y-73378691D01*
X106508057Y-73660000D01*
X106535764Y-73941309D01*
X106617818Y-74211808D01*
X106751068Y-74461101D01*
X106930392Y-74679608D01*
X107148899Y-74858932D01*
X107281858Y-74930000D01*
X107148899Y-75001068D01*
X106930392Y-75180392D01*
X106751068Y-75398899D01*
X106617818Y-75648192D01*
X106535764Y-75918691D01*
X106508057Y-76200000D01*
X106535764Y-76481309D01*
X106617818Y-76751808D01*
X106751068Y-77001101D01*
X106930392Y-77219608D01*
X107148899Y-77398932D01*
X107281858Y-77470000D01*
X107148899Y-77541068D01*
X106930392Y-77720392D01*
X106751068Y-77938899D01*
X106617818Y-78188192D01*
X106535764Y-78458691D01*
X106508057Y-78740000D01*
X106535764Y-79021309D01*
X106617818Y-79291808D01*
X106751068Y-79541101D01*
X106930392Y-79759608D01*
X107148899Y-79938932D01*
X107281858Y-80010000D01*
X107148899Y-80081068D01*
X106930392Y-80260392D01*
X106751068Y-80478899D01*
X106617818Y-80728192D01*
X106535764Y-80998691D01*
X106508057Y-81280000D01*
X106535764Y-81561309D01*
X106617818Y-81831808D01*
X106751068Y-82081101D01*
X106930392Y-82299608D01*
X107148899Y-82478932D01*
X107281858Y-82550000D01*
X107148899Y-82621068D01*
X106930392Y-82800392D01*
X106751068Y-83018899D01*
X106617818Y-83268192D01*
X106535764Y-83538691D01*
X106508057Y-83820000D01*
X106535764Y-84101309D01*
X106617818Y-84371808D01*
X106751068Y-84621101D01*
X106930392Y-84839608D01*
X107148899Y-85018932D01*
X107281858Y-85090000D01*
X107148899Y-85161068D01*
X106930392Y-85340392D01*
X106751068Y-85558899D01*
X106617818Y-85808192D01*
X106535764Y-86078691D01*
X106508057Y-86360000D01*
X106535764Y-86641309D01*
X106617818Y-86911808D01*
X106751068Y-87161101D01*
X106930392Y-87379608D01*
X107148899Y-87558932D01*
X107281858Y-87630000D01*
X107148899Y-87701068D01*
X106930392Y-87880392D01*
X106751068Y-88098899D01*
X106617818Y-88348192D01*
X106535764Y-88618691D01*
X106508057Y-88900000D01*
X106535764Y-89181309D01*
X106617818Y-89451808D01*
X106751068Y-89701101D01*
X106930392Y-89919608D01*
X107148899Y-90098932D01*
X107281858Y-90170000D01*
X107148899Y-90241068D01*
X106930392Y-90420392D01*
X106751068Y-90638899D01*
X106617818Y-90888192D01*
X106535764Y-91158691D01*
X106508057Y-91440000D01*
X106535764Y-91721309D01*
X106617818Y-91991808D01*
X106751068Y-92241101D01*
X106930392Y-92459608D01*
X107148899Y-92638932D01*
X107281858Y-92710000D01*
X107148899Y-92781068D01*
X106930392Y-92960392D01*
X106751068Y-93178899D01*
X106617818Y-93428192D01*
X106535764Y-93698691D01*
X106508057Y-93980000D01*
X106535764Y-94261309D01*
X106617818Y-94531808D01*
X106751068Y-94781101D01*
X106930392Y-94999608D01*
X107148899Y-95178932D01*
X107281858Y-95250000D01*
X107148899Y-95321068D01*
X106930392Y-95500392D01*
X106751068Y-95718899D01*
X106617818Y-95968192D01*
X106535764Y-96238691D01*
X106508057Y-96520000D01*
X106535764Y-96801309D01*
X106617818Y-97071808D01*
X106751068Y-97321101D01*
X106930392Y-97539608D01*
X107148899Y-97718932D01*
X107184024Y-97737707D01*
X106977869Y-97875455D01*
X106765455Y-98087869D01*
X106598562Y-98337642D01*
X106483605Y-98615174D01*
X106425000Y-98909801D01*
X106425000Y-99210199D01*
X106483605Y-99504826D01*
X106598562Y-99782358D01*
X106765455Y-100032131D01*
X106977869Y-100244545D01*
X107227642Y-100411438D01*
X107505174Y-100526395D01*
X107799801Y-100585000D01*
X108100199Y-100585000D01*
X108394826Y-100526395D01*
X108672358Y-100411438D01*
X108922131Y-100244545D01*
X109134545Y-100032131D01*
X109301438Y-99782358D01*
X109416395Y-99504826D01*
X109475000Y-99210199D01*
X109475000Y-98909801D01*
X109416395Y-98615174D01*
X109301438Y-98337642D01*
X109134545Y-98087869D01*
X108922131Y-97875455D01*
X108715976Y-97737707D01*
X108751101Y-97718932D01*
X108969608Y-97539608D01*
X109148932Y-97321101D01*
X109282182Y-97071808D01*
X109364236Y-96801309D01*
X109391943Y-96520000D01*
X109364236Y-96238691D01*
X109282182Y-95968192D01*
X109148932Y-95718899D01*
X108969608Y-95500392D01*
X108751101Y-95321068D01*
X108618142Y-95250000D01*
X108751101Y-95178932D01*
X108969608Y-94999608D01*
X109148932Y-94781101D01*
X109282182Y-94531808D01*
X109364236Y-94261309D01*
X109391943Y-93980000D01*
X109364236Y-93698691D01*
X109282182Y-93428192D01*
X109148932Y-93178899D01*
X108969608Y-92960392D01*
X108751101Y-92781068D01*
X108618142Y-92710000D01*
X108751101Y-92638932D01*
X108969608Y-92459608D01*
X109148932Y-92241101D01*
X109282182Y-91991808D01*
X109364236Y-91721309D01*
X109391943Y-91440000D01*
X109364236Y-91158691D01*
X109282182Y-90888192D01*
X109148932Y-90638899D01*
X108969608Y-90420392D01*
X108751101Y-90241068D01*
X108618142Y-90170000D01*
X108751101Y-90098932D01*
X108969608Y-89919608D01*
X109148932Y-89701101D01*
X109282182Y-89451808D01*
X109364236Y-89181309D01*
X109391943Y-88900000D01*
X109364236Y-88618691D01*
X109282182Y-88348192D01*
X109148932Y-88098899D01*
X108969608Y-87880392D01*
X108751101Y-87701068D01*
X108618142Y-87630000D01*
X108751101Y-87558932D01*
X108969608Y-87379608D01*
X109148932Y-87161101D01*
X109282182Y-86911808D01*
X109364236Y-86641309D01*
X109391943Y-86360000D01*
X109364236Y-86078691D01*
X109282182Y-85808192D01*
X109148932Y-85558899D01*
X108969608Y-85340392D01*
X108751101Y-85161068D01*
X108618142Y-85090000D01*
X108751101Y-85018932D01*
X108969608Y-84839608D01*
X109148932Y-84621101D01*
X109282182Y-84371808D01*
X109364236Y-84101309D01*
X109391943Y-83820000D01*
X109364236Y-83538691D01*
X109282182Y-83268192D01*
X109148932Y-83018899D01*
X108969608Y-82800392D01*
X108751101Y-82621068D01*
X108618142Y-82550000D01*
X108751101Y-82478932D01*
X108969608Y-82299608D01*
X109148932Y-82081101D01*
X109282182Y-81831808D01*
X109364236Y-81561309D01*
X109391943Y-81280000D01*
X109364236Y-80998691D01*
X109282182Y-80728192D01*
X109148932Y-80478899D01*
X108969608Y-80260392D01*
X108751101Y-80081068D01*
X108618142Y-80010000D01*
X108751101Y-79938932D01*
X108969608Y-79759608D01*
X109148932Y-79541101D01*
X109282182Y-79291808D01*
X109364236Y-79021309D01*
X109391943Y-78740000D01*
X109364236Y-78458691D01*
X109282182Y-78188192D01*
X109148932Y-77938899D01*
X108969608Y-77720392D01*
X108751101Y-77541068D01*
X108618142Y-77470000D01*
X108751101Y-77398932D01*
X108969608Y-77219608D01*
X109148932Y-77001101D01*
X109282182Y-76751808D01*
X109364236Y-76481309D01*
X109391943Y-76200000D01*
X109364236Y-75918691D01*
X109282182Y-75648192D01*
X109148932Y-75398899D01*
X108969608Y-75180392D01*
X108751101Y-75001068D01*
X108618142Y-74930000D01*
X108751101Y-74858932D01*
X108969608Y-74679608D01*
X109148932Y-74461101D01*
X109282182Y-74211808D01*
X109364236Y-73941309D01*
X109391943Y-73660000D01*
X109364236Y-73378691D01*
X109282182Y-73108192D01*
X109148932Y-72858899D01*
X108969608Y-72640392D01*
X108751101Y-72461068D01*
X108618142Y-72390000D01*
X108751101Y-72318932D01*
X108969608Y-72139608D01*
X109148932Y-71921101D01*
X109282182Y-71671808D01*
X109364236Y-71401309D01*
X109391943Y-71120000D01*
X109364236Y-70838691D01*
X109282182Y-70568192D01*
X109148932Y-70318899D01*
X108969608Y-70100392D01*
X108751101Y-69921068D01*
X108618142Y-69850000D01*
X108751101Y-69778932D01*
X108969608Y-69599608D01*
X109148932Y-69381101D01*
X109170901Y-69340000D01*
X115532678Y-69340000D01*
X115570000Y-69343676D01*
X115607322Y-69340000D01*
X115607333Y-69340000D01*
X115718986Y-69329003D01*
X115862247Y-69285546D01*
X115994276Y-69214974D01*
X116110001Y-69120001D01*
X116133804Y-69090997D01*
X119891004Y-65333798D01*
X119920001Y-65310001D01*
X120014974Y-65194276D01*
X120085546Y-65062247D01*
X120129003Y-64918986D01*
X120140000Y-64807333D01*
X120140000Y-64807325D01*
X120143676Y-64770000D01*
X120140000Y-64732675D01*
X120140000Y-54828072D01*
X120230000Y-54828072D01*
X120354482Y-54815812D01*
X120474180Y-54779502D01*
X120584494Y-54720537D01*
X120670870Y-54649650D01*
X120670871Y-76943537D01*
X120667194Y-76980870D01*
X120681868Y-77129855D01*
X120725324Y-77273116D01*
X120795896Y-77405146D01*
X120867071Y-77491872D01*
X120890870Y-77520871D01*
X120919868Y-77544669D01*
X121789292Y-78414094D01*
X121775764Y-78458691D01*
X121748057Y-78740000D01*
X121775764Y-79021309D01*
X121857818Y-79291808D01*
X121991068Y-79541101D01*
X122170392Y-79759608D01*
X122388899Y-79938932D01*
X122521858Y-80010000D01*
X122388899Y-80081068D01*
X122170392Y-80260392D01*
X121991068Y-80478899D01*
X121857818Y-80728192D01*
X121775764Y-80998691D01*
X121748057Y-81280000D01*
X121775764Y-81561309D01*
X121857818Y-81831808D01*
X121991068Y-82081101D01*
X122170392Y-82299608D01*
X122388899Y-82478932D01*
X122521858Y-82550000D01*
X122388899Y-82621068D01*
X122170392Y-82800392D01*
X121991068Y-83018899D01*
X121857818Y-83268192D01*
X121775764Y-83538691D01*
X121748057Y-83820000D01*
X121775764Y-84101309D01*
X121857818Y-84371808D01*
X121991068Y-84621101D01*
X122170392Y-84839608D01*
X122388899Y-85018932D01*
X122521858Y-85090000D01*
X122388899Y-85161068D01*
X122170392Y-85340392D01*
X121991068Y-85558899D01*
X121857818Y-85808192D01*
X121775764Y-86078691D01*
X121748057Y-86360000D01*
X121775764Y-86641309D01*
X121857818Y-86911808D01*
X121991068Y-87161101D01*
X122170392Y-87379608D01*
X122388899Y-87558932D01*
X122521858Y-87630000D01*
X122388899Y-87701068D01*
X122170392Y-87880392D01*
X121991068Y-88098899D01*
X121857818Y-88348192D01*
X121775764Y-88618691D01*
X121748057Y-88900000D01*
X121775764Y-89181309D01*
X121857818Y-89451808D01*
X121991068Y-89701101D01*
X122170392Y-89919608D01*
X122388899Y-90098932D01*
X122521858Y-90170000D01*
X122388899Y-90241068D01*
X122170392Y-90420392D01*
X121991068Y-90638899D01*
X121857818Y-90888192D01*
X121775764Y-91158691D01*
X121748057Y-91440000D01*
X121775764Y-91721309D01*
X121857818Y-91991808D01*
X121991068Y-92241101D01*
X122170392Y-92459608D01*
X122388899Y-92638932D01*
X122521858Y-92710000D01*
X122388899Y-92781068D01*
X122170392Y-92960392D01*
X121991068Y-93178899D01*
X121857818Y-93428192D01*
X121775764Y-93698691D01*
X121748057Y-93980000D01*
X121775764Y-94261309D01*
X121857818Y-94531808D01*
X121991068Y-94781101D01*
X122170392Y-94999608D01*
X122388899Y-95178932D01*
X122521858Y-95250000D01*
X122388899Y-95321068D01*
X122170392Y-95500392D01*
X121991068Y-95718899D01*
X121857818Y-95968192D01*
X121775764Y-96238691D01*
X121748057Y-96520000D01*
X121775764Y-96801309D01*
X121857818Y-97071808D01*
X121991068Y-97321101D01*
X122170392Y-97539608D01*
X122388899Y-97718932D01*
X122424024Y-97737707D01*
X122217869Y-97875455D01*
X122005455Y-98087869D01*
X121838562Y-98337642D01*
X121723605Y-98615174D01*
X121665000Y-98909801D01*
X121665000Y-99210199D01*
X121723605Y-99504826D01*
X121838562Y-99782358D01*
X122005455Y-100032131D01*
X122217869Y-100244545D01*
X122467642Y-100411438D01*
X122745174Y-100526395D01*
X123039801Y-100585000D01*
X123340199Y-100585000D01*
X123634826Y-100526395D01*
X123912358Y-100411438D01*
X124162131Y-100244545D01*
X124374545Y-100032131D01*
X124541438Y-99782358D01*
X124656395Y-99504826D01*
X124673323Y-99419721D01*
X146455000Y-99419721D01*
X146455000Y-99840279D01*
X146537047Y-100252756D01*
X146697988Y-100641302D01*
X146931637Y-100990983D01*
X147229017Y-101288363D01*
X147578698Y-101522012D01*
X147967244Y-101682953D01*
X148379721Y-101765000D01*
X148800279Y-101765000D01*
X149212756Y-101682953D01*
X149601302Y-101522012D01*
X149950983Y-101288363D01*
X150117693Y-101121653D01*
X159577952Y-101121653D01*
X159733962Y-101437214D01*
X160108745Y-101628020D01*
X160513551Y-101742044D01*
X160932824Y-101774902D01*
X161350451Y-101725334D01*
X161750383Y-101595243D01*
X162046038Y-101437214D01*
X162202048Y-101121653D01*
X160890000Y-99809605D01*
X159577952Y-101121653D01*
X150117693Y-101121653D01*
X150248363Y-100990983D01*
X150482012Y-100641302D01*
X150642953Y-100252756D01*
X150725000Y-99840279D01*
X150725000Y-99672824D01*
X158745098Y-99672824D01*
X158794666Y-100090451D01*
X158924757Y-100490383D01*
X159082786Y-100786038D01*
X159398347Y-100942048D01*
X160710395Y-99630000D01*
X161069605Y-99630000D01*
X162381653Y-100942048D01*
X162697214Y-100786038D01*
X162888020Y-100411255D01*
X163002044Y-100006449D01*
X163034902Y-99587176D01*
X162985334Y-99169549D01*
X162855243Y-98769617D01*
X162697214Y-98473962D01*
X162381653Y-98317952D01*
X161069605Y-99630000D01*
X160710395Y-99630000D01*
X159398347Y-98317952D01*
X159082786Y-98473962D01*
X158891980Y-98848745D01*
X158777956Y-99253551D01*
X158745098Y-99672824D01*
X150725000Y-99672824D01*
X150725000Y-99419721D01*
X150642953Y-99007244D01*
X150482012Y-98618698D01*
X150248363Y-98269017D01*
X150117693Y-98138347D01*
X159577952Y-98138347D01*
X160890000Y-99450395D01*
X162202048Y-98138347D01*
X162046038Y-97822786D01*
X161671255Y-97631980D01*
X161266449Y-97517956D01*
X160847176Y-97485098D01*
X160429549Y-97534666D01*
X160029617Y-97664757D01*
X159733962Y-97822786D01*
X159577952Y-98138347D01*
X150117693Y-98138347D01*
X149950983Y-97971637D01*
X149601302Y-97737988D01*
X149212756Y-97577047D01*
X148800279Y-97495000D01*
X148379721Y-97495000D01*
X147967244Y-97577047D01*
X147578698Y-97737988D01*
X147229017Y-97971637D01*
X146931637Y-98269017D01*
X146697988Y-98618698D01*
X146537047Y-99007244D01*
X146455000Y-99419721D01*
X124673323Y-99419721D01*
X124715000Y-99210199D01*
X124715000Y-98909801D01*
X124656395Y-98615174D01*
X124541438Y-98337642D01*
X124374545Y-98087869D01*
X124162131Y-97875455D01*
X123955976Y-97737707D01*
X123991101Y-97718932D01*
X124209608Y-97539608D01*
X124388932Y-97321101D01*
X124522182Y-97071808D01*
X124604236Y-96801309D01*
X124631943Y-96520000D01*
X124604236Y-96238691D01*
X124522182Y-95968192D01*
X124388932Y-95718899D01*
X124209608Y-95500392D01*
X123991101Y-95321068D01*
X123858142Y-95250000D01*
X123991101Y-95178932D01*
X124209608Y-94999608D01*
X124388932Y-94781101D01*
X124522182Y-94531808D01*
X124604236Y-94261309D01*
X124631943Y-93980000D01*
X124604236Y-93698691D01*
X124522182Y-93428192D01*
X124388932Y-93178899D01*
X124209608Y-92960392D01*
X123991101Y-92781068D01*
X123858142Y-92710000D01*
X123991101Y-92638932D01*
X124209608Y-92459608D01*
X124388932Y-92241101D01*
X124522182Y-91991808D01*
X124604236Y-91721309D01*
X124631943Y-91440000D01*
X124604236Y-91158691D01*
X124563682Y-91025000D01*
X127531928Y-91025000D01*
X127531928Y-92775000D01*
X127561001Y-93070186D01*
X127647104Y-93354028D01*
X127786927Y-93615618D01*
X127975097Y-93844903D01*
X128204382Y-94033073D01*
X128465972Y-94172896D01*
X128749814Y-94258999D01*
X129045000Y-94288072D01*
X130795000Y-94288072D01*
X131090186Y-94258999D01*
X131374028Y-94172896D01*
X131416863Y-94150000D01*
X132231928Y-94150000D01*
X132231928Y-95650000D01*
X132258599Y-95920799D01*
X132337589Y-96181192D01*
X132465860Y-96421171D01*
X132638485Y-96631515D01*
X132848829Y-96804140D01*
X133088808Y-96932411D01*
X133349201Y-97011401D01*
X133620000Y-97038072D01*
X135620000Y-97038072D01*
X135890799Y-97011401D01*
X136151192Y-96932411D01*
X136391171Y-96804140D01*
X136601515Y-96631515D01*
X136774140Y-96421171D01*
X136902411Y-96181192D01*
X136981401Y-95920799D01*
X137008072Y-95650000D01*
X137008072Y-94150000D01*
X136981401Y-93879201D01*
X136902411Y-93618808D01*
X136795998Y-93419721D01*
X160755000Y-93419721D01*
X160755000Y-93840279D01*
X160837047Y-94252756D01*
X160997988Y-94641302D01*
X161231637Y-94990983D01*
X161529017Y-95288363D01*
X161878698Y-95522012D01*
X162267244Y-95682953D01*
X162679721Y-95765000D01*
X163100279Y-95765000D01*
X163512756Y-95682953D01*
X163901302Y-95522012D01*
X164250983Y-95288363D01*
X164548363Y-94990983D01*
X164782012Y-94641302D01*
X164942953Y-94252756D01*
X165025000Y-93840279D01*
X165025000Y-93419721D01*
X164942953Y-93007244D01*
X164782012Y-92618698D01*
X164548363Y-92269017D01*
X164250983Y-91971637D01*
X163901302Y-91737988D01*
X163512756Y-91577047D01*
X163100279Y-91495000D01*
X162679721Y-91495000D01*
X162267244Y-91577047D01*
X161878698Y-91737988D01*
X161529017Y-91971637D01*
X161231637Y-92269017D01*
X160997988Y-92618698D01*
X160837047Y-93007244D01*
X160755000Y-93419721D01*
X136795998Y-93419721D01*
X136774140Y-93378829D01*
X136601515Y-93168485D01*
X136391171Y-92995860D01*
X136151192Y-92867589D01*
X135890799Y-92788599D01*
X135620000Y-92761928D01*
X133620000Y-92761928D01*
X133349201Y-92788599D01*
X133088808Y-92867589D01*
X132848829Y-92995860D01*
X132638485Y-93168485D01*
X132465860Y-93378829D01*
X132337589Y-93618808D01*
X132258599Y-93879201D01*
X132231928Y-94150000D01*
X131416863Y-94150000D01*
X131635618Y-94033073D01*
X131864903Y-93844903D01*
X132053073Y-93615618D01*
X132192896Y-93354028D01*
X132278999Y-93070186D01*
X132308072Y-92775000D01*
X132308072Y-91025000D01*
X132298506Y-90927869D01*
X132339463Y-91004494D01*
X132418815Y-91101185D01*
X132515506Y-91180537D01*
X132625820Y-91239502D01*
X132745518Y-91275812D01*
X132870000Y-91288072D01*
X134334250Y-91285000D01*
X134493000Y-91126250D01*
X134493000Y-89027000D01*
X134747000Y-89027000D01*
X134747000Y-91126250D01*
X134905750Y-91285000D01*
X136370000Y-91288072D01*
X136494482Y-91275812D01*
X136614180Y-91239502D01*
X136724494Y-91180537D01*
X136821185Y-91101185D01*
X136900537Y-91004494D01*
X136959502Y-90894180D01*
X136995812Y-90774482D01*
X137008072Y-90650000D01*
X137005000Y-89185750D01*
X136846250Y-89027000D01*
X134747000Y-89027000D01*
X134493000Y-89027000D01*
X132393750Y-89027000D01*
X132235000Y-89185750D01*
X132232085Y-90575160D01*
X132192896Y-90445972D01*
X132053073Y-90184382D01*
X131864903Y-89955097D01*
X131635618Y-89766927D01*
X131374028Y-89627104D01*
X131090186Y-89541001D01*
X130795000Y-89511928D01*
X129045000Y-89511928D01*
X128749814Y-89541001D01*
X128465972Y-89627104D01*
X128204382Y-89766927D01*
X127975097Y-89955097D01*
X127786927Y-90184382D01*
X127647104Y-90445972D01*
X127561001Y-90729814D01*
X127531928Y-91025000D01*
X124563682Y-91025000D01*
X124522182Y-90888192D01*
X124388932Y-90638899D01*
X124209608Y-90420392D01*
X123991101Y-90241068D01*
X123858142Y-90170000D01*
X123991101Y-90098932D01*
X124209608Y-89919608D01*
X124388932Y-89701101D01*
X124522182Y-89451808D01*
X124604236Y-89181309D01*
X124631943Y-88900000D01*
X124604236Y-88618691D01*
X124522182Y-88348192D01*
X124388932Y-88098899D01*
X124209608Y-87880392D01*
X123991101Y-87701068D01*
X123858142Y-87630000D01*
X123991101Y-87558932D01*
X124209608Y-87379608D01*
X124388932Y-87161101D01*
X124394865Y-87150000D01*
X132231928Y-87150000D01*
X132235000Y-88614250D01*
X132393750Y-88773000D01*
X134493000Y-88773000D01*
X134493000Y-86673750D01*
X134747000Y-86673750D01*
X134747000Y-88773000D01*
X136846250Y-88773000D01*
X137005000Y-88614250D01*
X137007506Y-87419721D01*
X146455000Y-87419721D01*
X146455000Y-87840279D01*
X146537047Y-88252756D01*
X146697988Y-88641302D01*
X146931637Y-88990983D01*
X147229017Y-89288363D01*
X147578698Y-89522012D01*
X147967244Y-89682953D01*
X148379721Y-89765000D01*
X148800279Y-89765000D01*
X149212756Y-89682953D01*
X149601302Y-89522012D01*
X149950983Y-89288363D01*
X150248363Y-88990983D01*
X150482012Y-88641302D01*
X150642953Y-88252756D01*
X150725000Y-87840279D01*
X150725000Y-87419721D01*
X158755000Y-87419721D01*
X158755000Y-87840279D01*
X158837047Y-88252756D01*
X158997988Y-88641302D01*
X159231637Y-88990983D01*
X159529017Y-89288363D01*
X159878698Y-89522012D01*
X160267244Y-89682953D01*
X160679721Y-89765000D01*
X161100279Y-89765000D01*
X161512756Y-89682953D01*
X161901302Y-89522012D01*
X162250983Y-89288363D01*
X162548363Y-88990983D01*
X162782012Y-88641302D01*
X162942953Y-88252756D01*
X163025000Y-87840279D01*
X163025000Y-87419721D01*
X162942953Y-87007244D01*
X162782012Y-86618698D01*
X162548363Y-86269017D01*
X162250983Y-85971637D01*
X161901302Y-85737988D01*
X161512756Y-85577047D01*
X161100279Y-85495000D01*
X160679721Y-85495000D01*
X160267244Y-85577047D01*
X159878698Y-85737988D01*
X159529017Y-85971637D01*
X159231637Y-86269017D01*
X158997988Y-86618698D01*
X158837047Y-87007244D01*
X158755000Y-87419721D01*
X150725000Y-87419721D01*
X150642953Y-87007244D01*
X150482012Y-86618698D01*
X150248363Y-86269017D01*
X149950983Y-85971637D01*
X149601302Y-85737988D01*
X149212756Y-85577047D01*
X148800279Y-85495000D01*
X148379721Y-85495000D01*
X147967244Y-85577047D01*
X147578698Y-85737988D01*
X147229017Y-85971637D01*
X146931637Y-86269017D01*
X146697988Y-86618698D01*
X146537047Y-87007244D01*
X146455000Y-87419721D01*
X137007506Y-87419721D01*
X137008072Y-87150000D01*
X136995812Y-87025518D01*
X136959502Y-86905820D01*
X136900537Y-86795506D01*
X136821185Y-86698815D01*
X136724494Y-86619463D01*
X136614180Y-86560498D01*
X136494482Y-86524188D01*
X136370000Y-86511928D01*
X134905750Y-86515000D01*
X134747000Y-86673750D01*
X134493000Y-86673750D01*
X134334250Y-86515000D01*
X132870000Y-86511928D01*
X132745518Y-86524188D01*
X132625820Y-86560498D01*
X132515506Y-86619463D01*
X132418815Y-86698815D01*
X132339463Y-86795506D01*
X132280498Y-86905820D01*
X132244188Y-87025518D01*
X132231928Y-87150000D01*
X124394865Y-87150000D01*
X124522182Y-86911808D01*
X124604236Y-86641309D01*
X124631943Y-86360000D01*
X124604236Y-86078691D01*
X124522182Y-85808192D01*
X124388932Y-85558899D01*
X124209608Y-85340392D01*
X123991101Y-85161068D01*
X123858142Y-85090000D01*
X123991101Y-85018932D01*
X124209608Y-84839608D01*
X124388932Y-84621101D01*
X124522182Y-84371808D01*
X124604236Y-84101309D01*
X124631943Y-83820000D01*
X124604236Y-83538691D01*
X124522182Y-83268192D01*
X124388932Y-83018899D01*
X124209608Y-82800392D01*
X123991101Y-82621068D01*
X123858142Y-82550000D01*
X123991101Y-82478932D01*
X124209608Y-82299608D01*
X124388932Y-82081101D01*
X124522182Y-81831808D01*
X124604236Y-81561309D01*
X124631943Y-81280000D01*
X124604236Y-80998691D01*
X124522182Y-80728192D01*
X124388932Y-80478899D01*
X124209608Y-80260392D01*
X123991101Y-80081068D01*
X123858142Y-80010000D01*
X123991101Y-79938932D01*
X124209608Y-79759608D01*
X124388932Y-79541101D01*
X124522182Y-79291808D01*
X124604236Y-79021309D01*
X124631943Y-78740000D01*
X124604236Y-78458691D01*
X124522182Y-78188192D01*
X124388932Y-77938899D01*
X124209608Y-77720392D01*
X123991101Y-77541068D01*
X123858142Y-77470000D01*
X123991101Y-77398932D01*
X124209608Y-77219608D01*
X124388932Y-77001101D01*
X124522182Y-76751808D01*
X124604236Y-76481309D01*
X124631943Y-76200000D01*
X124604236Y-75918691D01*
X124522182Y-75648192D01*
X124388932Y-75398899D01*
X124209608Y-75180392D01*
X123991101Y-75001068D01*
X123858142Y-74930000D01*
X123991101Y-74858932D01*
X124209608Y-74679608D01*
X124388932Y-74461101D01*
X124522182Y-74211808D01*
X124604236Y-73941309D01*
X124631943Y-73660000D01*
X124604236Y-73378691D01*
X124522182Y-73108192D01*
X124388932Y-72858899D01*
X124209608Y-72640392D01*
X123991101Y-72461068D01*
X123858142Y-72390000D01*
X123991101Y-72318932D01*
X124209608Y-72139608D01*
X124388932Y-71921101D01*
X124522182Y-71671808D01*
X124604236Y-71401309D01*
X124631943Y-71120000D01*
X124604236Y-70838691D01*
X124522182Y-70568192D01*
X124388932Y-70318899D01*
X124209608Y-70100392D01*
X123991101Y-69921068D01*
X123858142Y-69850000D01*
X123991101Y-69778932D01*
X124209608Y-69599608D01*
X124388932Y-69381101D01*
X124410901Y-69340000D01*
X125415199Y-69340000D01*
X131983628Y-75908430D01*
X131953000Y-76062408D01*
X131953000Y-76337592D01*
X132006686Y-76607490D01*
X132111995Y-76861727D01*
X132264880Y-77090535D01*
X132459465Y-77285120D01*
X132688273Y-77438005D01*
X132765515Y-77470000D01*
X132688273Y-77501995D01*
X132459465Y-77654880D01*
X132264880Y-77849465D01*
X132111995Y-78078273D01*
X132006686Y-78332510D01*
X131953000Y-78602408D01*
X131953000Y-78877592D01*
X132006686Y-79147490D01*
X132111995Y-79401727D01*
X132264880Y-79630535D01*
X132459465Y-79825120D01*
X132688273Y-79978005D01*
X132765515Y-80010000D01*
X132688273Y-80041995D01*
X132459465Y-80194880D01*
X132264880Y-80389465D01*
X132111995Y-80618273D01*
X132006686Y-80872510D01*
X131953000Y-81142408D01*
X131953000Y-81417592D01*
X132006686Y-81687490D01*
X132111995Y-81941727D01*
X132264880Y-82170535D01*
X132459465Y-82365120D01*
X132688273Y-82518005D01*
X132942510Y-82623314D01*
X133212408Y-82677000D01*
X133487592Y-82677000D01*
X133757490Y-82623314D01*
X134011727Y-82518005D01*
X134240535Y-82365120D01*
X134435120Y-82170535D01*
X134588005Y-81941727D01*
X134693314Y-81687490D01*
X134747000Y-81417592D01*
X134747000Y-81142408D01*
X134693314Y-80872510D01*
X134588005Y-80618273D01*
X134435120Y-80389465D01*
X134240535Y-80194880D01*
X134011727Y-80041995D01*
X133934485Y-80010000D01*
X134011727Y-79978005D01*
X134240535Y-79825120D01*
X134435120Y-79630535D01*
X134588005Y-79401727D01*
X134693314Y-79147490D01*
X134747000Y-78877592D01*
X134747000Y-78602408D01*
X134693314Y-78332510D01*
X134588005Y-78078273D01*
X134435120Y-77849465D01*
X134240535Y-77654880D01*
X134011727Y-77501995D01*
X133934485Y-77470000D01*
X134011727Y-77438005D01*
X134240535Y-77285120D01*
X134435120Y-77090535D01*
X134588005Y-76861727D01*
X134693314Y-76607490D01*
X134747000Y-76337592D01*
X134747000Y-76062408D01*
X134693314Y-75792510D01*
X134588005Y-75538273D01*
X134435120Y-75309465D01*
X134240535Y-75114880D01*
X134011727Y-74961995D01*
X133934485Y-74930000D01*
X134011727Y-74898005D01*
X134240535Y-74745120D01*
X134435120Y-74550535D01*
X134588005Y-74321727D01*
X134693314Y-74067490D01*
X134747000Y-73797592D01*
X134747000Y-73522408D01*
X145923000Y-73522408D01*
X145923000Y-73797592D01*
X145976686Y-74067490D01*
X146081995Y-74321727D01*
X146234880Y-74550535D01*
X146429465Y-74745120D01*
X146658273Y-74898005D01*
X146735515Y-74930000D01*
X146658273Y-74961995D01*
X146429465Y-75114880D01*
X146234880Y-75309465D01*
X146081995Y-75538273D01*
X145976686Y-75792510D01*
X145923000Y-76062408D01*
X145923000Y-76337592D01*
X145976686Y-76607490D01*
X146081995Y-76861727D01*
X146234880Y-77090535D01*
X146429465Y-77285120D01*
X146658273Y-77438005D01*
X146735515Y-77470000D01*
X146658273Y-77501995D01*
X146429465Y-77654880D01*
X146234880Y-77849465D01*
X146081995Y-78078273D01*
X145976686Y-78332510D01*
X145923000Y-78602408D01*
X145923000Y-78877592D01*
X145976686Y-79147490D01*
X146081995Y-79401727D01*
X146234880Y-79630535D01*
X146429465Y-79825120D01*
X146658273Y-79978005D01*
X146735515Y-80010000D01*
X146658273Y-80041995D01*
X146429465Y-80194880D01*
X146234880Y-80389465D01*
X146081995Y-80618273D01*
X145976686Y-80872510D01*
X145923000Y-81142408D01*
X145923000Y-81417592D01*
X145976686Y-81687490D01*
X146081995Y-81941727D01*
X146234880Y-82170535D01*
X146429465Y-82365120D01*
X146658273Y-82518005D01*
X146912510Y-82623314D01*
X147182408Y-82677000D01*
X147457592Y-82677000D01*
X147727490Y-82623314D01*
X147981727Y-82518005D01*
X148210535Y-82365120D01*
X148405120Y-82170535D01*
X148558005Y-81941727D01*
X148663314Y-81687490D01*
X148717000Y-81417592D01*
X148717000Y-81280000D01*
X154466606Y-81280000D01*
X154500105Y-81620119D01*
X154599314Y-81947168D01*
X154760421Y-82248578D01*
X154977234Y-82512766D01*
X155241422Y-82729579D01*
X155542832Y-82890686D01*
X155869881Y-82989895D01*
X156124775Y-83015000D01*
X156295225Y-83015000D01*
X156550119Y-82989895D01*
X156877168Y-82890686D01*
X157178578Y-82729579D01*
X157442766Y-82512766D01*
X157551723Y-82380000D01*
X162091928Y-82380000D01*
X162104188Y-82504482D01*
X162140498Y-82624180D01*
X162199463Y-82734494D01*
X162278815Y-82831185D01*
X162375506Y-82910537D01*
X162485820Y-82969502D01*
X162605518Y-83005812D01*
X162730000Y-83018072D01*
X163544250Y-83015000D01*
X163703000Y-82856250D01*
X163703000Y-81407000D01*
X163957000Y-81407000D01*
X163957000Y-82856250D01*
X164115750Y-83015000D01*
X164930000Y-83018072D01*
X165054482Y-83005812D01*
X165174180Y-82969502D01*
X165284494Y-82910537D01*
X165381185Y-82831185D01*
X165460537Y-82734494D01*
X165519502Y-82624180D01*
X165555812Y-82504482D01*
X165568072Y-82380000D01*
X165565000Y-81565750D01*
X165406250Y-81407000D01*
X163957000Y-81407000D01*
X163703000Y-81407000D01*
X162253750Y-81407000D01*
X162095000Y-81565750D01*
X162091928Y-82380000D01*
X157551723Y-82380000D01*
X157659579Y-82248578D01*
X157820686Y-81947168D01*
X157919895Y-81620119D01*
X157953394Y-81280000D01*
X157919895Y-80939881D01*
X157820686Y-80612832D01*
X157659579Y-80311422D01*
X157551724Y-80180000D01*
X162091928Y-80180000D01*
X162095000Y-80994250D01*
X162253750Y-81153000D01*
X163703000Y-81153000D01*
X163703000Y-79703750D01*
X163957000Y-79703750D01*
X163957000Y-81153000D01*
X165406250Y-81153000D01*
X165565000Y-80994250D01*
X165568072Y-80180000D01*
X165555812Y-80055518D01*
X165519502Y-79935820D01*
X165460537Y-79825506D01*
X165381185Y-79728815D01*
X165284494Y-79649463D01*
X165174180Y-79590498D01*
X165054482Y-79554188D01*
X164930000Y-79541928D01*
X164115750Y-79545000D01*
X163957000Y-79703750D01*
X163703000Y-79703750D01*
X163544250Y-79545000D01*
X162730000Y-79541928D01*
X162605518Y-79554188D01*
X162485820Y-79590498D01*
X162375506Y-79649463D01*
X162278815Y-79728815D01*
X162199463Y-79825506D01*
X162140498Y-79935820D01*
X162104188Y-80055518D01*
X162091928Y-80180000D01*
X157551724Y-80180000D01*
X157442766Y-80047234D01*
X157178578Y-79830421D01*
X156877168Y-79669314D01*
X156550119Y-79570105D01*
X156295225Y-79545000D01*
X156124775Y-79545000D01*
X155869881Y-79570105D01*
X155542832Y-79669314D01*
X155241422Y-79830421D01*
X154977234Y-80047234D01*
X154760421Y-80311422D01*
X154599314Y-80612832D01*
X154500105Y-80939881D01*
X154466606Y-81280000D01*
X148717000Y-81280000D01*
X148717000Y-81142408D01*
X148663314Y-80872510D01*
X148558005Y-80618273D01*
X148405120Y-80389465D01*
X148210535Y-80194880D01*
X147981727Y-80041995D01*
X147904485Y-80010000D01*
X147981727Y-79978005D01*
X148210535Y-79825120D01*
X148405120Y-79630535D01*
X148558005Y-79401727D01*
X148663314Y-79147490D01*
X148717000Y-78877592D01*
X148717000Y-78602408D01*
X148663314Y-78332510D01*
X148558005Y-78078273D01*
X148405120Y-77849465D01*
X148210535Y-77654880D01*
X147981727Y-77501995D01*
X147904485Y-77470000D01*
X147981727Y-77438005D01*
X148210535Y-77285120D01*
X148405120Y-77090535D01*
X148558005Y-76861727D01*
X148663314Y-76607490D01*
X148717000Y-76337592D01*
X148717000Y-76062408D01*
X148663314Y-75792510D01*
X148558005Y-75538273D01*
X148405120Y-75309465D01*
X148210535Y-75114880D01*
X147981727Y-74961995D01*
X147904485Y-74930000D01*
X147981727Y-74898005D01*
X148210535Y-74745120D01*
X148405120Y-74550535D01*
X148558005Y-74321727D01*
X148663314Y-74067490D01*
X148717000Y-73797592D01*
X148717000Y-73660000D01*
X154466606Y-73660000D01*
X154500105Y-74000119D01*
X154599314Y-74327168D01*
X154760421Y-74628578D01*
X154977234Y-74892766D01*
X155241422Y-75109579D01*
X155542832Y-75270686D01*
X155869881Y-75369895D01*
X156124775Y-75395000D01*
X156295225Y-75395000D01*
X156550119Y-75369895D01*
X156877168Y-75270686D01*
X157178578Y-75109579D01*
X157442766Y-74892766D01*
X157551723Y-74760000D01*
X162091928Y-74760000D01*
X162104188Y-74884482D01*
X162140498Y-75004180D01*
X162199463Y-75114494D01*
X162278815Y-75211185D01*
X162375506Y-75290537D01*
X162485820Y-75349502D01*
X162605518Y-75385812D01*
X162730000Y-75398072D01*
X163544250Y-75395000D01*
X163703000Y-75236250D01*
X163703000Y-73787000D01*
X163957000Y-73787000D01*
X163957000Y-75236250D01*
X164115750Y-75395000D01*
X164930000Y-75398072D01*
X165054482Y-75385812D01*
X165174180Y-75349502D01*
X165284494Y-75290537D01*
X165381185Y-75211185D01*
X165460537Y-75114494D01*
X165519502Y-75004180D01*
X165555812Y-74884482D01*
X165568072Y-74760000D01*
X165565000Y-73945750D01*
X165406250Y-73787000D01*
X163957000Y-73787000D01*
X163703000Y-73787000D01*
X162253750Y-73787000D01*
X162095000Y-73945750D01*
X162091928Y-74760000D01*
X157551723Y-74760000D01*
X157659579Y-74628578D01*
X157820686Y-74327168D01*
X157919895Y-74000119D01*
X157953394Y-73660000D01*
X157919895Y-73319881D01*
X157820686Y-72992832D01*
X157659579Y-72691422D01*
X157551724Y-72560000D01*
X162091928Y-72560000D01*
X162095000Y-73374250D01*
X162253750Y-73533000D01*
X163703000Y-73533000D01*
X163703000Y-72083750D01*
X163957000Y-72083750D01*
X163957000Y-73533000D01*
X165406250Y-73533000D01*
X165565000Y-73374250D01*
X165568072Y-72560000D01*
X165555812Y-72435518D01*
X165519502Y-72315820D01*
X165460537Y-72205506D01*
X165381185Y-72108815D01*
X165284494Y-72029463D01*
X165174180Y-71970498D01*
X165054482Y-71934188D01*
X164930000Y-71921928D01*
X164115750Y-71925000D01*
X163957000Y-72083750D01*
X163703000Y-72083750D01*
X163544250Y-71925000D01*
X162730000Y-71921928D01*
X162605518Y-71934188D01*
X162485820Y-71970498D01*
X162375506Y-72029463D01*
X162278815Y-72108815D01*
X162199463Y-72205506D01*
X162140498Y-72315820D01*
X162104188Y-72435518D01*
X162091928Y-72560000D01*
X157551724Y-72560000D01*
X157442766Y-72427234D01*
X157178578Y-72210421D01*
X156877168Y-72049314D01*
X156550119Y-71950105D01*
X156295225Y-71925000D01*
X156124775Y-71925000D01*
X155869881Y-71950105D01*
X155542832Y-72049314D01*
X155241422Y-72210421D01*
X154977234Y-72427234D01*
X154760421Y-72691422D01*
X154599314Y-72992832D01*
X154500105Y-73319881D01*
X154466606Y-73660000D01*
X148717000Y-73660000D01*
X148717000Y-73522408D01*
X148663314Y-73252510D01*
X148558005Y-72998273D01*
X148405120Y-72769465D01*
X148210535Y-72574880D01*
X147981727Y-72421995D01*
X147727490Y-72316686D01*
X147457592Y-72263000D01*
X147182408Y-72263000D01*
X146912510Y-72316686D01*
X146658273Y-72421995D01*
X146429465Y-72574880D01*
X146234880Y-72769465D01*
X146081995Y-72998273D01*
X145976686Y-73252510D01*
X145923000Y-73522408D01*
X134747000Y-73522408D01*
X134693314Y-73252510D01*
X134588005Y-72998273D01*
X134435120Y-72769465D01*
X134240535Y-72574880D01*
X134011727Y-72421995D01*
X133757490Y-72316686D01*
X133487592Y-72263000D01*
X133212408Y-72263000D01*
X132942510Y-72316686D01*
X132688273Y-72421995D01*
X132459465Y-72574880D01*
X132264880Y-72769465D01*
X132111995Y-72998273D01*
X132006686Y-73252510D01*
X131953000Y-73522408D01*
X131953000Y-73728198D01*
X126293804Y-68069003D01*
X126270001Y-68039999D01*
X126154276Y-67945026D01*
X126022247Y-67874454D01*
X125878986Y-67830997D01*
X125767333Y-67820000D01*
X125767322Y-67820000D01*
X125730000Y-67816324D01*
X125692678Y-67820000D01*
X125024802Y-67820000D01*
X126241008Y-66603795D01*
X126270001Y-66580001D01*
X126293795Y-66551008D01*
X126293799Y-66551004D01*
X126364973Y-66464277D01*
X126364974Y-66464276D01*
X126435546Y-66332247D01*
X126479003Y-66188986D01*
X126490000Y-66077333D01*
X126490000Y-66077324D01*
X126493676Y-66040001D01*
X126490000Y-66002678D01*
X126490000Y-65898665D01*
X130645000Y-65898665D01*
X130645000Y-66181335D01*
X130700147Y-66458574D01*
X130808320Y-66719727D01*
X130965363Y-66954759D01*
X131165241Y-67154637D01*
X131400273Y-67311680D01*
X131661426Y-67419853D01*
X131938665Y-67475000D01*
X132221335Y-67475000D01*
X132498574Y-67419853D01*
X132759727Y-67311680D01*
X132994759Y-67154637D01*
X133194637Y-66954759D01*
X133351680Y-66719727D01*
X133459853Y-66458574D01*
X133515000Y-66181335D01*
X133515000Y-66040000D01*
X138258057Y-66040000D01*
X138285764Y-66321309D01*
X138367818Y-66591808D01*
X138501068Y-66841101D01*
X138680392Y-67059608D01*
X138898899Y-67238932D01*
X139148192Y-67372182D01*
X139418691Y-67454236D01*
X139629508Y-67475000D01*
X139770492Y-67475000D01*
X139981309Y-67454236D01*
X140251808Y-67372182D01*
X140501101Y-67238932D01*
X140719608Y-67059608D01*
X140898932Y-66841101D01*
X141032182Y-66591808D01*
X141114236Y-66321309D01*
X141115349Y-66310000D01*
X144459428Y-66310000D01*
X144459428Y-68310000D01*
X144471688Y-68434482D01*
X144507998Y-68554180D01*
X144566963Y-68664494D01*
X144646315Y-68761185D01*
X144743006Y-68840537D01*
X144853320Y-68899502D01*
X144973018Y-68935812D01*
X145097500Y-68948072D01*
X147002500Y-68948072D01*
X147126982Y-68935812D01*
X147246680Y-68899502D01*
X147356994Y-68840537D01*
X147453685Y-68761185D01*
X147533037Y-68664494D01*
X147577905Y-68580553D01*
X147703766Y-68683845D01*
X147979552Y-68831255D01*
X148278797Y-68922030D01*
X148590000Y-68952681D01*
X148901204Y-68922030D01*
X149200449Y-68831255D01*
X149476235Y-68683845D01*
X149717963Y-68485463D01*
X149860000Y-68312391D01*
X150002037Y-68485463D01*
X150243766Y-68683845D01*
X150519552Y-68831255D01*
X150818797Y-68922030D01*
X151130000Y-68952681D01*
X151441204Y-68922030D01*
X151740449Y-68831255D01*
X152016235Y-68683845D01*
X152257963Y-68485463D01*
X152456345Y-68243734D01*
X152603755Y-67967948D01*
X152694530Y-67668703D01*
X152717500Y-67435485D01*
X152717500Y-67184514D01*
X152694530Y-66951296D01*
X152603755Y-66652051D01*
X152456345Y-66376265D01*
X152257963Y-66134537D01*
X152016234Y-65936155D01*
X151740448Y-65788745D01*
X151441203Y-65697970D01*
X151130000Y-65667319D01*
X150818796Y-65697970D01*
X150519551Y-65788745D01*
X150243765Y-65936155D01*
X150002037Y-66134537D01*
X149860000Y-66307609D01*
X149717963Y-66134537D01*
X149476234Y-65936155D01*
X149200448Y-65788745D01*
X148901203Y-65697970D01*
X148590000Y-65667319D01*
X148278796Y-65697970D01*
X147979551Y-65788745D01*
X147703765Y-65936155D01*
X147577905Y-66039446D01*
X147533037Y-65955506D01*
X147453685Y-65858815D01*
X147356994Y-65779463D01*
X147246680Y-65720498D01*
X147126982Y-65684188D01*
X147002500Y-65671928D01*
X145097500Y-65671928D01*
X144973018Y-65684188D01*
X144853320Y-65720498D01*
X144743006Y-65779463D01*
X144646315Y-65858815D01*
X144566963Y-65955506D01*
X144507998Y-66065820D01*
X144471688Y-66185518D01*
X144459428Y-66310000D01*
X141115349Y-66310000D01*
X141141943Y-66040000D01*
X141114236Y-65758691D01*
X141032182Y-65488192D01*
X140898932Y-65238899D01*
X140719608Y-65020392D01*
X140501101Y-64841068D01*
X140251808Y-64707818D01*
X139981309Y-64625764D01*
X139770492Y-64605000D01*
X139629508Y-64605000D01*
X139418691Y-64625764D01*
X139148192Y-64707818D01*
X138898899Y-64841068D01*
X138680392Y-65020392D01*
X138501068Y-65238899D01*
X138367818Y-65488192D01*
X138285764Y-65758691D01*
X138258057Y-66040000D01*
X133515000Y-66040000D01*
X133515000Y-65898665D01*
X133459853Y-65621426D01*
X133351680Y-65360273D01*
X133194637Y-65125241D01*
X132994759Y-64925363D01*
X132759727Y-64768320D01*
X132498574Y-64660147D01*
X132221335Y-64605000D01*
X131938665Y-64605000D01*
X131661426Y-64660147D01*
X131400273Y-64768320D01*
X131165241Y-64925363D01*
X130965363Y-65125241D01*
X130808320Y-65360273D01*
X130700147Y-65621426D01*
X130645000Y-65898665D01*
X126490000Y-65898665D01*
X126490000Y-57008665D01*
X130645000Y-57008665D01*
X130645000Y-57291335D01*
X130700147Y-57568574D01*
X130808320Y-57829727D01*
X130965363Y-58064759D01*
X131165241Y-58264637D01*
X131400273Y-58421680D01*
X131661426Y-58529853D01*
X131938665Y-58585000D01*
X132221335Y-58585000D01*
X132498574Y-58529853D01*
X132759727Y-58421680D01*
X132994759Y-58264637D01*
X133194637Y-58064759D01*
X133351680Y-57829727D01*
X133459853Y-57568574D01*
X133515000Y-57291335D01*
X133515000Y-57150000D01*
X138258057Y-57150000D01*
X138285764Y-57431309D01*
X138367818Y-57701808D01*
X138501068Y-57951101D01*
X138680392Y-58169608D01*
X138898899Y-58348932D01*
X139148192Y-58482182D01*
X139418691Y-58564236D01*
X139629508Y-58585000D01*
X139770492Y-58585000D01*
X139981309Y-58564236D01*
X140251808Y-58482182D01*
X140501101Y-58348932D01*
X140719608Y-58169608D01*
X140898932Y-57951101D01*
X141032182Y-57701808D01*
X141114236Y-57431309D01*
X141141943Y-57150000D01*
X141114236Y-56868691D01*
X141032182Y-56598192D01*
X140898932Y-56348899D01*
X140735700Y-56150000D01*
X144459428Y-56150000D01*
X144459428Y-58150000D01*
X144471688Y-58274482D01*
X144507998Y-58394180D01*
X144566963Y-58504494D01*
X144646315Y-58601185D01*
X144743006Y-58680537D01*
X144853320Y-58739502D01*
X144973018Y-58775812D01*
X145097500Y-58788072D01*
X147002500Y-58788072D01*
X147126982Y-58775812D01*
X147246680Y-58739502D01*
X147356994Y-58680537D01*
X147453685Y-58601185D01*
X147533037Y-58504494D01*
X147577905Y-58420553D01*
X147703766Y-58523845D01*
X147979552Y-58671255D01*
X148278797Y-58762030D01*
X148590000Y-58792681D01*
X148901204Y-58762030D01*
X149200449Y-58671255D01*
X149476235Y-58523845D01*
X149717963Y-58325463D01*
X149860000Y-58152391D01*
X150002037Y-58325463D01*
X150243766Y-58523845D01*
X150519552Y-58671255D01*
X150818797Y-58762030D01*
X151130000Y-58792681D01*
X151441204Y-58762030D01*
X151740449Y-58671255D01*
X152016235Y-58523845D01*
X152257963Y-58325463D01*
X152456345Y-58083734D01*
X152603755Y-57807948D01*
X152694530Y-57508703D01*
X152717500Y-57275485D01*
X152717500Y-57220000D01*
X158181928Y-57220000D01*
X158181928Y-59620000D01*
X158194188Y-59744482D01*
X158230498Y-59864180D01*
X158289463Y-59974494D01*
X158368815Y-60071185D01*
X158465506Y-60150537D01*
X158575820Y-60209502D01*
X158695518Y-60245812D01*
X158820000Y-60258072D01*
X161220000Y-60258072D01*
X161344482Y-60245812D01*
X161464180Y-60209502D01*
X161574494Y-60150537D01*
X161671185Y-60071185D01*
X161750537Y-59974494D01*
X161809502Y-59864180D01*
X161845812Y-59744482D01*
X161858072Y-59620000D01*
X161858072Y-57220000D01*
X161845812Y-57095518D01*
X161809502Y-56975820D01*
X161750537Y-56865506D01*
X161671185Y-56768815D01*
X161574494Y-56689463D01*
X161464180Y-56630498D01*
X161344482Y-56594188D01*
X161220000Y-56581928D01*
X160813097Y-56581928D01*
X160998486Y-56482836D01*
X161118374Y-56197980D01*
X160020000Y-55099605D01*
X158921626Y-56197980D01*
X159041514Y-56482836D01*
X159240912Y-56581928D01*
X158820000Y-56581928D01*
X158695518Y-56594188D01*
X158575820Y-56630498D01*
X158465506Y-56689463D01*
X158368815Y-56768815D01*
X158289463Y-56865506D01*
X158230498Y-56975820D01*
X158194188Y-57095518D01*
X158181928Y-57220000D01*
X152717500Y-57220000D01*
X152717500Y-57024514D01*
X152694530Y-56791296D01*
X152603755Y-56492051D01*
X152456345Y-56216265D01*
X152257963Y-55974537D01*
X152016234Y-55776155D01*
X151740448Y-55628745D01*
X151441203Y-55537970D01*
X151130000Y-55507319D01*
X150818796Y-55537970D01*
X150519551Y-55628745D01*
X150243765Y-55776155D01*
X150002037Y-55974537D01*
X149860000Y-56147609D01*
X149717963Y-55974537D01*
X149476234Y-55776155D01*
X149200448Y-55628745D01*
X148901203Y-55537970D01*
X148590000Y-55507319D01*
X148278796Y-55537970D01*
X147979551Y-55628745D01*
X147703765Y-55776155D01*
X147577905Y-55879446D01*
X147533037Y-55795506D01*
X147453685Y-55698815D01*
X147356994Y-55619463D01*
X147246680Y-55560498D01*
X147126982Y-55524188D01*
X147002500Y-55511928D01*
X145097500Y-55511928D01*
X144973018Y-55524188D01*
X144853320Y-55560498D01*
X144743006Y-55619463D01*
X144646315Y-55698815D01*
X144566963Y-55795506D01*
X144507998Y-55905820D01*
X144471688Y-56025518D01*
X144459428Y-56150000D01*
X140735700Y-56150000D01*
X140719608Y-56130392D01*
X140501101Y-55951068D01*
X140251808Y-55817818D01*
X139981309Y-55735764D01*
X139770492Y-55715000D01*
X139629508Y-55715000D01*
X139418691Y-55735764D01*
X139148192Y-55817818D01*
X138898899Y-55951068D01*
X138680392Y-56130392D01*
X138501068Y-56348899D01*
X138367818Y-56598192D01*
X138285764Y-56868691D01*
X138258057Y-57150000D01*
X133515000Y-57150000D01*
X133515000Y-57008665D01*
X133459853Y-56731426D01*
X133351680Y-56470273D01*
X133194637Y-56235241D01*
X132994759Y-56035363D01*
X132759727Y-55878320D01*
X132498574Y-55770147D01*
X132221335Y-55715000D01*
X131938665Y-55715000D01*
X131661426Y-55770147D01*
X131400273Y-55878320D01*
X131165241Y-56035363D01*
X130965363Y-56235241D01*
X130808320Y-56470273D01*
X130700147Y-56731426D01*
X130645000Y-57008665D01*
X126490000Y-57008665D01*
X126490000Y-54974684D01*
X158176933Y-54974684D01*
X158223015Y-55333198D01*
X158338154Y-55675833D01*
X158457164Y-55898486D01*
X158742020Y-56018374D01*
X159840395Y-54920000D01*
X160199605Y-54920000D01*
X161297980Y-56018374D01*
X161582836Y-55898486D01*
X161743699Y-55574790D01*
X161838322Y-55225931D01*
X161863067Y-54865316D01*
X161816985Y-54506802D01*
X161701846Y-54164167D01*
X161582836Y-53941514D01*
X161297980Y-53821626D01*
X160199605Y-54920000D01*
X159840395Y-54920000D01*
X158742020Y-53821626D01*
X158457164Y-53941514D01*
X158296301Y-54265210D01*
X158201678Y-54614069D01*
X158176933Y-54974684D01*
X126490000Y-54974684D01*
X126490000Y-51239268D01*
X158185000Y-51239268D01*
X158185000Y-51600732D01*
X158255518Y-51955250D01*
X158393844Y-52289199D01*
X158594662Y-52589744D01*
X158850256Y-52845338D01*
X159150801Y-53046156D01*
X159457489Y-53173190D01*
X159264167Y-53238154D01*
X159041514Y-53357164D01*
X158921626Y-53642020D01*
X160020000Y-54740395D01*
X161118374Y-53642020D01*
X160998486Y-53357164D01*
X160674790Y-53196301D01*
X160585310Y-53172031D01*
X160889199Y-53046156D01*
X161189744Y-52845338D01*
X161445338Y-52589744D01*
X161646156Y-52289199D01*
X161784482Y-51955250D01*
X161855000Y-51600732D01*
X161855000Y-51239268D01*
X161784482Y-50884750D01*
X161646156Y-50550801D01*
X161445338Y-50250256D01*
X161189744Y-49994662D01*
X160889199Y-49793844D01*
X160582511Y-49666810D01*
X160775833Y-49601846D01*
X160998486Y-49482836D01*
X161118374Y-49197980D01*
X160020000Y-48099605D01*
X158921626Y-49197980D01*
X159041514Y-49482836D01*
X159365210Y-49643699D01*
X159454690Y-49667969D01*
X159150801Y-49793844D01*
X158850256Y-49994662D01*
X158594662Y-50250256D01*
X158393844Y-50550801D01*
X158255518Y-50884750D01*
X158185000Y-51239268D01*
X126490000Y-51239268D01*
X126490000Y-46990000D01*
X130638057Y-46990000D01*
X130665764Y-47271309D01*
X130747818Y-47541808D01*
X130881068Y-47791101D01*
X131060392Y-48009608D01*
X131278899Y-48188932D01*
X131528192Y-48322182D01*
X131798691Y-48404236D01*
X132009508Y-48425000D01*
X132150492Y-48425000D01*
X132361309Y-48404236D01*
X132631808Y-48322182D01*
X132881101Y-48188932D01*
X133099608Y-48009608D01*
X133278932Y-47791101D01*
X133412182Y-47541808D01*
X133494236Y-47271309D01*
X133521943Y-46990000D01*
X133508023Y-46848665D01*
X138265000Y-46848665D01*
X138265000Y-47131335D01*
X138320147Y-47408574D01*
X138428320Y-47669727D01*
X138585363Y-47904759D01*
X138785241Y-48104637D01*
X139020273Y-48261680D01*
X139281426Y-48369853D01*
X139558665Y-48425000D01*
X139841335Y-48425000D01*
X140118574Y-48369853D01*
X140379727Y-48261680D01*
X140614759Y-48104637D01*
X140814637Y-47904759D01*
X140971680Y-47669727D01*
X141079853Y-47408574D01*
X141135000Y-47131335D01*
X141135000Y-46848665D01*
X141079853Y-46571426D01*
X140971680Y-46310273D01*
X140814637Y-46075241D01*
X140729396Y-45990000D01*
X144459428Y-45990000D01*
X144459428Y-47990000D01*
X144471688Y-48114482D01*
X144507998Y-48234180D01*
X144566963Y-48344494D01*
X144646315Y-48441185D01*
X144743006Y-48520537D01*
X144853320Y-48579502D01*
X144973018Y-48615812D01*
X145097500Y-48628072D01*
X147002500Y-48628072D01*
X147126982Y-48615812D01*
X147246680Y-48579502D01*
X147356994Y-48520537D01*
X147453685Y-48441185D01*
X147533037Y-48344494D01*
X147577905Y-48260553D01*
X147703766Y-48363845D01*
X147979552Y-48511255D01*
X148278797Y-48602030D01*
X148590000Y-48632681D01*
X148901204Y-48602030D01*
X149200449Y-48511255D01*
X149476235Y-48363845D01*
X149717963Y-48165463D01*
X149860000Y-47992391D01*
X150002037Y-48165463D01*
X150243766Y-48363845D01*
X150519552Y-48511255D01*
X150818797Y-48602030D01*
X151130000Y-48632681D01*
X151441204Y-48602030D01*
X151740449Y-48511255D01*
X152016235Y-48363845D01*
X152257963Y-48165463D01*
X152414531Y-47974684D01*
X158176933Y-47974684D01*
X158223015Y-48333198D01*
X158338154Y-48675833D01*
X158457164Y-48898486D01*
X158742020Y-49018374D01*
X159840395Y-47920000D01*
X160199605Y-47920000D01*
X161297980Y-49018374D01*
X161582836Y-48898486D01*
X161743699Y-48574790D01*
X161838322Y-48225931D01*
X161863067Y-47865316D01*
X161816985Y-47506802D01*
X161701846Y-47164167D01*
X161582836Y-46941514D01*
X161297980Y-46821626D01*
X160199605Y-47920000D01*
X159840395Y-47920000D01*
X158742020Y-46821626D01*
X158457164Y-46941514D01*
X158296301Y-47265210D01*
X158201678Y-47614069D01*
X158176933Y-47974684D01*
X152414531Y-47974684D01*
X152456345Y-47923734D01*
X152603755Y-47647948D01*
X152694530Y-47348703D01*
X152717500Y-47115485D01*
X152717500Y-46864514D01*
X152694530Y-46631296D01*
X152603755Y-46332051D01*
X152456345Y-46056265D01*
X152257963Y-45814537D01*
X152016234Y-45616155D01*
X151740448Y-45468745D01*
X151441203Y-45377970D01*
X151130000Y-45347319D01*
X150818796Y-45377970D01*
X150519551Y-45468745D01*
X150243765Y-45616155D01*
X150002037Y-45814537D01*
X149860000Y-45987609D01*
X149717963Y-45814537D01*
X149476234Y-45616155D01*
X149200448Y-45468745D01*
X148901203Y-45377970D01*
X148590000Y-45347319D01*
X148278796Y-45377970D01*
X147979551Y-45468745D01*
X147703765Y-45616155D01*
X147577905Y-45719446D01*
X147533037Y-45635506D01*
X147453685Y-45538815D01*
X147356994Y-45459463D01*
X147246680Y-45400498D01*
X147126982Y-45364188D01*
X147002500Y-45351928D01*
X145097500Y-45351928D01*
X144973018Y-45364188D01*
X144853320Y-45400498D01*
X144743006Y-45459463D01*
X144646315Y-45538815D01*
X144566963Y-45635506D01*
X144507998Y-45745820D01*
X144471688Y-45865518D01*
X144459428Y-45990000D01*
X140729396Y-45990000D01*
X140614759Y-45875363D01*
X140379727Y-45718320D01*
X140118574Y-45610147D01*
X139841335Y-45555000D01*
X139558665Y-45555000D01*
X139281426Y-45610147D01*
X139020273Y-45718320D01*
X138785241Y-45875363D01*
X138585363Y-46075241D01*
X138428320Y-46310273D01*
X138320147Y-46571426D01*
X138265000Y-46848665D01*
X133508023Y-46848665D01*
X133494236Y-46708691D01*
X133412182Y-46438192D01*
X133278932Y-46188899D01*
X133099608Y-45970392D01*
X132881101Y-45791068D01*
X132631808Y-45657818D01*
X132361309Y-45575764D01*
X132150492Y-45555000D01*
X132009508Y-45555000D01*
X131798691Y-45575764D01*
X131528192Y-45657818D01*
X131278899Y-45791068D01*
X131060392Y-45970392D01*
X130881068Y-46188899D01*
X130747818Y-46438192D01*
X130665764Y-46708691D01*
X130638057Y-46990000D01*
X126490000Y-46990000D01*
X126490000Y-44239268D01*
X158185000Y-44239268D01*
X158185000Y-44600732D01*
X158255518Y-44955250D01*
X158393844Y-45289199D01*
X158594662Y-45589744D01*
X158850256Y-45845338D01*
X159150801Y-46046156D01*
X159457489Y-46173190D01*
X159264167Y-46238154D01*
X159041514Y-46357164D01*
X158921626Y-46642020D01*
X160020000Y-47740395D01*
X161118374Y-46642020D01*
X160998486Y-46357164D01*
X160674790Y-46196301D01*
X160585310Y-46172031D01*
X160889199Y-46046156D01*
X161189744Y-45845338D01*
X161445338Y-45589744D01*
X161646156Y-45289199D01*
X161784482Y-44955250D01*
X161855000Y-44600732D01*
X161855000Y-44239268D01*
X161784482Y-43884750D01*
X161646156Y-43550801D01*
X161445338Y-43250256D01*
X161189744Y-42994662D01*
X160889199Y-42793844D01*
X160582511Y-42666810D01*
X160775833Y-42601846D01*
X160998486Y-42482836D01*
X161118374Y-42197980D01*
X160020000Y-41099605D01*
X158921626Y-42197980D01*
X159041514Y-42482836D01*
X159365210Y-42643699D01*
X159454690Y-42667969D01*
X159150801Y-42793844D01*
X158850256Y-42994662D01*
X158594662Y-43250256D01*
X158393844Y-43550801D01*
X158255518Y-43884750D01*
X158185000Y-44239268D01*
X126490000Y-44239268D01*
X126490000Y-41947322D01*
X126493676Y-41909999D01*
X126490000Y-41872676D01*
X126490000Y-41872667D01*
X126479003Y-41761014D01*
X126435546Y-41617753D01*
X126364974Y-41485724D01*
X126270001Y-41369999D01*
X126241004Y-41346202D01*
X125023804Y-40129003D01*
X125000001Y-40099999D01*
X124884276Y-40005026D01*
X124752247Y-39934454D01*
X124608986Y-39890997D01*
X124497333Y-39880000D01*
X124497322Y-39880000D01*
X124460000Y-39876324D01*
X124422678Y-39880000D01*
X119417322Y-39880000D01*
X119379999Y-39876324D01*
X119342676Y-39880000D01*
X119342667Y-39880000D01*
X119231014Y-39890997D01*
X119087753Y-39934454D01*
X118955724Y-40005026D01*
X118955722Y-40005027D01*
X118955723Y-40005027D01*
X118868996Y-40076201D01*
X118868992Y-40076205D01*
X118839999Y-40099999D01*
X118816205Y-40128992D01*
X117216899Y-41728299D01*
X117133777Y-41703084D01*
X116913619Y-41681400D01*
X116766381Y-41681400D01*
X116546223Y-41703084D01*
X116263736Y-41788775D01*
X116003394Y-41927931D01*
X115775203Y-42115203D01*
X115587931Y-42343394D01*
X115570000Y-42376940D01*
X115552069Y-42343394D01*
X115364797Y-42115203D01*
X115136606Y-41927931D01*
X114876264Y-41788775D01*
X114593777Y-41703084D01*
X114373619Y-41681400D01*
X114226381Y-41681400D01*
X114006223Y-41703084D01*
X113723736Y-41788775D01*
X113463394Y-41927931D01*
X113235203Y-42115203D01*
X113047931Y-42343394D01*
X113030000Y-42376940D01*
X113012069Y-42343394D01*
X112824797Y-42115203D01*
X112596606Y-41927931D01*
X112336264Y-41788775D01*
X112053777Y-41703084D01*
X111833619Y-41681400D01*
X111686381Y-41681400D01*
X111466223Y-41703084D01*
X111183736Y-41788775D01*
X110923394Y-41927931D01*
X110695203Y-42115203D01*
X110507931Y-42343394D01*
X110368775Y-42603736D01*
X110283084Y-42886223D01*
X110254149Y-43180000D01*
X110283084Y-43473777D01*
X110368775Y-43756264D01*
X110507931Y-44016606D01*
X110695203Y-44244797D01*
X110703265Y-44251414D01*
X110652220Y-44266898D01*
X110541906Y-44325863D01*
X110445215Y-44405215D01*
X110365863Y-44501906D01*
X110306898Y-44612220D01*
X110270588Y-44731918D01*
X110258328Y-44856400D01*
X110258328Y-46583600D01*
X110270588Y-46708082D01*
X110306898Y-46827780D01*
X110365863Y-46938094D01*
X110445215Y-47034785D01*
X110541906Y-47114137D01*
X110652220Y-47173102D01*
X110771918Y-47209412D01*
X110896400Y-47221672D01*
X112623600Y-47221672D01*
X112748082Y-47209412D01*
X112867780Y-47173102D01*
X112978094Y-47114137D01*
X113074785Y-47034785D01*
X113154137Y-46938094D01*
X113213102Y-46827780D01*
X113228586Y-46776735D01*
X113235203Y-46784797D01*
X113463394Y-46972069D01*
X113723736Y-47111225D01*
X114006223Y-47196916D01*
X114226381Y-47218600D01*
X114373619Y-47218600D01*
X114593777Y-47196916D01*
X114876264Y-47111225D01*
X115136606Y-46972069D01*
X115364797Y-46784797D01*
X115552069Y-46556606D01*
X115570000Y-46523060D01*
X115587931Y-46556606D01*
X115775203Y-46784797D01*
X116003394Y-46972069D01*
X116263736Y-47111225D01*
X116546223Y-47196916D01*
X116766381Y-47218600D01*
X116913619Y-47218600D01*
X117133777Y-47196916D01*
X117416264Y-47111225D01*
X117676606Y-46972069D01*
X117743357Y-46917288D01*
X120670870Y-49844803D01*
X120670870Y-52030350D01*
X120584494Y-51959463D01*
X120474180Y-51900498D01*
X120354482Y-51864188D01*
X120230000Y-51851928D01*
X118530000Y-51851928D01*
X118405518Y-51864188D01*
X118285820Y-51900498D01*
X118175506Y-51959463D01*
X118078815Y-52038815D01*
X117999463Y-52135506D01*
X117940498Y-52245820D01*
X117919607Y-52314687D01*
X117895134Y-52284866D01*
X117669014Y-52099294D01*
X117411034Y-51961401D01*
X117131111Y-51876487D01*
X116912950Y-51855000D01*
X116767050Y-51855000D01*
X116548889Y-51876487D01*
X116268966Y-51961401D01*
X116010986Y-52099294D01*
X115784866Y-52284866D01*
X115599294Y-52510986D01*
X115570000Y-52565791D01*
X115540706Y-52510986D01*
X115355134Y-52284866D01*
X115129014Y-52099294D01*
X114871034Y-51961401D01*
X114591111Y-51876487D01*
X114372950Y-51855000D01*
X114227050Y-51855000D01*
X114008889Y-51876487D01*
X113728966Y-51961401D01*
X113470986Y-52099294D01*
X113244866Y-52284866D01*
X113059294Y-52510986D01*
X113030000Y-52565791D01*
X113000706Y-52510986D01*
X112815134Y-52284866D01*
X112589014Y-52099294D01*
X112331034Y-51961401D01*
X112051111Y-51876487D01*
X111832950Y-51855000D01*
X111687050Y-51855000D01*
X111468889Y-51876487D01*
X111188966Y-51961401D01*
X110930986Y-52099294D01*
X110704866Y-52284866D01*
X110519294Y-52510986D01*
X110490000Y-52565791D01*
X110460706Y-52510986D01*
X110275134Y-52284866D01*
X110049014Y-52099294D01*
X109791034Y-51961401D01*
X109511111Y-51876487D01*
X109292950Y-51855000D01*
X109147050Y-51855000D01*
X108928889Y-51876487D01*
X108648966Y-51961401D01*
X108390986Y-52099294D01*
X108164866Y-52284866D01*
X107979294Y-52510986D01*
X107841401Y-52768966D01*
X107756487Y-53048889D01*
X107727815Y-53340000D01*
X107756487Y-53631111D01*
X107841401Y-53911034D01*
X107979294Y-54169014D01*
X108164866Y-54395134D01*
X108390986Y-54580706D01*
X108648966Y-54718599D01*
X108928889Y-54803513D01*
X109147050Y-54825000D01*
X109292950Y-54825000D01*
X109511111Y-54803513D01*
X109791034Y-54718599D01*
X110049014Y-54580706D01*
X110275134Y-54395134D01*
X110460706Y-54169014D01*
X110490000Y-54114209D01*
X110519294Y-54169014D01*
X110704866Y-54395134D01*
X110930986Y-54580706D01*
X111188966Y-54718599D01*
X111468889Y-54803513D01*
X111687050Y-54825000D01*
X111832950Y-54825000D01*
X112051111Y-54803513D01*
X112331034Y-54718599D01*
X112589014Y-54580706D01*
X112815134Y-54395134D01*
X113000706Y-54169014D01*
X113030000Y-54114209D01*
X113059294Y-54169014D01*
X113244866Y-54395134D01*
X113470986Y-54580706D01*
X113728966Y-54718599D01*
X114008889Y-54803513D01*
X114227050Y-54825000D01*
X114372950Y-54825000D01*
X114591111Y-54803513D01*
X114871034Y-54718599D01*
X115129014Y-54580706D01*
X115355134Y-54395134D01*
X115540706Y-54169014D01*
X115570000Y-54114209D01*
X115599294Y-54169014D01*
X115784866Y-54395134D01*
X116010986Y-54580706D01*
X116268966Y-54718599D01*
X116548889Y-54803513D01*
X116767050Y-54825000D01*
X116912950Y-54825000D01*
X117131111Y-54803513D01*
X117411034Y-54718599D01*
X117669014Y-54580706D01*
X117895134Y-54395134D01*
X117919607Y-54365313D01*
X117940498Y-54434180D01*
X117999463Y-54544494D01*
X118078815Y-54641185D01*
X118175506Y-54720537D01*
X118285820Y-54779502D01*
X118405518Y-54815812D01*
X118530000Y-54828072D01*
X118620001Y-54828072D01*
X118620000Y-64455198D01*
X115255199Y-67820000D01*
X109170901Y-67820000D01*
X109148932Y-67778899D01*
X108969608Y-67560392D01*
X108751101Y-67381068D01*
X108618142Y-67310000D01*
X108751101Y-67238932D01*
X108969608Y-67059608D01*
X109148932Y-66841101D01*
X109282182Y-66591808D01*
X109364236Y-66321309D01*
X109391943Y-66040000D01*
X109364236Y-65758691D01*
X109282182Y-65488192D01*
X109148932Y-65238899D01*
X108969608Y-65020392D01*
X108751101Y-64841068D01*
X108618142Y-64770000D01*
X108751101Y-64698932D01*
X108969608Y-64519608D01*
X109148932Y-64301101D01*
X109282182Y-64051808D01*
X109364236Y-63781309D01*
X109391943Y-63500000D01*
X109364236Y-63218691D01*
X109282182Y-62948192D01*
X109148932Y-62698899D01*
X108969608Y-62480392D01*
X108856518Y-62387581D01*
X108874482Y-62385812D01*
X108994180Y-62349502D01*
X109104494Y-62290537D01*
X109201185Y-62211185D01*
X109280537Y-62114494D01*
X109339502Y-62004180D01*
X109375812Y-61884482D01*
X109388072Y-61760000D01*
X109388072Y-60160000D01*
X109375812Y-60035518D01*
X109339502Y-59915820D01*
X109280537Y-59805506D01*
X109201185Y-59708815D01*
X109104494Y-59629463D01*
X108994180Y-59570498D01*
X108965023Y-59561653D01*
X109134545Y-59392131D01*
X109301438Y-59142358D01*
X109416395Y-58864826D01*
X109475000Y-58570199D01*
X109475000Y-58269801D01*
X109416395Y-57975174D01*
X109301438Y-57697642D01*
X109134545Y-57447869D01*
X108922131Y-57235455D01*
X108672358Y-57068562D01*
X108394826Y-56953605D01*
X108100199Y-56895000D01*
X107799801Y-56895000D01*
X107505174Y-56953605D01*
X107227642Y-57068562D01*
X106977869Y-57235455D01*
X106765455Y-57447869D01*
X106598562Y-57697642D01*
X106483605Y-57975174D01*
X106425000Y-58269801D01*
X104267000Y-58269801D01*
X104267000Y-39370000D01*
X143036606Y-39370000D01*
X143070105Y-39710119D01*
X143169314Y-40037168D01*
X143330421Y-40338578D01*
X143547234Y-40602766D01*
X143811422Y-40819579D01*
X144112832Y-40980686D01*
X144439881Y-41079895D01*
X144694775Y-41105000D01*
X144865225Y-41105000D01*
X145120119Y-41079895D01*
X145447168Y-40980686D01*
X145748578Y-40819579D01*
X146012766Y-40602766D01*
X146121723Y-40470000D01*
X150661928Y-40470000D01*
X150674188Y-40594482D01*
X150710498Y-40714180D01*
X150769463Y-40824494D01*
X150848815Y-40921185D01*
X150945506Y-41000537D01*
X151055820Y-41059502D01*
X151175518Y-41095812D01*
X151300000Y-41108072D01*
X152114250Y-41105000D01*
X152273000Y-40946250D01*
X152273000Y-39497000D01*
X152527000Y-39497000D01*
X152527000Y-40946250D01*
X152685750Y-41105000D01*
X153500000Y-41108072D01*
X153624482Y-41095812D01*
X153744180Y-41059502D01*
X153854494Y-41000537D01*
X153885996Y-40974684D01*
X158176933Y-40974684D01*
X158223015Y-41333198D01*
X158338154Y-41675833D01*
X158457164Y-41898486D01*
X158742020Y-42018374D01*
X159840395Y-40920000D01*
X160199605Y-40920000D01*
X161297980Y-42018374D01*
X161582836Y-41898486D01*
X161743699Y-41574790D01*
X161838322Y-41225931D01*
X161863067Y-40865316D01*
X161816985Y-40506802D01*
X161701846Y-40164167D01*
X161582836Y-39941514D01*
X161297980Y-39821626D01*
X160199605Y-40920000D01*
X159840395Y-40920000D01*
X158742020Y-39821626D01*
X158457164Y-39941514D01*
X158296301Y-40265210D01*
X158201678Y-40614069D01*
X158176933Y-40974684D01*
X153885996Y-40974684D01*
X153951185Y-40921185D01*
X154030537Y-40824494D01*
X154089502Y-40714180D01*
X154125812Y-40594482D01*
X154138072Y-40470000D01*
X154135000Y-39655750D01*
X154121270Y-39642020D01*
X158921626Y-39642020D01*
X160020000Y-40740395D01*
X161118374Y-39642020D01*
X160998486Y-39357164D01*
X160674790Y-39196301D01*
X160325931Y-39101678D01*
X159965316Y-39076933D01*
X159606802Y-39123015D01*
X159264167Y-39238154D01*
X159041514Y-39357164D01*
X158921626Y-39642020D01*
X154121270Y-39642020D01*
X153976250Y-39497000D01*
X152527000Y-39497000D01*
X152273000Y-39497000D01*
X150823750Y-39497000D01*
X150665000Y-39655750D01*
X150661928Y-40470000D01*
X146121723Y-40470000D01*
X146229579Y-40338578D01*
X146390686Y-40037168D01*
X146489895Y-39710119D01*
X146523394Y-39370000D01*
X146489895Y-39029881D01*
X146390686Y-38702832D01*
X146229579Y-38401422D01*
X146121724Y-38270000D01*
X150661928Y-38270000D01*
X150665000Y-39084250D01*
X150823750Y-39243000D01*
X152273000Y-39243000D01*
X152273000Y-37793750D01*
X152527000Y-37793750D01*
X152527000Y-39243000D01*
X153976250Y-39243000D01*
X154135000Y-39084250D01*
X154138072Y-38270000D01*
X154125812Y-38145518D01*
X154089502Y-38025820D01*
X154030537Y-37915506D01*
X153951185Y-37818815D01*
X153854494Y-37739463D01*
X153744180Y-37680498D01*
X153624482Y-37644188D01*
X153500000Y-37631928D01*
X152685750Y-37635000D01*
X152527000Y-37793750D01*
X152273000Y-37793750D01*
X152114250Y-37635000D01*
X151300000Y-37631928D01*
X151175518Y-37644188D01*
X151055820Y-37680498D01*
X150945506Y-37739463D01*
X150848815Y-37818815D01*
X150769463Y-37915506D01*
X150710498Y-38025820D01*
X150674188Y-38145518D01*
X150661928Y-38270000D01*
X146121724Y-38270000D01*
X146012766Y-38137234D01*
X145748578Y-37920421D01*
X145447168Y-37759314D01*
X145120119Y-37660105D01*
X144865225Y-37635000D01*
X144694775Y-37635000D01*
X144439881Y-37660105D01*
X144112832Y-37759314D01*
X143811422Y-37920421D01*
X143547234Y-38137234D01*
X143330421Y-38401422D01*
X143169314Y-38702832D01*
X143070105Y-39029881D01*
X143036606Y-39370000D01*
X104267000Y-39370000D01*
X104267000Y-36957000D01*
X167513000Y-36957000D01*
X167513000Y-105283000D01*
X167513000Y-105283000D01*
G37*
X167513000Y-105283000D02*
X104267000Y-105283000D01*
X104267000Y-58269801D01*
X106425000Y-58269801D01*
X106425000Y-58570199D01*
X106483605Y-58864826D01*
X106598562Y-59142358D01*
X106765455Y-59392131D01*
X106934977Y-59561653D01*
X106905820Y-59570498D01*
X106795506Y-59629463D01*
X106698815Y-59708815D01*
X106619463Y-59805506D01*
X106560498Y-59915820D01*
X106524188Y-60035518D01*
X106511928Y-60160000D01*
X106511928Y-61760000D01*
X106524188Y-61884482D01*
X106560498Y-62004180D01*
X106619463Y-62114494D01*
X106698815Y-62211185D01*
X106795506Y-62290537D01*
X106905820Y-62349502D01*
X107025518Y-62385812D01*
X107043482Y-62387581D01*
X106930392Y-62480392D01*
X106751068Y-62698899D01*
X106617818Y-62948192D01*
X106535764Y-63218691D01*
X106508057Y-63500000D01*
X106535764Y-63781309D01*
X106617818Y-64051808D01*
X106751068Y-64301101D01*
X106930392Y-64519608D01*
X107148899Y-64698932D01*
X107281858Y-64770000D01*
X107148899Y-64841068D01*
X106930392Y-65020392D01*
X106751068Y-65238899D01*
X106617818Y-65488192D01*
X106535764Y-65758691D01*
X106508057Y-66040000D01*
X106535764Y-66321309D01*
X106617818Y-66591808D01*
X106751068Y-66841101D01*
X106930392Y-67059608D01*
X107148899Y-67238932D01*
X107281858Y-67310000D01*
X107148899Y-67381068D01*
X106930392Y-67560392D01*
X106751068Y-67778899D01*
X106617818Y-68028192D01*
X106535764Y-68298691D01*
X106508057Y-68580000D01*
X106535764Y-68861309D01*
X106617818Y-69131808D01*
X106751068Y-69381101D01*
X106930392Y-69599608D01*
X107148899Y-69778932D01*
X107281858Y-69850000D01*
X107148899Y-69921068D01*
X106930392Y-70100392D01*
X106751068Y-70318899D01*
X106617818Y-70568192D01*
X106535764Y-70838691D01*
X106508057Y-71120000D01*
X106535764Y-71401309D01*
X106617818Y-71671808D01*
X106751068Y-71921101D01*
X106930392Y-72139608D01*
X107148899Y-72318932D01*
X107281858Y-72390000D01*
X107148899Y-72461068D01*
X106930392Y-72640392D01*
X106751068Y-72858899D01*
X106617818Y-73108192D01*
X106535764Y-73378691D01*
X106508057Y-73660000D01*
X106535764Y-73941309D01*
X106617818Y-74211808D01*
X106751068Y-74461101D01*
X106930392Y-74679608D01*
X107148899Y-74858932D01*
X107281858Y-74930000D01*
X107148899Y-75001068D01*
X106930392Y-75180392D01*
X106751068Y-75398899D01*
X106617818Y-75648192D01*
X106535764Y-75918691D01*
X106508057Y-76200000D01*
X106535764Y-76481309D01*
X106617818Y-76751808D01*
X106751068Y-77001101D01*
X106930392Y-77219608D01*
X107148899Y-77398932D01*
X107281858Y-77470000D01*
X107148899Y-77541068D01*
X106930392Y-77720392D01*
X106751068Y-77938899D01*
X106617818Y-78188192D01*
X106535764Y-78458691D01*
X106508057Y-78740000D01*
X106535764Y-79021309D01*
X106617818Y-79291808D01*
X106751068Y-79541101D01*
X106930392Y-79759608D01*
X107148899Y-79938932D01*
X107281858Y-80010000D01*
X107148899Y-80081068D01*
X106930392Y-80260392D01*
X106751068Y-80478899D01*
X106617818Y-80728192D01*
X106535764Y-80998691D01*
X106508057Y-81280000D01*
X106535764Y-81561309D01*
X106617818Y-81831808D01*
X106751068Y-82081101D01*
X106930392Y-82299608D01*
X107148899Y-82478932D01*
X107281858Y-82550000D01*
X107148899Y-82621068D01*
X106930392Y-82800392D01*
X106751068Y-83018899D01*
X106617818Y-83268192D01*
X106535764Y-83538691D01*
X106508057Y-83820000D01*
X106535764Y-84101309D01*
X106617818Y-84371808D01*
X106751068Y-84621101D01*
X106930392Y-84839608D01*
X107148899Y-85018932D01*
X107281858Y-85090000D01*
X107148899Y-85161068D01*
X106930392Y-85340392D01*
X106751068Y-85558899D01*
X106617818Y-85808192D01*
X106535764Y-86078691D01*
X106508057Y-86360000D01*
X106535764Y-86641309D01*
X106617818Y-86911808D01*
X106751068Y-87161101D01*
X106930392Y-87379608D01*
X107148899Y-87558932D01*
X107281858Y-87630000D01*
X107148899Y-87701068D01*
X106930392Y-87880392D01*
X106751068Y-88098899D01*
X106617818Y-88348192D01*
X106535764Y-88618691D01*
X106508057Y-88900000D01*
X106535764Y-89181309D01*
X106617818Y-89451808D01*
X106751068Y-89701101D01*
X106930392Y-89919608D01*
X107148899Y-90098932D01*
X107281858Y-90170000D01*
X107148899Y-90241068D01*
X106930392Y-90420392D01*
X106751068Y-90638899D01*
X106617818Y-90888192D01*
X106535764Y-91158691D01*
X106508057Y-91440000D01*
X106535764Y-91721309D01*
X106617818Y-91991808D01*
X106751068Y-92241101D01*
X106930392Y-92459608D01*
X107148899Y-92638932D01*
X107281858Y-92710000D01*
X107148899Y-92781068D01*
X106930392Y-92960392D01*
X106751068Y-93178899D01*
X106617818Y-93428192D01*
X106535764Y-93698691D01*
X106508057Y-93980000D01*
X106535764Y-94261309D01*
X106617818Y-94531808D01*
X106751068Y-94781101D01*
X106930392Y-94999608D01*
X107148899Y-95178932D01*
X107281858Y-95250000D01*
X107148899Y-95321068D01*
X106930392Y-95500392D01*
X106751068Y-95718899D01*
X106617818Y-95968192D01*
X106535764Y-96238691D01*
X106508057Y-96520000D01*
X106535764Y-96801309D01*
X106617818Y-97071808D01*
X106751068Y-97321101D01*
X106930392Y-97539608D01*
X107148899Y-97718932D01*
X107184024Y-97737707D01*
X106977869Y-97875455D01*
X106765455Y-98087869D01*
X106598562Y-98337642D01*
X106483605Y-98615174D01*
X106425000Y-98909801D01*
X106425000Y-99210199D01*
X106483605Y-99504826D01*
X106598562Y-99782358D01*
X106765455Y-100032131D01*
X106977869Y-100244545D01*
X107227642Y-100411438D01*
X107505174Y-100526395D01*
X107799801Y-100585000D01*
X108100199Y-100585000D01*
X108394826Y-100526395D01*
X108672358Y-100411438D01*
X108922131Y-100244545D01*
X109134545Y-100032131D01*
X109301438Y-99782358D01*
X109416395Y-99504826D01*
X109475000Y-99210199D01*
X109475000Y-98909801D01*
X109416395Y-98615174D01*
X109301438Y-98337642D01*
X109134545Y-98087869D01*
X108922131Y-97875455D01*
X108715976Y-97737707D01*
X108751101Y-97718932D01*
X108969608Y-97539608D01*
X109148932Y-97321101D01*
X109282182Y-97071808D01*
X109364236Y-96801309D01*
X109391943Y-96520000D01*
X109364236Y-96238691D01*
X109282182Y-95968192D01*
X109148932Y-95718899D01*
X108969608Y-95500392D01*
X108751101Y-95321068D01*
X108618142Y-95250000D01*
X108751101Y-95178932D01*
X108969608Y-94999608D01*
X109148932Y-94781101D01*
X109282182Y-94531808D01*
X109364236Y-94261309D01*
X109391943Y-93980000D01*
X109364236Y-93698691D01*
X109282182Y-93428192D01*
X109148932Y-93178899D01*
X108969608Y-92960392D01*
X108751101Y-92781068D01*
X108618142Y-92710000D01*
X108751101Y-92638932D01*
X108969608Y-92459608D01*
X109148932Y-92241101D01*
X109282182Y-91991808D01*
X109364236Y-91721309D01*
X109391943Y-91440000D01*
X109364236Y-91158691D01*
X109282182Y-90888192D01*
X109148932Y-90638899D01*
X108969608Y-90420392D01*
X108751101Y-90241068D01*
X108618142Y-90170000D01*
X108751101Y-90098932D01*
X108969608Y-89919608D01*
X109148932Y-89701101D01*
X109282182Y-89451808D01*
X109364236Y-89181309D01*
X109391943Y-88900000D01*
X109364236Y-88618691D01*
X109282182Y-88348192D01*
X109148932Y-88098899D01*
X108969608Y-87880392D01*
X108751101Y-87701068D01*
X108618142Y-87630000D01*
X108751101Y-87558932D01*
X108969608Y-87379608D01*
X109148932Y-87161101D01*
X109282182Y-86911808D01*
X109364236Y-86641309D01*
X109391943Y-86360000D01*
X109364236Y-86078691D01*
X109282182Y-85808192D01*
X109148932Y-85558899D01*
X108969608Y-85340392D01*
X108751101Y-85161068D01*
X108618142Y-85090000D01*
X108751101Y-85018932D01*
X108969608Y-84839608D01*
X109148932Y-84621101D01*
X109282182Y-84371808D01*
X109364236Y-84101309D01*
X109391943Y-83820000D01*
X109364236Y-83538691D01*
X109282182Y-83268192D01*
X109148932Y-83018899D01*
X108969608Y-82800392D01*
X108751101Y-82621068D01*
X108618142Y-82550000D01*
X108751101Y-82478932D01*
X108969608Y-82299608D01*
X109148932Y-82081101D01*
X109282182Y-81831808D01*
X109364236Y-81561309D01*
X109391943Y-81280000D01*
X109364236Y-80998691D01*
X109282182Y-80728192D01*
X109148932Y-80478899D01*
X108969608Y-80260392D01*
X108751101Y-80081068D01*
X108618142Y-80010000D01*
X108751101Y-79938932D01*
X108969608Y-79759608D01*
X109148932Y-79541101D01*
X109282182Y-79291808D01*
X109364236Y-79021309D01*
X109391943Y-78740000D01*
X109364236Y-78458691D01*
X109282182Y-78188192D01*
X109148932Y-77938899D01*
X108969608Y-77720392D01*
X108751101Y-77541068D01*
X108618142Y-77470000D01*
X108751101Y-77398932D01*
X108969608Y-77219608D01*
X109148932Y-77001101D01*
X109282182Y-76751808D01*
X109364236Y-76481309D01*
X109391943Y-76200000D01*
X109364236Y-75918691D01*
X109282182Y-75648192D01*
X109148932Y-75398899D01*
X108969608Y-75180392D01*
X108751101Y-75001068D01*
X108618142Y-74930000D01*
X108751101Y-74858932D01*
X108969608Y-74679608D01*
X109148932Y-74461101D01*
X109282182Y-74211808D01*
X109364236Y-73941309D01*
X109391943Y-73660000D01*
X109364236Y-73378691D01*
X109282182Y-73108192D01*
X109148932Y-72858899D01*
X108969608Y-72640392D01*
X108751101Y-72461068D01*
X108618142Y-72390000D01*
X108751101Y-72318932D01*
X108969608Y-72139608D01*
X109148932Y-71921101D01*
X109282182Y-71671808D01*
X109364236Y-71401309D01*
X109391943Y-71120000D01*
X109364236Y-70838691D01*
X109282182Y-70568192D01*
X109148932Y-70318899D01*
X108969608Y-70100392D01*
X108751101Y-69921068D01*
X108618142Y-69850000D01*
X108751101Y-69778932D01*
X108969608Y-69599608D01*
X109148932Y-69381101D01*
X109170901Y-69340000D01*
X115532678Y-69340000D01*
X115570000Y-69343676D01*
X115607322Y-69340000D01*
X115607333Y-69340000D01*
X115718986Y-69329003D01*
X115862247Y-69285546D01*
X115994276Y-69214974D01*
X116110001Y-69120001D01*
X116133804Y-69090997D01*
X119891004Y-65333798D01*
X119920001Y-65310001D01*
X120014974Y-65194276D01*
X120085546Y-65062247D01*
X120129003Y-64918986D01*
X120140000Y-64807333D01*
X120140000Y-64807325D01*
X120143676Y-64770000D01*
X120140000Y-64732675D01*
X120140000Y-54828072D01*
X120230000Y-54828072D01*
X120354482Y-54815812D01*
X120474180Y-54779502D01*
X120584494Y-54720537D01*
X120670870Y-54649650D01*
X120670871Y-76943537D01*
X120667194Y-76980870D01*
X120681868Y-77129855D01*
X120725324Y-77273116D01*
X120795896Y-77405146D01*
X120867071Y-77491872D01*
X120890870Y-77520871D01*
X120919868Y-77544669D01*
X121789292Y-78414094D01*
X121775764Y-78458691D01*
X121748057Y-78740000D01*
X121775764Y-79021309D01*
X121857818Y-79291808D01*
X121991068Y-79541101D01*
X122170392Y-79759608D01*
X122388899Y-79938932D01*
X122521858Y-80010000D01*
X122388899Y-80081068D01*
X122170392Y-80260392D01*
X121991068Y-80478899D01*
X121857818Y-80728192D01*
X121775764Y-80998691D01*
X121748057Y-81280000D01*
X121775764Y-81561309D01*
X121857818Y-81831808D01*
X121991068Y-82081101D01*
X122170392Y-82299608D01*
X122388899Y-82478932D01*
X122521858Y-82550000D01*
X122388899Y-82621068D01*
X122170392Y-82800392D01*
X121991068Y-83018899D01*
X121857818Y-83268192D01*
X121775764Y-83538691D01*
X121748057Y-83820000D01*
X121775764Y-84101309D01*
X121857818Y-84371808D01*
X121991068Y-84621101D01*
X122170392Y-84839608D01*
X122388899Y-85018932D01*
X122521858Y-85090000D01*
X122388899Y-85161068D01*
X122170392Y-85340392D01*
X121991068Y-85558899D01*
X121857818Y-85808192D01*
X121775764Y-86078691D01*
X121748057Y-86360000D01*
X121775764Y-86641309D01*
X121857818Y-86911808D01*
X121991068Y-87161101D01*
X122170392Y-87379608D01*
X122388899Y-87558932D01*
X122521858Y-87630000D01*
X122388899Y-87701068D01*
X122170392Y-87880392D01*
X121991068Y-88098899D01*
X121857818Y-88348192D01*
X121775764Y-88618691D01*
X121748057Y-88900000D01*
X121775764Y-89181309D01*
X121857818Y-89451808D01*
X121991068Y-89701101D01*
X122170392Y-89919608D01*
X122388899Y-90098932D01*
X122521858Y-90170000D01*
X122388899Y-90241068D01*
X122170392Y-90420392D01*
X121991068Y-90638899D01*
X121857818Y-90888192D01*
X121775764Y-91158691D01*
X121748057Y-91440000D01*
X121775764Y-91721309D01*
X121857818Y-91991808D01*
X121991068Y-92241101D01*
X122170392Y-92459608D01*
X122388899Y-92638932D01*
X122521858Y-92710000D01*
X122388899Y-92781068D01*
X122170392Y-92960392D01*
X121991068Y-93178899D01*
X121857818Y-93428192D01*
X121775764Y-93698691D01*
X121748057Y-93980000D01*
X121775764Y-94261309D01*
X121857818Y-94531808D01*
X121991068Y-94781101D01*
X122170392Y-94999608D01*
X122388899Y-95178932D01*
X122521858Y-95250000D01*
X122388899Y-95321068D01*
X122170392Y-95500392D01*
X121991068Y-95718899D01*
X121857818Y-95968192D01*
X121775764Y-96238691D01*
X121748057Y-96520000D01*
X121775764Y-96801309D01*
X121857818Y-97071808D01*
X121991068Y-97321101D01*
X122170392Y-97539608D01*
X122388899Y-97718932D01*
X122424024Y-97737707D01*
X122217869Y-97875455D01*
X122005455Y-98087869D01*
X121838562Y-98337642D01*
X121723605Y-98615174D01*
X121665000Y-98909801D01*
X121665000Y-99210199D01*
X121723605Y-99504826D01*
X121838562Y-99782358D01*
X122005455Y-100032131D01*
X122217869Y-100244545D01*
X122467642Y-100411438D01*
X122745174Y-100526395D01*
X123039801Y-100585000D01*
X123340199Y-100585000D01*
X123634826Y-100526395D01*
X123912358Y-100411438D01*
X124162131Y-100244545D01*
X124374545Y-100032131D01*
X124541438Y-99782358D01*
X124656395Y-99504826D01*
X124673323Y-99419721D01*
X146455000Y-99419721D01*
X146455000Y-99840279D01*
X146537047Y-100252756D01*
X146697988Y-100641302D01*
X146931637Y-100990983D01*
X147229017Y-101288363D01*
X147578698Y-101522012D01*
X147967244Y-101682953D01*
X148379721Y-101765000D01*
X148800279Y-101765000D01*
X149212756Y-101682953D01*
X149601302Y-101522012D01*
X149950983Y-101288363D01*
X150117693Y-101121653D01*
X159577952Y-101121653D01*
X159733962Y-101437214D01*
X160108745Y-101628020D01*
X160513551Y-101742044D01*
X160932824Y-101774902D01*
X161350451Y-101725334D01*
X161750383Y-101595243D01*
X162046038Y-101437214D01*
X162202048Y-101121653D01*
X160890000Y-99809605D01*
X159577952Y-101121653D01*
X150117693Y-101121653D01*
X150248363Y-100990983D01*
X150482012Y-100641302D01*
X150642953Y-100252756D01*
X150725000Y-99840279D01*
X150725000Y-99672824D01*
X158745098Y-99672824D01*
X158794666Y-100090451D01*
X158924757Y-100490383D01*
X159082786Y-100786038D01*
X159398347Y-100942048D01*
X160710395Y-99630000D01*
X161069605Y-99630000D01*
X162381653Y-100942048D01*
X162697214Y-100786038D01*
X162888020Y-100411255D01*
X163002044Y-100006449D01*
X163034902Y-99587176D01*
X162985334Y-99169549D01*
X162855243Y-98769617D01*
X162697214Y-98473962D01*
X162381653Y-98317952D01*
X161069605Y-99630000D01*
X160710395Y-99630000D01*
X159398347Y-98317952D01*
X159082786Y-98473962D01*
X158891980Y-98848745D01*
X158777956Y-99253551D01*
X158745098Y-99672824D01*
X150725000Y-99672824D01*
X150725000Y-99419721D01*
X150642953Y-99007244D01*
X150482012Y-98618698D01*
X150248363Y-98269017D01*
X150117693Y-98138347D01*
X159577952Y-98138347D01*
X160890000Y-99450395D01*
X162202048Y-98138347D01*
X162046038Y-97822786D01*
X161671255Y-97631980D01*
X161266449Y-97517956D01*
X160847176Y-97485098D01*
X160429549Y-97534666D01*
X160029617Y-97664757D01*
X159733962Y-97822786D01*
X159577952Y-98138347D01*
X150117693Y-98138347D01*
X149950983Y-97971637D01*
X149601302Y-97737988D01*
X149212756Y-97577047D01*
X148800279Y-97495000D01*
X148379721Y-97495000D01*
X147967244Y-97577047D01*
X147578698Y-97737988D01*
X147229017Y-97971637D01*
X146931637Y-98269017D01*
X146697988Y-98618698D01*
X146537047Y-99007244D01*
X146455000Y-99419721D01*
X124673323Y-99419721D01*
X124715000Y-99210199D01*
X124715000Y-98909801D01*
X124656395Y-98615174D01*
X124541438Y-98337642D01*
X124374545Y-98087869D01*
X124162131Y-97875455D01*
X123955976Y-97737707D01*
X123991101Y-97718932D01*
X124209608Y-97539608D01*
X124388932Y-97321101D01*
X124522182Y-97071808D01*
X124604236Y-96801309D01*
X124631943Y-96520000D01*
X124604236Y-96238691D01*
X124522182Y-95968192D01*
X124388932Y-95718899D01*
X124209608Y-95500392D01*
X123991101Y-95321068D01*
X123858142Y-95250000D01*
X123991101Y-95178932D01*
X124209608Y-94999608D01*
X124388932Y-94781101D01*
X124522182Y-94531808D01*
X124604236Y-94261309D01*
X124631943Y-93980000D01*
X124604236Y-93698691D01*
X124522182Y-93428192D01*
X124388932Y-93178899D01*
X124209608Y-92960392D01*
X123991101Y-92781068D01*
X123858142Y-92710000D01*
X123991101Y-92638932D01*
X124209608Y-92459608D01*
X124388932Y-92241101D01*
X124522182Y-91991808D01*
X124604236Y-91721309D01*
X124631943Y-91440000D01*
X124604236Y-91158691D01*
X124563682Y-91025000D01*
X127531928Y-91025000D01*
X127531928Y-92775000D01*
X127561001Y-93070186D01*
X127647104Y-93354028D01*
X127786927Y-93615618D01*
X127975097Y-93844903D01*
X128204382Y-94033073D01*
X128465972Y-94172896D01*
X128749814Y-94258999D01*
X129045000Y-94288072D01*
X130795000Y-94288072D01*
X131090186Y-94258999D01*
X131374028Y-94172896D01*
X131416863Y-94150000D01*
X132231928Y-94150000D01*
X132231928Y-95650000D01*
X132258599Y-95920799D01*
X132337589Y-96181192D01*
X132465860Y-96421171D01*
X132638485Y-96631515D01*
X132848829Y-96804140D01*
X133088808Y-96932411D01*
X133349201Y-97011401D01*
X133620000Y-97038072D01*
X135620000Y-97038072D01*
X135890799Y-97011401D01*
X136151192Y-96932411D01*
X136391171Y-96804140D01*
X136601515Y-96631515D01*
X136774140Y-96421171D01*
X136902411Y-96181192D01*
X136981401Y-95920799D01*
X137008072Y-95650000D01*
X137008072Y-94150000D01*
X136981401Y-93879201D01*
X136902411Y-93618808D01*
X136795998Y-93419721D01*
X160755000Y-93419721D01*
X160755000Y-93840279D01*
X160837047Y-94252756D01*
X160997988Y-94641302D01*
X161231637Y-94990983D01*
X161529017Y-95288363D01*
X161878698Y-95522012D01*
X162267244Y-95682953D01*
X162679721Y-95765000D01*
X163100279Y-95765000D01*
X163512756Y-95682953D01*
X163901302Y-95522012D01*
X164250983Y-95288363D01*
X164548363Y-94990983D01*
X164782012Y-94641302D01*
X164942953Y-94252756D01*
X165025000Y-93840279D01*
X165025000Y-93419721D01*
X164942953Y-93007244D01*
X164782012Y-92618698D01*
X164548363Y-92269017D01*
X164250983Y-91971637D01*
X163901302Y-91737988D01*
X163512756Y-91577047D01*
X163100279Y-91495000D01*
X162679721Y-91495000D01*
X162267244Y-91577047D01*
X161878698Y-91737988D01*
X161529017Y-91971637D01*
X161231637Y-92269017D01*
X160997988Y-92618698D01*
X160837047Y-93007244D01*
X160755000Y-93419721D01*
X136795998Y-93419721D01*
X136774140Y-93378829D01*
X136601515Y-93168485D01*
X136391171Y-92995860D01*
X136151192Y-92867589D01*
X135890799Y-92788599D01*
X135620000Y-92761928D01*
X133620000Y-92761928D01*
X133349201Y-92788599D01*
X133088808Y-92867589D01*
X132848829Y-92995860D01*
X132638485Y-93168485D01*
X132465860Y-93378829D01*
X132337589Y-93618808D01*
X132258599Y-93879201D01*
X132231928Y-94150000D01*
X131416863Y-94150000D01*
X131635618Y-94033073D01*
X131864903Y-93844903D01*
X132053073Y-93615618D01*
X132192896Y-93354028D01*
X132278999Y-93070186D01*
X132308072Y-92775000D01*
X132308072Y-91025000D01*
X132298506Y-90927869D01*
X132339463Y-91004494D01*
X132418815Y-91101185D01*
X132515506Y-91180537D01*
X132625820Y-91239502D01*
X132745518Y-91275812D01*
X132870000Y-91288072D01*
X134334250Y-91285000D01*
X134493000Y-91126250D01*
X134493000Y-89027000D01*
X134747000Y-89027000D01*
X134747000Y-91126250D01*
X134905750Y-91285000D01*
X136370000Y-91288072D01*
X136494482Y-91275812D01*
X136614180Y-91239502D01*
X136724494Y-91180537D01*
X136821185Y-91101185D01*
X136900537Y-91004494D01*
X136959502Y-90894180D01*
X136995812Y-90774482D01*
X137008072Y-90650000D01*
X137005000Y-89185750D01*
X136846250Y-89027000D01*
X134747000Y-89027000D01*
X134493000Y-89027000D01*
X132393750Y-89027000D01*
X132235000Y-89185750D01*
X132232085Y-90575160D01*
X132192896Y-90445972D01*
X132053073Y-90184382D01*
X131864903Y-89955097D01*
X131635618Y-89766927D01*
X131374028Y-89627104D01*
X131090186Y-89541001D01*
X130795000Y-89511928D01*
X129045000Y-89511928D01*
X128749814Y-89541001D01*
X128465972Y-89627104D01*
X128204382Y-89766927D01*
X127975097Y-89955097D01*
X127786927Y-90184382D01*
X127647104Y-90445972D01*
X127561001Y-90729814D01*
X127531928Y-91025000D01*
X124563682Y-91025000D01*
X124522182Y-90888192D01*
X124388932Y-90638899D01*
X124209608Y-90420392D01*
X123991101Y-90241068D01*
X123858142Y-90170000D01*
X123991101Y-90098932D01*
X124209608Y-89919608D01*
X124388932Y-89701101D01*
X124522182Y-89451808D01*
X124604236Y-89181309D01*
X124631943Y-88900000D01*
X124604236Y-88618691D01*
X124522182Y-88348192D01*
X124388932Y-88098899D01*
X124209608Y-87880392D01*
X123991101Y-87701068D01*
X123858142Y-87630000D01*
X123991101Y-87558932D01*
X124209608Y-87379608D01*
X124388932Y-87161101D01*
X124394865Y-87150000D01*
X132231928Y-87150000D01*
X132235000Y-88614250D01*
X132393750Y-88773000D01*
X134493000Y-88773000D01*
X134493000Y-86673750D01*
X134747000Y-86673750D01*
X134747000Y-88773000D01*
X136846250Y-88773000D01*
X137005000Y-88614250D01*
X137007506Y-87419721D01*
X146455000Y-87419721D01*
X146455000Y-87840279D01*
X146537047Y-88252756D01*
X146697988Y-88641302D01*
X146931637Y-88990983D01*
X147229017Y-89288363D01*
X147578698Y-89522012D01*
X147967244Y-89682953D01*
X148379721Y-89765000D01*
X148800279Y-89765000D01*
X149212756Y-89682953D01*
X149601302Y-89522012D01*
X149950983Y-89288363D01*
X150248363Y-88990983D01*
X150482012Y-88641302D01*
X150642953Y-88252756D01*
X150725000Y-87840279D01*
X150725000Y-87419721D01*
X158755000Y-87419721D01*
X158755000Y-87840279D01*
X158837047Y-88252756D01*
X158997988Y-88641302D01*
X159231637Y-88990983D01*
X159529017Y-89288363D01*
X159878698Y-89522012D01*
X160267244Y-89682953D01*
X160679721Y-89765000D01*
X161100279Y-89765000D01*
X161512756Y-89682953D01*
X161901302Y-89522012D01*
X162250983Y-89288363D01*
X162548363Y-88990983D01*
X162782012Y-88641302D01*
X162942953Y-88252756D01*
X163025000Y-87840279D01*
X163025000Y-87419721D01*
X162942953Y-87007244D01*
X162782012Y-86618698D01*
X162548363Y-86269017D01*
X162250983Y-85971637D01*
X161901302Y-85737988D01*
X161512756Y-85577047D01*
X161100279Y-85495000D01*
X160679721Y-85495000D01*
X160267244Y-85577047D01*
X159878698Y-85737988D01*
X159529017Y-85971637D01*
X159231637Y-86269017D01*
X158997988Y-86618698D01*
X158837047Y-87007244D01*
X158755000Y-87419721D01*
X150725000Y-87419721D01*
X150642953Y-87007244D01*
X150482012Y-86618698D01*
X150248363Y-86269017D01*
X149950983Y-85971637D01*
X149601302Y-85737988D01*
X149212756Y-85577047D01*
X148800279Y-85495000D01*
X148379721Y-85495000D01*
X147967244Y-85577047D01*
X147578698Y-85737988D01*
X147229017Y-85971637D01*
X146931637Y-86269017D01*
X146697988Y-86618698D01*
X146537047Y-87007244D01*
X146455000Y-87419721D01*
X137007506Y-87419721D01*
X137008072Y-87150000D01*
X136995812Y-87025518D01*
X136959502Y-86905820D01*
X136900537Y-86795506D01*
X136821185Y-86698815D01*
X136724494Y-86619463D01*
X136614180Y-86560498D01*
X136494482Y-86524188D01*
X136370000Y-86511928D01*
X134905750Y-86515000D01*
X134747000Y-86673750D01*
X134493000Y-86673750D01*
X134334250Y-86515000D01*
X132870000Y-86511928D01*
X132745518Y-86524188D01*
X132625820Y-86560498D01*
X132515506Y-86619463D01*
X132418815Y-86698815D01*
X132339463Y-86795506D01*
X132280498Y-86905820D01*
X132244188Y-87025518D01*
X132231928Y-87150000D01*
X124394865Y-87150000D01*
X124522182Y-86911808D01*
X124604236Y-86641309D01*
X124631943Y-86360000D01*
X124604236Y-86078691D01*
X124522182Y-85808192D01*
X124388932Y-85558899D01*
X124209608Y-85340392D01*
X123991101Y-85161068D01*
X123858142Y-85090000D01*
X123991101Y-85018932D01*
X124209608Y-84839608D01*
X124388932Y-84621101D01*
X124522182Y-84371808D01*
X124604236Y-84101309D01*
X124631943Y-83820000D01*
X124604236Y-83538691D01*
X124522182Y-83268192D01*
X124388932Y-83018899D01*
X124209608Y-82800392D01*
X123991101Y-82621068D01*
X123858142Y-82550000D01*
X123991101Y-82478932D01*
X124209608Y-82299608D01*
X124388932Y-82081101D01*
X124522182Y-81831808D01*
X124604236Y-81561309D01*
X124631943Y-81280000D01*
X124604236Y-80998691D01*
X124522182Y-80728192D01*
X124388932Y-80478899D01*
X124209608Y-80260392D01*
X123991101Y-80081068D01*
X123858142Y-80010000D01*
X123991101Y-79938932D01*
X124209608Y-79759608D01*
X124388932Y-79541101D01*
X124522182Y-79291808D01*
X124604236Y-79021309D01*
X124631943Y-78740000D01*
X124604236Y-78458691D01*
X124522182Y-78188192D01*
X124388932Y-77938899D01*
X124209608Y-77720392D01*
X123991101Y-77541068D01*
X123858142Y-77470000D01*
X123991101Y-77398932D01*
X124209608Y-77219608D01*
X124388932Y-77001101D01*
X124522182Y-76751808D01*
X124604236Y-76481309D01*
X124631943Y-76200000D01*
X124604236Y-75918691D01*
X124522182Y-75648192D01*
X124388932Y-75398899D01*
X124209608Y-75180392D01*
X123991101Y-75001068D01*
X123858142Y-74930000D01*
X123991101Y-74858932D01*
X124209608Y-74679608D01*
X124388932Y-74461101D01*
X124522182Y-74211808D01*
X124604236Y-73941309D01*
X124631943Y-73660000D01*
X124604236Y-73378691D01*
X124522182Y-73108192D01*
X124388932Y-72858899D01*
X124209608Y-72640392D01*
X123991101Y-72461068D01*
X123858142Y-72390000D01*
X123991101Y-72318932D01*
X124209608Y-72139608D01*
X124388932Y-71921101D01*
X124522182Y-71671808D01*
X124604236Y-71401309D01*
X124631943Y-71120000D01*
X124604236Y-70838691D01*
X124522182Y-70568192D01*
X124388932Y-70318899D01*
X124209608Y-70100392D01*
X123991101Y-69921068D01*
X123858142Y-69850000D01*
X123991101Y-69778932D01*
X124209608Y-69599608D01*
X124388932Y-69381101D01*
X124410901Y-69340000D01*
X125415199Y-69340000D01*
X131983628Y-75908430D01*
X131953000Y-76062408D01*
X131953000Y-76337592D01*
X132006686Y-76607490D01*
X132111995Y-76861727D01*
X132264880Y-77090535D01*
X132459465Y-77285120D01*
X132688273Y-77438005D01*
X132765515Y-77470000D01*
X132688273Y-77501995D01*
X132459465Y-77654880D01*
X132264880Y-77849465D01*
X132111995Y-78078273D01*
X132006686Y-78332510D01*
X131953000Y-78602408D01*
X131953000Y-78877592D01*
X132006686Y-79147490D01*
X132111995Y-79401727D01*
X132264880Y-79630535D01*
X132459465Y-79825120D01*
X132688273Y-79978005D01*
X132765515Y-80010000D01*
X132688273Y-80041995D01*
X132459465Y-80194880D01*
X132264880Y-80389465D01*
X132111995Y-80618273D01*
X132006686Y-80872510D01*
X131953000Y-81142408D01*
X131953000Y-81417592D01*
X132006686Y-81687490D01*
X132111995Y-81941727D01*
X132264880Y-82170535D01*
X132459465Y-82365120D01*
X132688273Y-82518005D01*
X132942510Y-82623314D01*
X133212408Y-82677000D01*
X133487592Y-82677000D01*
X133757490Y-82623314D01*
X134011727Y-82518005D01*
X134240535Y-82365120D01*
X134435120Y-82170535D01*
X134588005Y-81941727D01*
X134693314Y-81687490D01*
X134747000Y-81417592D01*
X134747000Y-81142408D01*
X134693314Y-80872510D01*
X134588005Y-80618273D01*
X134435120Y-80389465D01*
X134240535Y-80194880D01*
X134011727Y-80041995D01*
X133934485Y-80010000D01*
X134011727Y-79978005D01*
X134240535Y-79825120D01*
X134435120Y-79630535D01*
X134588005Y-79401727D01*
X134693314Y-79147490D01*
X134747000Y-78877592D01*
X134747000Y-78602408D01*
X134693314Y-78332510D01*
X134588005Y-78078273D01*
X134435120Y-77849465D01*
X134240535Y-77654880D01*
X134011727Y-77501995D01*
X133934485Y-77470000D01*
X134011727Y-77438005D01*
X134240535Y-77285120D01*
X134435120Y-77090535D01*
X134588005Y-76861727D01*
X134693314Y-76607490D01*
X134747000Y-76337592D01*
X134747000Y-76062408D01*
X134693314Y-75792510D01*
X134588005Y-75538273D01*
X134435120Y-75309465D01*
X134240535Y-75114880D01*
X134011727Y-74961995D01*
X133934485Y-74930000D01*
X134011727Y-74898005D01*
X134240535Y-74745120D01*
X134435120Y-74550535D01*
X134588005Y-74321727D01*
X134693314Y-74067490D01*
X134747000Y-73797592D01*
X134747000Y-73522408D01*
X145923000Y-73522408D01*
X145923000Y-73797592D01*
X145976686Y-74067490D01*
X146081995Y-74321727D01*
X146234880Y-74550535D01*
X146429465Y-74745120D01*
X146658273Y-74898005D01*
X146735515Y-74930000D01*
X146658273Y-74961995D01*
X146429465Y-75114880D01*
X146234880Y-75309465D01*
X146081995Y-75538273D01*
X145976686Y-75792510D01*
X145923000Y-76062408D01*
X145923000Y-76337592D01*
X145976686Y-76607490D01*
X146081995Y-76861727D01*
X146234880Y-77090535D01*
X146429465Y-77285120D01*
X146658273Y-77438005D01*
X146735515Y-77470000D01*
X146658273Y-77501995D01*
X146429465Y-77654880D01*
X146234880Y-77849465D01*
X146081995Y-78078273D01*
X145976686Y-78332510D01*
X145923000Y-78602408D01*
X145923000Y-78877592D01*
X145976686Y-79147490D01*
X146081995Y-79401727D01*
X146234880Y-79630535D01*
X146429465Y-79825120D01*
X146658273Y-79978005D01*
X146735515Y-80010000D01*
X146658273Y-80041995D01*
X146429465Y-80194880D01*
X146234880Y-80389465D01*
X146081995Y-80618273D01*
X145976686Y-80872510D01*
X145923000Y-81142408D01*
X145923000Y-81417592D01*
X145976686Y-81687490D01*
X146081995Y-81941727D01*
X146234880Y-82170535D01*
X146429465Y-82365120D01*
X146658273Y-82518005D01*
X146912510Y-82623314D01*
X147182408Y-82677000D01*
X147457592Y-82677000D01*
X147727490Y-82623314D01*
X147981727Y-82518005D01*
X148210535Y-82365120D01*
X148405120Y-82170535D01*
X148558005Y-81941727D01*
X148663314Y-81687490D01*
X148717000Y-81417592D01*
X148717000Y-81280000D01*
X154466606Y-81280000D01*
X154500105Y-81620119D01*
X154599314Y-81947168D01*
X154760421Y-82248578D01*
X154977234Y-82512766D01*
X155241422Y-82729579D01*
X155542832Y-82890686D01*
X155869881Y-82989895D01*
X156124775Y-83015000D01*
X156295225Y-83015000D01*
X156550119Y-82989895D01*
X156877168Y-82890686D01*
X157178578Y-82729579D01*
X157442766Y-82512766D01*
X157551723Y-82380000D01*
X162091928Y-82380000D01*
X162104188Y-82504482D01*
X162140498Y-82624180D01*
X162199463Y-82734494D01*
X162278815Y-82831185D01*
X162375506Y-82910537D01*
X162485820Y-82969502D01*
X162605518Y-83005812D01*
X162730000Y-83018072D01*
X163544250Y-83015000D01*
X163703000Y-82856250D01*
X163703000Y-81407000D01*
X163957000Y-81407000D01*
X163957000Y-82856250D01*
X164115750Y-83015000D01*
X164930000Y-83018072D01*
X165054482Y-83005812D01*
X165174180Y-82969502D01*
X165284494Y-82910537D01*
X165381185Y-82831185D01*
X165460537Y-82734494D01*
X165519502Y-82624180D01*
X165555812Y-82504482D01*
X165568072Y-82380000D01*
X165565000Y-81565750D01*
X165406250Y-81407000D01*
X163957000Y-81407000D01*
X163703000Y-81407000D01*
X162253750Y-81407000D01*
X162095000Y-81565750D01*
X162091928Y-82380000D01*
X157551723Y-82380000D01*
X157659579Y-82248578D01*
X157820686Y-81947168D01*
X157919895Y-81620119D01*
X157953394Y-81280000D01*
X157919895Y-80939881D01*
X157820686Y-80612832D01*
X157659579Y-80311422D01*
X157551724Y-80180000D01*
X162091928Y-80180000D01*
X162095000Y-80994250D01*
X162253750Y-81153000D01*
X163703000Y-81153000D01*
X163703000Y-79703750D01*
X163957000Y-79703750D01*
X163957000Y-81153000D01*
X165406250Y-81153000D01*
X165565000Y-80994250D01*
X165568072Y-80180000D01*
X165555812Y-80055518D01*
X165519502Y-79935820D01*
X165460537Y-79825506D01*
X165381185Y-79728815D01*
X165284494Y-79649463D01*
X165174180Y-79590498D01*
X165054482Y-79554188D01*
X164930000Y-79541928D01*
X164115750Y-79545000D01*
X163957000Y-79703750D01*
X163703000Y-79703750D01*
X163544250Y-79545000D01*
X162730000Y-79541928D01*
X162605518Y-79554188D01*
X162485820Y-79590498D01*
X162375506Y-79649463D01*
X162278815Y-79728815D01*
X162199463Y-79825506D01*
X162140498Y-79935820D01*
X162104188Y-80055518D01*
X162091928Y-80180000D01*
X157551724Y-80180000D01*
X157442766Y-80047234D01*
X157178578Y-79830421D01*
X156877168Y-79669314D01*
X156550119Y-79570105D01*
X156295225Y-79545000D01*
X156124775Y-79545000D01*
X155869881Y-79570105D01*
X155542832Y-79669314D01*
X155241422Y-79830421D01*
X154977234Y-80047234D01*
X154760421Y-80311422D01*
X154599314Y-80612832D01*
X154500105Y-80939881D01*
X154466606Y-81280000D01*
X148717000Y-81280000D01*
X148717000Y-81142408D01*
X148663314Y-80872510D01*
X148558005Y-80618273D01*
X148405120Y-80389465D01*
X148210535Y-80194880D01*
X147981727Y-80041995D01*
X147904485Y-80010000D01*
X147981727Y-79978005D01*
X148210535Y-79825120D01*
X148405120Y-79630535D01*
X148558005Y-79401727D01*
X148663314Y-79147490D01*
X148717000Y-78877592D01*
X148717000Y-78602408D01*
X148663314Y-78332510D01*
X148558005Y-78078273D01*
X148405120Y-77849465D01*
X148210535Y-77654880D01*
X147981727Y-77501995D01*
X147904485Y-77470000D01*
X147981727Y-77438005D01*
X148210535Y-77285120D01*
X148405120Y-77090535D01*
X148558005Y-76861727D01*
X148663314Y-76607490D01*
X148717000Y-76337592D01*
X148717000Y-76062408D01*
X148663314Y-75792510D01*
X148558005Y-75538273D01*
X148405120Y-75309465D01*
X148210535Y-75114880D01*
X147981727Y-74961995D01*
X147904485Y-74930000D01*
X147981727Y-74898005D01*
X148210535Y-74745120D01*
X148405120Y-74550535D01*
X148558005Y-74321727D01*
X148663314Y-74067490D01*
X148717000Y-73797592D01*
X148717000Y-73660000D01*
X154466606Y-73660000D01*
X154500105Y-74000119D01*
X154599314Y-74327168D01*
X154760421Y-74628578D01*
X154977234Y-74892766D01*
X155241422Y-75109579D01*
X155542832Y-75270686D01*
X155869881Y-75369895D01*
X156124775Y-75395000D01*
X156295225Y-75395000D01*
X156550119Y-75369895D01*
X156877168Y-75270686D01*
X157178578Y-75109579D01*
X157442766Y-74892766D01*
X157551723Y-74760000D01*
X162091928Y-74760000D01*
X162104188Y-74884482D01*
X162140498Y-75004180D01*
X162199463Y-75114494D01*
X162278815Y-75211185D01*
X162375506Y-75290537D01*
X162485820Y-75349502D01*
X162605518Y-75385812D01*
X162730000Y-75398072D01*
X163544250Y-75395000D01*
X163703000Y-75236250D01*
X163703000Y-73787000D01*
X163957000Y-73787000D01*
X163957000Y-75236250D01*
X164115750Y-75395000D01*
X164930000Y-75398072D01*
X165054482Y-75385812D01*
X165174180Y-75349502D01*
X165284494Y-75290537D01*
X165381185Y-75211185D01*
X165460537Y-75114494D01*
X165519502Y-75004180D01*
X165555812Y-74884482D01*
X165568072Y-74760000D01*
X165565000Y-73945750D01*
X165406250Y-73787000D01*
X163957000Y-73787000D01*
X163703000Y-73787000D01*
X162253750Y-73787000D01*
X162095000Y-73945750D01*
X162091928Y-74760000D01*
X157551723Y-74760000D01*
X157659579Y-74628578D01*
X157820686Y-74327168D01*
X157919895Y-74000119D01*
X157953394Y-73660000D01*
X157919895Y-73319881D01*
X157820686Y-72992832D01*
X157659579Y-72691422D01*
X157551724Y-72560000D01*
X162091928Y-72560000D01*
X162095000Y-73374250D01*
X162253750Y-73533000D01*
X163703000Y-73533000D01*
X163703000Y-72083750D01*
X163957000Y-72083750D01*
X163957000Y-73533000D01*
X165406250Y-73533000D01*
X165565000Y-73374250D01*
X165568072Y-72560000D01*
X165555812Y-72435518D01*
X165519502Y-72315820D01*
X165460537Y-72205506D01*
X165381185Y-72108815D01*
X165284494Y-72029463D01*
X165174180Y-71970498D01*
X165054482Y-71934188D01*
X164930000Y-71921928D01*
X164115750Y-71925000D01*
X163957000Y-72083750D01*
X163703000Y-72083750D01*
X163544250Y-71925000D01*
X162730000Y-71921928D01*
X162605518Y-71934188D01*
X162485820Y-71970498D01*
X162375506Y-72029463D01*
X162278815Y-72108815D01*
X162199463Y-72205506D01*
X162140498Y-72315820D01*
X162104188Y-72435518D01*
X162091928Y-72560000D01*
X157551724Y-72560000D01*
X157442766Y-72427234D01*
X157178578Y-72210421D01*
X156877168Y-72049314D01*
X156550119Y-71950105D01*
X156295225Y-71925000D01*
X156124775Y-71925000D01*
X155869881Y-71950105D01*
X155542832Y-72049314D01*
X155241422Y-72210421D01*
X154977234Y-72427234D01*
X154760421Y-72691422D01*
X154599314Y-72992832D01*
X154500105Y-73319881D01*
X154466606Y-73660000D01*
X148717000Y-73660000D01*
X148717000Y-73522408D01*
X148663314Y-73252510D01*
X148558005Y-72998273D01*
X148405120Y-72769465D01*
X148210535Y-72574880D01*
X147981727Y-72421995D01*
X147727490Y-72316686D01*
X147457592Y-72263000D01*
X147182408Y-72263000D01*
X146912510Y-72316686D01*
X146658273Y-72421995D01*
X146429465Y-72574880D01*
X146234880Y-72769465D01*
X146081995Y-72998273D01*
X145976686Y-73252510D01*
X145923000Y-73522408D01*
X134747000Y-73522408D01*
X134693314Y-73252510D01*
X134588005Y-72998273D01*
X134435120Y-72769465D01*
X134240535Y-72574880D01*
X134011727Y-72421995D01*
X133757490Y-72316686D01*
X133487592Y-72263000D01*
X133212408Y-72263000D01*
X132942510Y-72316686D01*
X132688273Y-72421995D01*
X132459465Y-72574880D01*
X132264880Y-72769465D01*
X132111995Y-72998273D01*
X132006686Y-73252510D01*
X131953000Y-73522408D01*
X131953000Y-73728198D01*
X126293804Y-68069003D01*
X126270001Y-68039999D01*
X126154276Y-67945026D01*
X126022247Y-67874454D01*
X125878986Y-67830997D01*
X125767333Y-67820000D01*
X125767322Y-67820000D01*
X125730000Y-67816324D01*
X125692678Y-67820000D01*
X125024802Y-67820000D01*
X126241008Y-66603795D01*
X126270001Y-66580001D01*
X126293795Y-66551008D01*
X126293799Y-66551004D01*
X126364973Y-66464277D01*
X126364974Y-66464276D01*
X126435546Y-66332247D01*
X126479003Y-66188986D01*
X126490000Y-66077333D01*
X126490000Y-66077324D01*
X126493676Y-66040001D01*
X126490000Y-66002678D01*
X126490000Y-65898665D01*
X130645000Y-65898665D01*
X130645000Y-66181335D01*
X130700147Y-66458574D01*
X130808320Y-66719727D01*
X130965363Y-66954759D01*
X131165241Y-67154637D01*
X131400273Y-67311680D01*
X131661426Y-67419853D01*
X131938665Y-67475000D01*
X132221335Y-67475000D01*
X132498574Y-67419853D01*
X132759727Y-67311680D01*
X132994759Y-67154637D01*
X133194637Y-66954759D01*
X133351680Y-66719727D01*
X133459853Y-66458574D01*
X133515000Y-66181335D01*
X133515000Y-66040000D01*
X138258057Y-66040000D01*
X138285764Y-66321309D01*
X138367818Y-66591808D01*
X138501068Y-66841101D01*
X138680392Y-67059608D01*
X138898899Y-67238932D01*
X139148192Y-67372182D01*
X139418691Y-67454236D01*
X139629508Y-67475000D01*
X139770492Y-67475000D01*
X139981309Y-67454236D01*
X140251808Y-67372182D01*
X140501101Y-67238932D01*
X140719608Y-67059608D01*
X140898932Y-66841101D01*
X141032182Y-66591808D01*
X141114236Y-66321309D01*
X141115349Y-66310000D01*
X144459428Y-66310000D01*
X144459428Y-68310000D01*
X144471688Y-68434482D01*
X144507998Y-68554180D01*
X144566963Y-68664494D01*
X144646315Y-68761185D01*
X144743006Y-68840537D01*
X144853320Y-68899502D01*
X144973018Y-68935812D01*
X145097500Y-68948072D01*
X147002500Y-68948072D01*
X147126982Y-68935812D01*
X147246680Y-68899502D01*
X147356994Y-68840537D01*
X147453685Y-68761185D01*
X147533037Y-68664494D01*
X147577905Y-68580553D01*
X147703766Y-68683845D01*
X147979552Y-68831255D01*
X148278797Y-68922030D01*
X148590000Y-68952681D01*
X148901204Y-68922030D01*
X149200449Y-68831255D01*
X149476235Y-68683845D01*
X149717963Y-68485463D01*
X149860000Y-68312391D01*
X150002037Y-68485463D01*
X150243766Y-68683845D01*
X150519552Y-68831255D01*
X150818797Y-68922030D01*
X151130000Y-68952681D01*
X151441204Y-68922030D01*
X151740449Y-68831255D01*
X152016235Y-68683845D01*
X152257963Y-68485463D01*
X152456345Y-68243734D01*
X152603755Y-67967948D01*
X152694530Y-67668703D01*
X152717500Y-67435485D01*
X152717500Y-67184514D01*
X152694530Y-66951296D01*
X152603755Y-66652051D01*
X152456345Y-66376265D01*
X152257963Y-66134537D01*
X152016234Y-65936155D01*
X151740448Y-65788745D01*
X151441203Y-65697970D01*
X151130000Y-65667319D01*
X150818796Y-65697970D01*
X150519551Y-65788745D01*
X150243765Y-65936155D01*
X150002037Y-66134537D01*
X149860000Y-66307609D01*
X149717963Y-66134537D01*
X149476234Y-65936155D01*
X149200448Y-65788745D01*
X148901203Y-65697970D01*
X148590000Y-65667319D01*
X148278796Y-65697970D01*
X147979551Y-65788745D01*
X147703765Y-65936155D01*
X147577905Y-66039446D01*
X147533037Y-65955506D01*
X147453685Y-65858815D01*
X147356994Y-65779463D01*
X147246680Y-65720498D01*
X147126982Y-65684188D01*
X147002500Y-65671928D01*
X145097500Y-65671928D01*
X144973018Y-65684188D01*
X144853320Y-65720498D01*
X144743006Y-65779463D01*
X144646315Y-65858815D01*
X144566963Y-65955506D01*
X144507998Y-66065820D01*
X144471688Y-66185518D01*
X144459428Y-66310000D01*
X141115349Y-66310000D01*
X141141943Y-66040000D01*
X141114236Y-65758691D01*
X141032182Y-65488192D01*
X140898932Y-65238899D01*
X140719608Y-65020392D01*
X140501101Y-64841068D01*
X140251808Y-64707818D01*
X139981309Y-64625764D01*
X139770492Y-64605000D01*
X139629508Y-64605000D01*
X139418691Y-64625764D01*
X139148192Y-64707818D01*
X138898899Y-64841068D01*
X138680392Y-65020392D01*
X138501068Y-65238899D01*
X138367818Y-65488192D01*
X138285764Y-65758691D01*
X138258057Y-66040000D01*
X133515000Y-66040000D01*
X133515000Y-65898665D01*
X133459853Y-65621426D01*
X133351680Y-65360273D01*
X133194637Y-65125241D01*
X132994759Y-64925363D01*
X132759727Y-64768320D01*
X132498574Y-64660147D01*
X132221335Y-64605000D01*
X131938665Y-64605000D01*
X131661426Y-64660147D01*
X131400273Y-64768320D01*
X131165241Y-64925363D01*
X130965363Y-65125241D01*
X130808320Y-65360273D01*
X130700147Y-65621426D01*
X130645000Y-65898665D01*
X126490000Y-65898665D01*
X126490000Y-57008665D01*
X130645000Y-57008665D01*
X130645000Y-57291335D01*
X130700147Y-57568574D01*
X130808320Y-57829727D01*
X130965363Y-58064759D01*
X131165241Y-58264637D01*
X131400273Y-58421680D01*
X131661426Y-58529853D01*
X131938665Y-58585000D01*
X132221335Y-58585000D01*
X132498574Y-58529853D01*
X132759727Y-58421680D01*
X132994759Y-58264637D01*
X133194637Y-58064759D01*
X133351680Y-57829727D01*
X133459853Y-57568574D01*
X133515000Y-57291335D01*
X133515000Y-57150000D01*
X138258057Y-57150000D01*
X138285764Y-57431309D01*
X138367818Y-57701808D01*
X138501068Y-57951101D01*
X138680392Y-58169608D01*
X138898899Y-58348932D01*
X139148192Y-58482182D01*
X139418691Y-58564236D01*
X139629508Y-58585000D01*
X139770492Y-58585000D01*
X139981309Y-58564236D01*
X140251808Y-58482182D01*
X140501101Y-58348932D01*
X140719608Y-58169608D01*
X140898932Y-57951101D01*
X141032182Y-57701808D01*
X141114236Y-57431309D01*
X141141943Y-57150000D01*
X141114236Y-56868691D01*
X141032182Y-56598192D01*
X140898932Y-56348899D01*
X140735700Y-56150000D01*
X144459428Y-56150000D01*
X144459428Y-58150000D01*
X144471688Y-58274482D01*
X144507998Y-58394180D01*
X144566963Y-58504494D01*
X144646315Y-58601185D01*
X144743006Y-58680537D01*
X144853320Y-58739502D01*
X144973018Y-58775812D01*
X145097500Y-58788072D01*
X147002500Y-58788072D01*
X147126982Y-58775812D01*
X147246680Y-58739502D01*
X147356994Y-58680537D01*
X147453685Y-58601185D01*
X147533037Y-58504494D01*
X147577905Y-58420553D01*
X147703766Y-58523845D01*
X147979552Y-58671255D01*
X148278797Y-58762030D01*
X148590000Y-58792681D01*
X148901204Y-58762030D01*
X149200449Y-58671255D01*
X149476235Y-58523845D01*
X149717963Y-58325463D01*
X149860000Y-58152391D01*
X150002037Y-58325463D01*
X150243766Y-58523845D01*
X150519552Y-58671255D01*
X150818797Y-58762030D01*
X151130000Y-58792681D01*
X151441204Y-58762030D01*
X151740449Y-58671255D01*
X152016235Y-58523845D01*
X152257963Y-58325463D01*
X152456345Y-58083734D01*
X152603755Y-57807948D01*
X152694530Y-57508703D01*
X152717500Y-57275485D01*
X152717500Y-57220000D01*
X158181928Y-57220000D01*
X158181928Y-59620000D01*
X158194188Y-59744482D01*
X158230498Y-59864180D01*
X158289463Y-59974494D01*
X158368815Y-60071185D01*
X158465506Y-60150537D01*
X158575820Y-60209502D01*
X158695518Y-60245812D01*
X158820000Y-60258072D01*
X161220000Y-60258072D01*
X161344482Y-60245812D01*
X161464180Y-60209502D01*
X161574494Y-60150537D01*
X161671185Y-60071185D01*
X161750537Y-59974494D01*
X161809502Y-59864180D01*
X161845812Y-59744482D01*
X161858072Y-59620000D01*
X161858072Y-57220000D01*
X161845812Y-57095518D01*
X161809502Y-56975820D01*
X161750537Y-56865506D01*
X161671185Y-56768815D01*
X161574494Y-56689463D01*
X161464180Y-56630498D01*
X161344482Y-56594188D01*
X161220000Y-56581928D01*
X160813097Y-56581928D01*
X160998486Y-56482836D01*
X161118374Y-56197980D01*
X160020000Y-55099605D01*
X158921626Y-56197980D01*
X159041514Y-56482836D01*
X159240912Y-56581928D01*
X158820000Y-56581928D01*
X158695518Y-56594188D01*
X158575820Y-56630498D01*
X158465506Y-56689463D01*
X158368815Y-56768815D01*
X158289463Y-56865506D01*
X158230498Y-56975820D01*
X158194188Y-57095518D01*
X158181928Y-57220000D01*
X152717500Y-57220000D01*
X152717500Y-57024514D01*
X152694530Y-56791296D01*
X152603755Y-56492051D01*
X152456345Y-56216265D01*
X152257963Y-55974537D01*
X152016234Y-55776155D01*
X151740448Y-55628745D01*
X151441203Y-55537970D01*
X151130000Y-55507319D01*
X150818796Y-55537970D01*
X150519551Y-55628745D01*
X150243765Y-55776155D01*
X150002037Y-55974537D01*
X149860000Y-56147609D01*
X149717963Y-55974537D01*
X149476234Y-55776155D01*
X149200448Y-55628745D01*
X148901203Y-55537970D01*
X148590000Y-55507319D01*
X148278796Y-55537970D01*
X147979551Y-55628745D01*
X147703765Y-55776155D01*
X147577905Y-55879446D01*
X147533037Y-55795506D01*
X147453685Y-55698815D01*
X147356994Y-55619463D01*
X147246680Y-55560498D01*
X147126982Y-55524188D01*
X147002500Y-55511928D01*
X145097500Y-55511928D01*
X144973018Y-55524188D01*
X144853320Y-55560498D01*
X144743006Y-55619463D01*
X144646315Y-55698815D01*
X144566963Y-55795506D01*
X144507998Y-55905820D01*
X144471688Y-56025518D01*
X144459428Y-56150000D01*
X140735700Y-56150000D01*
X140719608Y-56130392D01*
X140501101Y-55951068D01*
X140251808Y-55817818D01*
X139981309Y-55735764D01*
X139770492Y-55715000D01*
X139629508Y-55715000D01*
X139418691Y-55735764D01*
X139148192Y-55817818D01*
X138898899Y-55951068D01*
X138680392Y-56130392D01*
X138501068Y-56348899D01*
X138367818Y-56598192D01*
X138285764Y-56868691D01*
X138258057Y-57150000D01*
X133515000Y-57150000D01*
X133515000Y-57008665D01*
X133459853Y-56731426D01*
X133351680Y-56470273D01*
X133194637Y-56235241D01*
X132994759Y-56035363D01*
X132759727Y-55878320D01*
X132498574Y-55770147D01*
X132221335Y-55715000D01*
X131938665Y-55715000D01*
X131661426Y-55770147D01*
X131400273Y-55878320D01*
X131165241Y-56035363D01*
X130965363Y-56235241D01*
X130808320Y-56470273D01*
X130700147Y-56731426D01*
X130645000Y-57008665D01*
X126490000Y-57008665D01*
X126490000Y-54974684D01*
X158176933Y-54974684D01*
X158223015Y-55333198D01*
X158338154Y-55675833D01*
X158457164Y-55898486D01*
X158742020Y-56018374D01*
X159840395Y-54920000D01*
X160199605Y-54920000D01*
X161297980Y-56018374D01*
X161582836Y-55898486D01*
X161743699Y-55574790D01*
X161838322Y-55225931D01*
X161863067Y-54865316D01*
X161816985Y-54506802D01*
X161701846Y-54164167D01*
X161582836Y-53941514D01*
X161297980Y-53821626D01*
X160199605Y-54920000D01*
X159840395Y-54920000D01*
X158742020Y-53821626D01*
X158457164Y-53941514D01*
X158296301Y-54265210D01*
X158201678Y-54614069D01*
X158176933Y-54974684D01*
X126490000Y-54974684D01*
X126490000Y-51239268D01*
X158185000Y-51239268D01*
X158185000Y-51600732D01*
X158255518Y-51955250D01*
X158393844Y-52289199D01*
X158594662Y-52589744D01*
X158850256Y-52845338D01*
X159150801Y-53046156D01*
X159457489Y-53173190D01*
X159264167Y-53238154D01*
X159041514Y-53357164D01*
X158921626Y-53642020D01*
X160020000Y-54740395D01*
X161118374Y-53642020D01*
X160998486Y-53357164D01*
X160674790Y-53196301D01*
X160585310Y-53172031D01*
X160889199Y-53046156D01*
X161189744Y-52845338D01*
X161445338Y-52589744D01*
X161646156Y-52289199D01*
X161784482Y-51955250D01*
X161855000Y-51600732D01*
X161855000Y-51239268D01*
X161784482Y-50884750D01*
X161646156Y-50550801D01*
X161445338Y-50250256D01*
X161189744Y-49994662D01*
X160889199Y-49793844D01*
X160582511Y-49666810D01*
X160775833Y-49601846D01*
X160998486Y-49482836D01*
X161118374Y-49197980D01*
X160020000Y-48099605D01*
X158921626Y-49197980D01*
X159041514Y-49482836D01*
X159365210Y-49643699D01*
X159454690Y-49667969D01*
X159150801Y-49793844D01*
X158850256Y-49994662D01*
X158594662Y-50250256D01*
X158393844Y-50550801D01*
X158255518Y-50884750D01*
X158185000Y-51239268D01*
X126490000Y-51239268D01*
X126490000Y-46990000D01*
X130638057Y-46990000D01*
X130665764Y-47271309D01*
X130747818Y-47541808D01*
X130881068Y-47791101D01*
X131060392Y-48009608D01*
X131278899Y-48188932D01*
X131528192Y-48322182D01*
X131798691Y-48404236D01*
X132009508Y-48425000D01*
X132150492Y-48425000D01*
X132361309Y-48404236D01*
X132631808Y-48322182D01*
X132881101Y-48188932D01*
X133099608Y-48009608D01*
X133278932Y-47791101D01*
X133412182Y-47541808D01*
X133494236Y-47271309D01*
X133521943Y-46990000D01*
X133508023Y-46848665D01*
X138265000Y-46848665D01*
X138265000Y-47131335D01*
X138320147Y-47408574D01*
X138428320Y-47669727D01*
X138585363Y-47904759D01*
X138785241Y-48104637D01*
X139020273Y-48261680D01*
X139281426Y-48369853D01*
X139558665Y-48425000D01*
X139841335Y-48425000D01*
X140118574Y-48369853D01*
X140379727Y-48261680D01*
X140614759Y-48104637D01*
X140814637Y-47904759D01*
X140971680Y-47669727D01*
X141079853Y-47408574D01*
X141135000Y-47131335D01*
X141135000Y-46848665D01*
X141079853Y-46571426D01*
X140971680Y-46310273D01*
X140814637Y-46075241D01*
X140729396Y-45990000D01*
X144459428Y-45990000D01*
X144459428Y-47990000D01*
X144471688Y-48114482D01*
X144507998Y-48234180D01*
X144566963Y-48344494D01*
X144646315Y-48441185D01*
X144743006Y-48520537D01*
X144853320Y-48579502D01*
X144973018Y-48615812D01*
X145097500Y-48628072D01*
X147002500Y-48628072D01*
X147126982Y-48615812D01*
X147246680Y-48579502D01*
X147356994Y-48520537D01*
X147453685Y-48441185D01*
X147533037Y-48344494D01*
X147577905Y-48260553D01*
X147703766Y-48363845D01*
X147979552Y-48511255D01*
X148278797Y-48602030D01*
X148590000Y-48632681D01*
X148901204Y-48602030D01*
X149200449Y-48511255D01*
X149476235Y-48363845D01*
X149717963Y-48165463D01*
X149860000Y-47992391D01*
X150002037Y-48165463D01*
X150243766Y-48363845D01*
X150519552Y-48511255D01*
X150818797Y-48602030D01*
X151130000Y-48632681D01*
X151441204Y-48602030D01*
X151740449Y-48511255D01*
X152016235Y-48363845D01*
X152257963Y-48165463D01*
X152414531Y-47974684D01*
X158176933Y-47974684D01*
X158223015Y-48333198D01*
X158338154Y-48675833D01*
X158457164Y-48898486D01*
X158742020Y-49018374D01*
X159840395Y-47920000D01*
X160199605Y-47920000D01*
X161297980Y-49018374D01*
X161582836Y-48898486D01*
X161743699Y-48574790D01*
X161838322Y-48225931D01*
X161863067Y-47865316D01*
X161816985Y-47506802D01*
X161701846Y-47164167D01*
X161582836Y-46941514D01*
X161297980Y-46821626D01*
X160199605Y-47920000D01*
X159840395Y-47920000D01*
X158742020Y-46821626D01*
X158457164Y-46941514D01*
X158296301Y-47265210D01*
X158201678Y-47614069D01*
X158176933Y-47974684D01*
X152414531Y-47974684D01*
X152456345Y-47923734D01*
X152603755Y-47647948D01*
X152694530Y-47348703D01*
X152717500Y-47115485D01*
X152717500Y-46864514D01*
X152694530Y-46631296D01*
X152603755Y-46332051D01*
X152456345Y-46056265D01*
X152257963Y-45814537D01*
X152016234Y-45616155D01*
X151740448Y-45468745D01*
X151441203Y-45377970D01*
X151130000Y-45347319D01*
X150818796Y-45377970D01*
X150519551Y-45468745D01*
X150243765Y-45616155D01*
X150002037Y-45814537D01*
X149860000Y-45987609D01*
X149717963Y-45814537D01*
X149476234Y-45616155D01*
X149200448Y-45468745D01*
X148901203Y-45377970D01*
X148590000Y-45347319D01*
X148278796Y-45377970D01*
X147979551Y-45468745D01*
X147703765Y-45616155D01*
X147577905Y-45719446D01*
X147533037Y-45635506D01*
X147453685Y-45538815D01*
X147356994Y-45459463D01*
X147246680Y-45400498D01*
X147126982Y-45364188D01*
X147002500Y-45351928D01*
X145097500Y-45351928D01*
X144973018Y-45364188D01*
X144853320Y-45400498D01*
X144743006Y-45459463D01*
X144646315Y-45538815D01*
X144566963Y-45635506D01*
X144507998Y-45745820D01*
X144471688Y-45865518D01*
X144459428Y-45990000D01*
X140729396Y-45990000D01*
X140614759Y-45875363D01*
X140379727Y-45718320D01*
X140118574Y-45610147D01*
X139841335Y-45555000D01*
X139558665Y-45555000D01*
X139281426Y-45610147D01*
X139020273Y-45718320D01*
X138785241Y-45875363D01*
X138585363Y-46075241D01*
X138428320Y-46310273D01*
X138320147Y-46571426D01*
X138265000Y-46848665D01*
X133508023Y-46848665D01*
X133494236Y-46708691D01*
X133412182Y-46438192D01*
X133278932Y-46188899D01*
X133099608Y-45970392D01*
X132881101Y-45791068D01*
X132631808Y-45657818D01*
X132361309Y-45575764D01*
X132150492Y-45555000D01*
X132009508Y-45555000D01*
X131798691Y-45575764D01*
X131528192Y-45657818D01*
X131278899Y-45791068D01*
X131060392Y-45970392D01*
X130881068Y-46188899D01*
X130747818Y-46438192D01*
X130665764Y-46708691D01*
X130638057Y-46990000D01*
X126490000Y-46990000D01*
X126490000Y-44239268D01*
X158185000Y-44239268D01*
X158185000Y-44600732D01*
X158255518Y-44955250D01*
X158393844Y-45289199D01*
X158594662Y-45589744D01*
X158850256Y-45845338D01*
X159150801Y-46046156D01*
X159457489Y-46173190D01*
X159264167Y-46238154D01*
X159041514Y-46357164D01*
X158921626Y-46642020D01*
X160020000Y-47740395D01*
X161118374Y-46642020D01*
X160998486Y-46357164D01*
X160674790Y-46196301D01*
X160585310Y-46172031D01*
X160889199Y-46046156D01*
X161189744Y-45845338D01*
X161445338Y-45589744D01*
X161646156Y-45289199D01*
X161784482Y-44955250D01*
X161855000Y-44600732D01*
X161855000Y-44239268D01*
X161784482Y-43884750D01*
X161646156Y-43550801D01*
X161445338Y-43250256D01*
X161189744Y-42994662D01*
X160889199Y-42793844D01*
X160582511Y-42666810D01*
X160775833Y-42601846D01*
X160998486Y-42482836D01*
X161118374Y-42197980D01*
X160020000Y-41099605D01*
X158921626Y-42197980D01*
X159041514Y-42482836D01*
X159365210Y-42643699D01*
X159454690Y-42667969D01*
X159150801Y-42793844D01*
X158850256Y-42994662D01*
X158594662Y-43250256D01*
X158393844Y-43550801D01*
X158255518Y-43884750D01*
X158185000Y-44239268D01*
X126490000Y-44239268D01*
X126490000Y-41947322D01*
X126493676Y-41909999D01*
X126490000Y-41872676D01*
X126490000Y-41872667D01*
X126479003Y-41761014D01*
X126435546Y-41617753D01*
X126364974Y-41485724D01*
X126270001Y-41369999D01*
X126241004Y-41346202D01*
X125023804Y-40129003D01*
X125000001Y-40099999D01*
X124884276Y-40005026D01*
X124752247Y-39934454D01*
X124608986Y-39890997D01*
X124497333Y-39880000D01*
X124497322Y-39880000D01*
X124460000Y-39876324D01*
X124422678Y-39880000D01*
X119417322Y-39880000D01*
X119379999Y-39876324D01*
X119342676Y-39880000D01*
X119342667Y-39880000D01*
X119231014Y-39890997D01*
X119087753Y-39934454D01*
X118955724Y-40005026D01*
X118955722Y-40005027D01*
X118955723Y-40005027D01*
X118868996Y-40076201D01*
X118868992Y-40076205D01*
X118839999Y-40099999D01*
X118816205Y-40128992D01*
X117216899Y-41728299D01*
X117133777Y-41703084D01*
X116913619Y-41681400D01*
X116766381Y-41681400D01*
X116546223Y-41703084D01*
X116263736Y-41788775D01*
X116003394Y-41927931D01*
X115775203Y-42115203D01*
X115587931Y-42343394D01*
X115570000Y-42376940D01*
X115552069Y-42343394D01*
X115364797Y-42115203D01*
X115136606Y-41927931D01*
X114876264Y-41788775D01*
X114593777Y-41703084D01*
X114373619Y-41681400D01*
X114226381Y-41681400D01*
X114006223Y-41703084D01*
X113723736Y-41788775D01*
X113463394Y-41927931D01*
X113235203Y-42115203D01*
X113047931Y-42343394D01*
X113030000Y-42376940D01*
X113012069Y-42343394D01*
X112824797Y-42115203D01*
X112596606Y-41927931D01*
X112336264Y-41788775D01*
X112053777Y-41703084D01*
X111833619Y-41681400D01*
X111686381Y-41681400D01*
X111466223Y-41703084D01*
X111183736Y-41788775D01*
X110923394Y-41927931D01*
X110695203Y-42115203D01*
X110507931Y-42343394D01*
X110368775Y-42603736D01*
X110283084Y-42886223D01*
X110254149Y-43180000D01*
X110283084Y-43473777D01*
X110368775Y-43756264D01*
X110507931Y-44016606D01*
X110695203Y-44244797D01*
X110703265Y-44251414D01*
X110652220Y-44266898D01*
X110541906Y-44325863D01*
X110445215Y-44405215D01*
X110365863Y-44501906D01*
X110306898Y-44612220D01*
X110270588Y-44731918D01*
X110258328Y-44856400D01*
X110258328Y-46583600D01*
X110270588Y-46708082D01*
X110306898Y-46827780D01*
X110365863Y-46938094D01*
X110445215Y-47034785D01*
X110541906Y-47114137D01*
X110652220Y-47173102D01*
X110771918Y-47209412D01*
X110896400Y-47221672D01*
X112623600Y-47221672D01*
X112748082Y-47209412D01*
X112867780Y-47173102D01*
X112978094Y-47114137D01*
X113074785Y-47034785D01*
X113154137Y-46938094D01*
X113213102Y-46827780D01*
X113228586Y-46776735D01*
X113235203Y-46784797D01*
X113463394Y-46972069D01*
X113723736Y-47111225D01*
X114006223Y-47196916D01*
X114226381Y-47218600D01*
X114373619Y-47218600D01*
X114593777Y-47196916D01*
X114876264Y-47111225D01*
X115136606Y-46972069D01*
X115364797Y-46784797D01*
X115552069Y-46556606D01*
X115570000Y-46523060D01*
X115587931Y-46556606D01*
X115775203Y-46784797D01*
X116003394Y-46972069D01*
X116263736Y-47111225D01*
X116546223Y-47196916D01*
X116766381Y-47218600D01*
X116913619Y-47218600D01*
X117133777Y-47196916D01*
X117416264Y-47111225D01*
X117676606Y-46972069D01*
X117743357Y-46917288D01*
X120670870Y-49844803D01*
X120670870Y-52030350D01*
X120584494Y-51959463D01*
X120474180Y-51900498D01*
X120354482Y-51864188D01*
X120230000Y-51851928D01*
X118530000Y-51851928D01*
X118405518Y-51864188D01*
X118285820Y-51900498D01*
X118175506Y-51959463D01*
X118078815Y-52038815D01*
X117999463Y-52135506D01*
X117940498Y-52245820D01*
X117919607Y-52314687D01*
X117895134Y-52284866D01*
X117669014Y-52099294D01*
X117411034Y-51961401D01*
X117131111Y-51876487D01*
X116912950Y-51855000D01*
X116767050Y-51855000D01*
X116548889Y-51876487D01*
X116268966Y-51961401D01*
X116010986Y-52099294D01*
X115784866Y-52284866D01*
X115599294Y-52510986D01*
X115570000Y-52565791D01*
X115540706Y-52510986D01*
X115355134Y-52284866D01*
X115129014Y-52099294D01*
X114871034Y-51961401D01*
X114591111Y-51876487D01*
X114372950Y-51855000D01*
X114227050Y-51855000D01*
X114008889Y-51876487D01*
X113728966Y-51961401D01*
X113470986Y-52099294D01*
X113244866Y-52284866D01*
X113059294Y-52510986D01*
X113030000Y-52565791D01*
X113000706Y-52510986D01*
X112815134Y-52284866D01*
X112589014Y-52099294D01*
X112331034Y-51961401D01*
X112051111Y-51876487D01*
X111832950Y-51855000D01*
X111687050Y-51855000D01*
X111468889Y-51876487D01*
X111188966Y-51961401D01*
X110930986Y-52099294D01*
X110704866Y-52284866D01*
X110519294Y-52510986D01*
X110490000Y-52565791D01*
X110460706Y-52510986D01*
X110275134Y-52284866D01*
X110049014Y-52099294D01*
X109791034Y-51961401D01*
X109511111Y-51876487D01*
X109292950Y-51855000D01*
X109147050Y-51855000D01*
X108928889Y-51876487D01*
X108648966Y-51961401D01*
X108390986Y-52099294D01*
X108164866Y-52284866D01*
X107979294Y-52510986D01*
X107841401Y-52768966D01*
X107756487Y-53048889D01*
X107727815Y-53340000D01*
X107756487Y-53631111D01*
X107841401Y-53911034D01*
X107979294Y-54169014D01*
X108164866Y-54395134D01*
X108390986Y-54580706D01*
X108648966Y-54718599D01*
X108928889Y-54803513D01*
X109147050Y-54825000D01*
X109292950Y-54825000D01*
X109511111Y-54803513D01*
X109791034Y-54718599D01*
X110049014Y-54580706D01*
X110275134Y-54395134D01*
X110460706Y-54169014D01*
X110490000Y-54114209D01*
X110519294Y-54169014D01*
X110704866Y-54395134D01*
X110930986Y-54580706D01*
X111188966Y-54718599D01*
X111468889Y-54803513D01*
X111687050Y-54825000D01*
X111832950Y-54825000D01*
X112051111Y-54803513D01*
X112331034Y-54718599D01*
X112589014Y-54580706D01*
X112815134Y-54395134D01*
X113000706Y-54169014D01*
X113030000Y-54114209D01*
X113059294Y-54169014D01*
X113244866Y-54395134D01*
X113470986Y-54580706D01*
X113728966Y-54718599D01*
X114008889Y-54803513D01*
X114227050Y-54825000D01*
X114372950Y-54825000D01*
X114591111Y-54803513D01*
X114871034Y-54718599D01*
X115129014Y-54580706D01*
X115355134Y-54395134D01*
X115540706Y-54169014D01*
X115570000Y-54114209D01*
X115599294Y-54169014D01*
X115784866Y-54395134D01*
X116010986Y-54580706D01*
X116268966Y-54718599D01*
X116548889Y-54803513D01*
X116767050Y-54825000D01*
X116912950Y-54825000D01*
X117131111Y-54803513D01*
X117411034Y-54718599D01*
X117669014Y-54580706D01*
X117895134Y-54395134D01*
X117919607Y-54365313D01*
X117940498Y-54434180D01*
X117999463Y-54544494D01*
X118078815Y-54641185D01*
X118175506Y-54720537D01*
X118285820Y-54779502D01*
X118405518Y-54815812D01*
X118530000Y-54828072D01*
X118620001Y-54828072D01*
X118620000Y-64455198D01*
X115255199Y-67820000D01*
X109170901Y-67820000D01*
X109148932Y-67778899D01*
X108969608Y-67560392D01*
X108751101Y-67381068D01*
X108618142Y-67310000D01*
X108751101Y-67238932D01*
X108969608Y-67059608D01*
X109148932Y-66841101D01*
X109282182Y-66591808D01*
X109364236Y-66321309D01*
X109391943Y-66040000D01*
X109364236Y-65758691D01*
X109282182Y-65488192D01*
X109148932Y-65238899D01*
X108969608Y-65020392D01*
X108751101Y-64841068D01*
X108618142Y-64770000D01*
X108751101Y-64698932D01*
X108969608Y-64519608D01*
X109148932Y-64301101D01*
X109282182Y-64051808D01*
X109364236Y-63781309D01*
X109391943Y-63500000D01*
X109364236Y-63218691D01*
X109282182Y-62948192D01*
X109148932Y-62698899D01*
X108969608Y-62480392D01*
X108856518Y-62387581D01*
X108874482Y-62385812D01*
X108994180Y-62349502D01*
X109104494Y-62290537D01*
X109201185Y-62211185D01*
X109280537Y-62114494D01*
X109339502Y-62004180D01*
X109375812Y-61884482D01*
X109388072Y-61760000D01*
X109388072Y-60160000D01*
X109375812Y-60035518D01*
X109339502Y-59915820D01*
X109280537Y-59805506D01*
X109201185Y-59708815D01*
X109104494Y-59629463D01*
X108994180Y-59570498D01*
X108965023Y-59561653D01*
X109134545Y-59392131D01*
X109301438Y-59142358D01*
X109416395Y-58864826D01*
X109475000Y-58570199D01*
X109475000Y-58269801D01*
X109416395Y-57975174D01*
X109301438Y-57697642D01*
X109134545Y-57447869D01*
X108922131Y-57235455D01*
X108672358Y-57068562D01*
X108394826Y-56953605D01*
X108100199Y-56895000D01*
X107799801Y-56895000D01*
X107505174Y-56953605D01*
X107227642Y-57068562D01*
X106977869Y-57235455D01*
X106765455Y-57447869D01*
X106598562Y-57697642D01*
X106483605Y-57975174D01*
X106425000Y-58269801D01*
X104267000Y-58269801D01*
X104267000Y-39370000D01*
X143036606Y-39370000D01*
X143070105Y-39710119D01*
X143169314Y-40037168D01*
X143330421Y-40338578D01*
X143547234Y-40602766D01*
X143811422Y-40819579D01*
X144112832Y-40980686D01*
X144439881Y-41079895D01*
X144694775Y-41105000D01*
X144865225Y-41105000D01*
X145120119Y-41079895D01*
X145447168Y-40980686D01*
X145748578Y-40819579D01*
X146012766Y-40602766D01*
X146121723Y-40470000D01*
X150661928Y-40470000D01*
X150674188Y-40594482D01*
X150710498Y-40714180D01*
X150769463Y-40824494D01*
X150848815Y-40921185D01*
X150945506Y-41000537D01*
X151055820Y-41059502D01*
X151175518Y-41095812D01*
X151300000Y-41108072D01*
X152114250Y-41105000D01*
X152273000Y-40946250D01*
X152273000Y-39497000D01*
X152527000Y-39497000D01*
X152527000Y-40946250D01*
X152685750Y-41105000D01*
X153500000Y-41108072D01*
X153624482Y-41095812D01*
X153744180Y-41059502D01*
X153854494Y-41000537D01*
X153885996Y-40974684D01*
X158176933Y-40974684D01*
X158223015Y-41333198D01*
X158338154Y-41675833D01*
X158457164Y-41898486D01*
X158742020Y-42018374D01*
X159840395Y-40920000D01*
X160199605Y-40920000D01*
X161297980Y-42018374D01*
X161582836Y-41898486D01*
X161743699Y-41574790D01*
X161838322Y-41225931D01*
X161863067Y-40865316D01*
X161816985Y-40506802D01*
X161701846Y-40164167D01*
X161582836Y-39941514D01*
X161297980Y-39821626D01*
X160199605Y-40920000D01*
X159840395Y-40920000D01*
X158742020Y-39821626D01*
X158457164Y-39941514D01*
X158296301Y-40265210D01*
X158201678Y-40614069D01*
X158176933Y-40974684D01*
X153885996Y-40974684D01*
X153951185Y-40921185D01*
X154030537Y-40824494D01*
X154089502Y-40714180D01*
X154125812Y-40594482D01*
X154138072Y-40470000D01*
X154135000Y-39655750D01*
X154121270Y-39642020D01*
X158921626Y-39642020D01*
X160020000Y-40740395D01*
X161118374Y-39642020D01*
X160998486Y-39357164D01*
X160674790Y-39196301D01*
X160325931Y-39101678D01*
X159965316Y-39076933D01*
X159606802Y-39123015D01*
X159264167Y-39238154D01*
X159041514Y-39357164D01*
X158921626Y-39642020D01*
X154121270Y-39642020D01*
X153976250Y-39497000D01*
X152527000Y-39497000D01*
X152273000Y-39497000D01*
X150823750Y-39497000D01*
X150665000Y-39655750D01*
X150661928Y-40470000D01*
X146121723Y-40470000D01*
X146229579Y-40338578D01*
X146390686Y-40037168D01*
X146489895Y-39710119D01*
X146523394Y-39370000D01*
X146489895Y-39029881D01*
X146390686Y-38702832D01*
X146229579Y-38401422D01*
X146121724Y-38270000D01*
X150661928Y-38270000D01*
X150665000Y-39084250D01*
X150823750Y-39243000D01*
X152273000Y-39243000D01*
X152273000Y-37793750D01*
X152527000Y-37793750D01*
X152527000Y-39243000D01*
X153976250Y-39243000D01*
X154135000Y-39084250D01*
X154138072Y-38270000D01*
X154125812Y-38145518D01*
X154089502Y-38025820D01*
X154030537Y-37915506D01*
X153951185Y-37818815D01*
X153854494Y-37739463D01*
X153744180Y-37680498D01*
X153624482Y-37644188D01*
X153500000Y-37631928D01*
X152685750Y-37635000D01*
X152527000Y-37793750D01*
X152273000Y-37793750D01*
X152114250Y-37635000D01*
X151300000Y-37631928D01*
X151175518Y-37644188D01*
X151055820Y-37680498D01*
X150945506Y-37739463D01*
X150848815Y-37818815D01*
X150769463Y-37915506D01*
X150710498Y-38025820D01*
X150674188Y-38145518D01*
X150661928Y-38270000D01*
X146121724Y-38270000D01*
X146012766Y-38137234D01*
X145748578Y-37920421D01*
X145447168Y-37759314D01*
X145120119Y-37660105D01*
X144865225Y-37635000D01*
X144694775Y-37635000D01*
X144439881Y-37660105D01*
X144112832Y-37759314D01*
X143811422Y-37920421D01*
X143547234Y-38137234D01*
X143330421Y-38401422D01*
X143169314Y-38702832D01*
X143070105Y-39029881D01*
X143036606Y-39370000D01*
X104267000Y-39370000D01*
X104267000Y-36957000D01*
X167513000Y-36957000D01*
X167513000Y-105283000D01*
M02*
