G04 #@! TF.GenerationSoftware,KiCad,Pcbnew,(5.1.2)-2*
G04 #@! TF.CreationDate,2019-08-23T10:29:04+03:00*
G04 #@! TF.ProjectId,pneumatic,706e6575-6d61-4746-9963-2e6b69636164,rev?*
G04 #@! TF.SameCoordinates,Original*
G04 #@! TF.FileFunction,Legend,Top*
G04 #@! TF.FilePolarity,Positive*
%FSLAX46Y46*%
G04 Gerber Fmt 4.6, Leading zero omitted, Abs format (unit mm)*
G04 Created by KiCad (PCBNEW (5.1.2)-2) date 2019-08-23 10:29:04*
%MOMM*%
%LPD*%
G04 APERTURE LIST*
%ADD10C,0.120000*%
%ADD11C,0.150000*%
G04 APERTURE END LIST*
D10*
X124590000Y-57020000D02*
X106550000Y-57020000D01*
X124590000Y-100460000D02*
X124590000Y-57020000D01*
X106550000Y-100460000D02*
X124590000Y-100460000D01*
X109220000Y-97790000D02*
X106550000Y-97790000D01*
X109220000Y-62230000D02*
X109220000Y-97790000D01*
X109220000Y-62230000D02*
X106550000Y-62230000D01*
X121920000Y-97790000D02*
X124590000Y-97790000D01*
X121920000Y-59690000D02*
X121920000Y-97790000D01*
X121920000Y-59690000D02*
X124590000Y-59690000D01*
X106550000Y-57020000D02*
X106550000Y-59690000D01*
X106550000Y-62230000D02*
X106550000Y-100460000D01*
X109220000Y-59690000D02*
X106550000Y-59690000D01*
X109220000Y-62230000D02*
X109220000Y-59690000D01*
X120710000Y-52010000D02*
X120710000Y-53340000D01*
X119380000Y-52010000D02*
X120710000Y-52010000D01*
X118110000Y-52010000D02*
X118110000Y-54670000D01*
X118110000Y-54670000D02*
X107890000Y-54670000D01*
X118110000Y-52010000D02*
X107890000Y-52010000D01*
X107890000Y-52010000D02*
X107890000Y-54670000D01*
X163920000Y-60820000D02*
X163920000Y-59320000D01*
X162180000Y-60820000D02*
X163920000Y-60820000D01*
X156560000Y-38760000D02*
X163680000Y-38760000D01*
X156560000Y-60580000D02*
X163680000Y-60580000D01*
X163680000Y-60580000D02*
X163680000Y-38760000D01*
X156560000Y-60580000D02*
X156560000Y-38760000D01*
X162120000Y-60580000D02*
X162120000Y-38760000D01*
X161575000Y-40920000D02*
G75*
G03X161575000Y-40920000I-1555000J0D01*
G01*
X161575000Y-44420000D02*
G75*
G03X161575000Y-44420000I-1555000J0D01*
G01*
X161575000Y-47920000D02*
G75*
G03X161575000Y-47920000I-1555000J0D01*
G01*
X161575000Y-51420000D02*
G75*
G03X161575000Y-51420000I-1555000J0D01*
G01*
X161575000Y-54920000D02*
G75*
G03X161575000Y-54920000I-1555000J0D01*
G01*
X161575492Y-58392989D02*
G75*
G02X161452000Y-59028000I-1555492J-27011D01*
G01*
X160627742Y-59852109D02*
G75*
G02X159412000Y-59852000I-607742J1432109D01*
G01*
X158587891Y-59027742D02*
G75*
G02X158588000Y-57812000I1432109J607742D01*
G01*
X159412258Y-56987891D02*
G75*
G02X160628000Y-56988000I607742J-1432109D01*
G01*
X161451385Y-57812413D02*
G75*
G02X161575000Y-58420000I-1431385J-607587D01*
G01*
X152160000Y-92610000D02*
X148590000Y-91694000D01*
X148590000Y-97790000D02*
X148590000Y-95290000D01*
X155150000Y-90850000D02*
X159150000Y-90850000D01*
X155150000Y-94450000D02*
X155150000Y-90850000D01*
X159150000Y-94450000D02*
X155150000Y-94450000D01*
X159150000Y-90850000D02*
X159150000Y-94450000D01*
X155150000Y-90850000D02*
X159150000Y-94450000D01*
X157150000Y-90850000D02*
X157150000Y-87630000D01*
X157150000Y-99822000D02*
X157150000Y-94450000D01*
X159766000Y-93726000D02*
X159766000Y-89050000D01*
X153750000Y-92650000D02*
X153750000Y-89050000D01*
X153750000Y-89050000D02*
X159766000Y-89050000D01*
X153750000Y-92650000D02*
X152250000Y-92650000D01*
X157150000Y-99822000D02*
X159258000Y-99822000D01*
X159766000Y-93726000D02*
X160820000Y-93726000D01*
X159258000Y-87630000D02*
X157150000Y-87630000D01*
X148590000Y-91440000D02*
X148590000Y-89408000D01*
X146070000Y-84900000D02*
X165870000Y-84900000D01*
X146070000Y-103040000D02*
X146070000Y-84900000D01*
X165870000Y-103040000D02*
X146070000Y-103040000D01*
X165870000Y-103040000D02*
X165870000Y-91500000D01*
X165870000Y-91500000D02*
X165870000Y-84900000D01*
X150441000Y-64040000D02*
X150441000Y-65550000D01*
X146740000Y-64040000D02*
X146740000Y-65550000D01*
X143470000Y-65550000D02*
X153710000Y-65550000D01*
X153710000Y-64040000D02*
X153710000Y-68681000D01*
X143470000Y-64040000D02*
X143470000Y-68681000D01*
X143470000Y-68681000D02*
X153710000Y-68681000D01*
X143470000Y-64040000D02*
X153710000Y-64040000D01*
X150441000Y-43720000D02*
X150441000Y-45230000D01*
X146740000Y-43720000D02*
X146740000Y-45230000D01*
X143470000Y-45230000D02*
X153710000Y-45230000D01*
X153710000Y-43720000D02*
X153710000Y-48361000D01*
X143470000Y-43720000D02*
X143470000Y-48361000D01*
X143470000Y-48361000D02*
X153710000Y-48361000D01*
X143470000Y-43720000D02*
X153710000Y-43720000D01*
X150441000Y-53880000D02*
X150441000Y-55390000D01*
X146740000Y-53880000D02*
X146740000Y-55390000D01*
X143470000Y-55390000D02*
X153710000Y-55390000D01*
X153710000Y-53880000D02*
X153710000Y-58521000D01*
X143470000Y-53880000D02*
X143470000Y-58521000D01*
X143470000Y-58521000D02*
X153710000Y-58521000D01*
X143470000Y-53880000D02*
X153710000Y-53880000D01*
X139160000Y-67410000D02*
X139160000Y-67080000D01*
X132620000Y-67410000D02*
X139160000Y-67410000D01*
X132620000Y-67080000D02*
X132620000Y-67410000D01*
X139160000Y-64670000D02*
X139160000Y-65000000D01*
X132620000Y-64670000D02*
X139160000Y-64670000D01*
X132620000Y-65000000D02*
X132620000Y-64670000D01*
X139160000Y-58520000D02*
X139160000Y-58190000D01*
X132620000Y-58520000D02*
X139160000Y-58520000D01*
X132620000Y-58190000D02*
X132620000Y-58520000D01*
X139160000Y-55780000D02*
X139160000Y-56110000D01*
X132620000Y-55780000D02*
X139160000Y-55780000D01*
X132620000Y-56110000D02*
X132620000Y-55780000D01*
X132620000Y-45620000D02*
X132620000Y-45950000D01*
X139160000Y-45620000D02*
X132620000Y-45620000D01*
X139160000Y-45950000D02*
X139160000Y-45620000D01*
X132620000Y-48360000D02*
X132620000Y-48030000D01*
X139160000Y-48360000D02*
X132620000Y-48360000D01*
X139160000Y-48030000D02*
X139160000Y-48360000D01*
X128140000Y-39640000D02*
X130940000Y-39640000D01*
X130940000Y-39640000D02*
X130940000Y-41640000D01*
X130940000Y-41640000D02*
X128140000Y-41640000D01*
X128140000Y-41640000D02*
X128140000Y-39640000D01*
X106160000Y-49375000D02*
X106160000Y-46835000D01*
X106160000Y-49375000D02*
X108700000Y-49375000D01*
X106410000Y-49125000D02*
X106410000Y-39775000D01*
X127270000Y-49125000D02*
X106410000Y-49125000D01*
X127270000Y-39775000D02*
X127270000Y-49125000D01*
X106410000Y-39775000D02*
X127270000Y-39775000D01*
X161960000Y-82750000D02*
X161960000Y-79810000D01*
X161720000Y-82750000D02*
X161720000Y-79810000D01*
X161840000Y-82750000D02*
X161840000Y-79810000D01*
X157300000Y-79810000D02*
X157300000Y-79940000D01*
X162740000Y-79810000D02*
X157300000Y-79810000D01*
X162740000Y-79940000D02*
X162740000Y-79810000D01*
X157300000Y-82750000D02*
X157300000Y-82620000D01*
X162740000Y-82750000D02*
X157300000Y-82750000D01*
X162740000Y-82620000D02*
X162740000Y-82750000D01*
X150530000Y-40840000D02*
X150530000Y-37900000D01*
X150290000Y-40840000D02*
X150290000Y-37900000D01*
X150410000Y-40840000D02*
X150410000Y-37900000D01*
X145870000Y-37900000D02*
X145870000Y-38030000D01*
X151310000Y-37900000D02*
X145870000Y-37900000D01*
X151310000Y-38030000D02*
X151310000Y-37900000D01*
X145870000Y-40840000D02*
X145870000Y-40710000D01*
X151310000Y-40840000D02*
X145870000Y-40840000D01*
X151310000Y-40710000D02*
X151310000Y-40840000D01*
X161960000Y-75130000D02*
X161960000Y-72190000D01*
X161720000Y-75130000D02*
X161720000Y-72190000D01*
X161840000Y-75130000D02*
X161840000Y-72190000D01*
X157300000Y-72190000D02*
X157300000Y-72320000D01*
X162740000Y-72190000D02*
X157300000Y-72190000D01*
X162740000Y-72320000D02*
X162740000Y-72190000D01*
X157300000Y-75130000D02*
X157300000Y-75000000D01*
X162740000Y-75130000D02*
X157300000Y-75130000D01*
X162740000Y-75000000D02*
X162740000Y-75130000D01*
D11*
X141906666Y-84542380D02*
X141906666Y-85256666D01*
X141859047Y-85399523D01*
X141763809Y-85494761D01*
X141620952Y-85542380D01*
X141525714Y-85542380D01*
X142335238Y-84637619D02*
X142382857Y-84590000D01*
X142478095Y-84542380D01*
X142716190Y-84542380D01*
X142811428Y-84590000D01*
X142859047Y-84637619D01*
X142906666Y-84732857D01*
X142906666Y-84828095D01*
X142859047Y-84970952D01*
X142287619Y-85542380D01*
X142906666Y-85542380D01*
X136175714Y-74112380D02*
X135604285Y-74112380D01*
X135890000Y-74112380D02*
X135890000Y-73112380D01*
X135794761Y-73255238D01*
X135699523Y-73350476D01*
X135604285Y-73398095D01*
X114855714Y-56046666D02*
X115331904Y-56046666D01*
X114760476Y-56332380D02*
X115093809Y-55332380D01*
X115427142Y-56332380D01*
X116284285Y-56332380D02*
X115712857Y-56332380D01*
X115998571Y-56332380D02*
X115998571Y-55332380D01*
X115903333Y-55475238D01*
X115808095Y-55570476D01*
X115712857Y-55618095D01*
X121162380Y-53673333D02*
X121876666Y-53673333D01*
X122019523Y-53720952D01*
X122114761Y-53816190D01*
X122162380Y-53959047D01*
X122162380Y-54054285D01*
X121162380Y-52720952D02*
X121162380Y-53197142D01*
X121638571Y-53244761D01*
X121590952Y-53197142D01*
X121543333Y-53101904D01*
X121543333Y-52863809D01*
X121590952Y-52768571D01*
X121638571Y-52720952D01*
X121733809Y-52673333D01*
X121971904Y-52673333D01*
X122067142Y-52720952D01*
X122114761Y-52768571D01*
X122162380Y-52863809D01*
X122162380Y-53101904D01*
X122114761Y-53197142D01*
X122067142Y-53244761D01*
X155012380Y-50003333D02*
X155726666Y-50003333D01*
X155869523Y-50050952D01*
X155964761Y-50146190D01*
X156012380Y-50289047D01*
X156012380Y-50384285D01*
X155345714Y-49098571D02*
X156012380Y-49098571D01*
X154964761Y-49336666D02*
X155679047Y-49574761D01*
X155679047Y-48955714D01*
X153091904Y-83952380D02*
X153091904Y-82952380D01*
X153663333Y-83952380D02*
X153234761Y-83380952D01*
X153663333Y-82952380D02*
X153091904Y-83523809D01*
X154615714Y-83952380D02*
X154044285Y-83952380D01*
X154330000Y-83952380D02*
X154330000Y-82952380D01*
X154234761Y-83095238D01*
X154139523Y-83190476D01*
X154044285Y-83238095D01*
X148494761Y-63587619D02*
X148399523Y-63540000D01*
X148304285Y-63444761D01*
X148161428Y-63301904D01*
X148066190Y-63254285D01*
X147970952Y-63254285D01*
X148018571Y-63492380D02*
X147923333Y-63444761D01*
X147828095Y-63349523D01*
X147780476Y-63159047D01*
X147780476Y-62825714D01*
X147828095Y-62635238D01*
X147923333Y-62540000D01*
X148018571Y-62492380D01*
X148209047Y-62492380D01*
X148304285Y-62540000D01*
X148399523Y-62635238D01*
X148447142Y-62825714D01*
X148447142Y-63159047D01*
X148399523Y-63349523D01*
X148304285Y-63444761D01*
X148209047Y-63492380D01*
X148018571Y-63492380D01*
X148780476Y-62492380D02*
X149399523Y-62492380D01*
X149066190Y-62873333D01*
X149209047Y-62873333D01*
X149304285Y-62920952D01*
X149351904Y-62968571D01*
X149399523Y-63063809D01*
X149399523Y-63301904D01*
X149351904Y-63397142D01*
X149304285Y-63444761D01*
X149209047Y-63492380D01*
X148923333Y-63492380D01*
X148828095Y-63444761D01*
X148780476Y-63397142D01*
X148494761Y-43267619D02*
X148399523Y-43220000D01*
X148304285Y-43124761D01*
X148161428Y-42981904D01*
X148066190Y-42934285D01*
X147970952Y-42934285D01*
X148018571Y-43172380D02*
X147923333Y-43124761D01*
X147828095Y-43029523D01*
X147780476Y-42839047D01*
X147780476Y-42505714D01*
X147828095Y-42315238D01*
X147923333Y-42220000D01*
X148018571Y-42172380D01*
X148209047Y-42172380D01*
X148304285Y-42220000D01*
X148399523Y-42315238D01*
X148447142Y-42505714D01*
X148447142Y-42839047D01*
X148399523Y-43029523D01*
X148304285Y-43124761D01*
X148209047Y-43172380D01*
X148018571Y-43172380D01*
X148828095Y-42267619D02*
X148875714Y-42220000D01*
X148970952Y-42172380D01*
X149209047Y-42172380D01*
X149304285Y-42220000D01*
X149351904Y-42267619D01*
X149399523Y-42362857D01*
X149399523Y-42458095D01*
X149351904Y-42600952D01*
X148780476Y-43172380D01*
X149399523Y-43172380D01*
X148494761Y-53427619D02*
X148399523Y-53380000D01*
X148304285Y-53284761D01*
X148161428Y-53141904D01*
X148066190Y-53094285D01*
X147970952Y-53094285D01*
X148018571Y-53332380D02*
X147923333Y-53284761D01*
X147828095Y-53189523D01*
X147780476Y-52999047D01*
X147780476Y-52665714D01*
X147828095Y-52475238D01*
X147923333Y-52380000D01*
X148018571Y-52332380D01*
X148209047Y-52332380D01*
X148304285Y-52380000D01*
X148399523Y-52475238D01*
X148447142Y-52665714D01*
X148447142Y-52999047D01*
X148399523Y-53189523D01*
X148304285Y-53284761D01*
X148209047Y-53332380D01*
X148018571Y-53332380D01*
X149399523Y-53332380D02*
X148828095Y-53332380D01*
X149113809Y-53332380D02*
X149113809Y-52332380D01*
X149018571Y-52475238D01*
X148923333Y-52570476D01*
X148828095Y-52618095D01*
X135723333Y-64122380D02*
X135390000Y-63646190D01*
X135151904Y-64122380D02*
X135151904Y-63122380D01*
X135532857Y-63122380D01*
X135628095Y-63170000D01*
X135675714Y-63217619D01*
X135723333Y-63312857D01*
X135723333Y-63455714D01*
X135675714Y-63550952D01*
X135628095Y-63598571D01*
X135532857Y-63646190D01*
X135151904Y-63646190D01*
X136056666Y-63122380D02*
X136675714Y-63122380D01*
X136342380Y-63503333D01*
X136485238Y-63503333D01*
X136580476Y-63550952D01*
X136628095Y-63598571D01*
X136675714Y-63693809D01*
X136675714Y-63931904D01*
X136628095Y-64027142D01*
X136580476Y-64074761D01*
X136485238Y-64122380D01*
X136199523Y-64122380D01*
X136104285Y-64074761D01*
X136056666Y-64027142D01*
X135723333Y-55232380D02*
X135390000Y-54756190D01*
X135151904Y-55232380D02*
X135151904Y-54232380D01*
X135532857Y-54232380D01*
X135628095Y-54280000D01*
X135675714Y-54327619D01*
X135723333Y-54422857D01*
X135723333Y-54565714D01*
X135675714Y-54660952D01*
X135628095Y-54708571D01*
X135532857Y-54756190D01*
X135151904Y-54756190D01*
X136104285Y-54327619D02*
X136151904Y-54280000D01*
X136247142Y-54232380D01*
X136485238Y-54232380D01*
X136580476Y-54280000D01*
X136628095Y-54327619D01*
X136675714Y-54422857D01*
X136675714Y-54518095D01*
X136628095Y-54660952D01*
X136056666Y-55232380D01*
X136675714Y-55232380D01*
X135723333Y-49812380D02*
X135390000Y-49336190D01*
X135151904Y-49812380D02*
X135151904Y-48812380D01*
X135532857Y-48812380D01*
X135628095Y-48860000D01*
X135675714Y-48907619D01*
X135723333Y-49002857D01*
X135723333Y-49145714D01*
X135675714Y-49240952D01*
X135628095Y-49288571D01*
X135532857Y-49336190D01*
X135151904Y-49336190D01*
X136675714Y-49812380D02*
X136104285Y-49812380D01*
X136390000Y-49812380D02*
X136390000Y-48812380D01*
X136294761Y-48955238D01*
X136199523Y-49050476D01*
X136104285Y-49098095D01*
X128706666Y-38292380D02*
X128706666Y-39006666D01*
X128659047Y-39149523D01*
X128563809Y-39244761D01*
X128420952Y-39292380D01*
X128325714Y-39292380D01*
X129182857Y-39292380D02*
X129182857Y-38292380D01*
X129563809Y-38292380D01*
X129659047Y-38340000D01*
X129706666Y-38387619D01*
X129754285Y-38482857D01*
X129754285Y-38625714D01*
X129706666Y-38720952D01*
X129659047Y-38768571D01*
X129563809Y-38816190D01*
X129182857Y-38816190D01*
X130706666Y-39292380D02*
X130135238Y-39292380D01*
X130420952Y-39292380D02*
X130420952Y-38292380D01*
X130325714Y-38435238D01*
X130230476Y-38530476D01*
X130135238Y-38578095D01*
X104608380Y-44783333D02*
X105322666Y-44783333D01*
X105465523Y-44830952D01*
X105560761Y-44926190D01*
X105608380Y-45069047D01*
X105608380Y-45164285D01*
X105608380Y-43783333D02*
X105608380Y-44354761D01*
X105608380Y-44069047D02*
X104608380Y-44069047D01*
X104751238Y-44164285D01*
X104846476Y-44259523D01*
X104894095Y-44354761D01*
X159281904Y-84202380D02*
X159281904Y-83202380D01*
X159520000Y-83202380D01*
X159662857Y-83250000D01*
X159758095Y-83345238D01*
X159805714Y-83440476D01*
X159853333Y-83630952D01*
X159853333Y-83773809D01*
X159805714Y-83964285D01*
X159758095Y-84059523D01*
X159662857Y-84154761D01*
X159520000Y-84202380D01*
X159281904Y-84202380D01*
X160186666Y-83202380D02*
X160805714Y-83202380D01*
X160472380Y-83583333D01*
X160615238Y-83583333D01*
X160710476Y-83630952D01*
X160758095Y-83678571D01*
X160805714Y-83773809D01*
X160805714Y-84011904D01*
X160758095Y-84107142D01*
X160710476Y-84154761D01*
X160615238Y-84202380D01*
X160329523Y-84202380D01*
X160234285Y-84154761D01*
X160186666Y-84107142D01*
X163568095Y-83832380D02*
X163568095Y-82832380D01*
X164139523Y-83832380D02*
X163710952Y-83260952D01*
X164139523Y-82832380D02*
X163568095Y-83403809D01*
X147851904Y-42292380D02*
X147851904Y-41292380D01*
X148090000Y-41292380D01*
X148232857Y-41340000D01*
X148328095Y-41435238D01*
X148375714Y-41530476D01*
X148423333Y-41720952D01*
X148423333Y-41863809D01*
X148375714Y-42054285D01*
X148328095Y-42149523D01*
X148232857Y-42244761D01*
X148090000Y-42292380D01*
X147851904Y-42292380D01*
X148804285Y-41387619D02*
X148851904Y-41340000D01*
X148947142Y-41292380D01*
X149185238Y-41292380D01*
X149280476Y-41340000D01*
X149328095Y-41387619D01*
X149375714Y-41482857D01*
X149375714Y-41578095D01*
X149328095Y-41720952D01*
X148756666Y-42292380D01*
X149375714Y-42292380D01*
X152138095Y-41922380D02*
X152138095Y-40922380D01*
X152709523Y-41922380D02*
X152280952Y-41350952D01*
X152709523Y-40922380D02*
X152138095Y-41493809D01*
X159281904Y-76582380D02*
X159281904Y-75582380D01*
X159520000Y-75582380D01*
X159662857Y-75630000D01*
X159758095Y-75725238D01*
X159805714Y-75820476D01*
X159853333Y-76010952D01*
X159853333Y-76153809D01*
X159805714Y-76344285D01*
X159758095Y-76439523D01*
X159662857Y-76534761D01*
X159520000Y-76582380D01*
X159281904Y-76582380D01*
X160805714Y-76582380D02*
X160234285Y-76582380D01*
X160520000Y-76582380D02*
X160520000Y-75582380D01*
X160424761Y-75725238D01*
X160329523Y-75820476D01*
X160234285Y-75868095D01*
X163568095Y-76212380D02*
X163568095Y-75212380D01*
X164139523Y-76212380D02*
X163710952Y-75640952D01*
X164139523Y-75212380D02*
X163568095Y-75783809D01*
M02*
