M48
; DRILL file {KiCad (5.1.2)-2} date 8/23/2019 10:29:41
; FORMAT={3:3/ absolute / metric / suppress leading zeros}
; #@! TF.CreationDate,2019-08-23T10:29:41+03:00
; #@! TF.GenerationSoftware,Kicad,Pcbnew,(5.1.2)-2
FMAT,2
METRIC,TZ
T1C0.762
T2C0.800
T3C1.000
T4C1.016
T5C1.100
T6C1.200
T7C1.300
T8C1.780
%
G90
G05
T1
X133350Y-73660
X133350Y-76200
X133350Y-78740
X133350Y-81280
X147320Y-73660
X147320Y-76200
X147320Y-78740
X147320Y-81280
T2
X132080Y-46990
X139700Y-46990
X132080Y-66040
X139700Y-66040
X132080Y-57150
X139700Y-57150
X107950Y-60960
X107950Y-63500
X107950Y-66040
X107950Y-68580
X107950Y-71120
X107950Y-73660
X107950Y-76200
X107950Y-78740
X107950Y-81280
X107950Y-83820
X107950Y-86360
X107950Y-88900
X107950Y-91440
X107950Y-93980
X107950Y-96520
X123190Y-60960
X123190Y-63500
X123190Y-66040
X123190Y-68580
X123190Y-71120
X123190Y-73660
X123190Y-76200
X123190Y-78740
X123190Y-81280
X123190Y-83820
X123190Y-86360
X123190Y-88900
X123190Y-91440
X123190Y-93980
X123190Y-96520
T3
X109220Y-53340
X111760Y-53340
X114300Y-53340
X116840Y-53340
X119380Y-53340
T4
X111760Y-43180
X111760Y-45720
X114300Y-43180
X114300Y-45720
X116840Y-43180
X116840Y-45720
X119380Y-43180
X119380Y-45720
X121920Y-43180
X121920Y-45720
T5
X146050Y-57150
X148590Y-57150
X151130Y-57150
X146050Y-46990
X148590Y-46990
X151130Y-46990
X156210Y-81280
X163830Y-81280
X156210Y-73660
X163830Y-73660
X144780Y-39370
X152400Y-39370
X146050Y-67310
X148590Y-67310
X151130Y-67310
T6
X160020Y-40920
X160020Y-44420
X160020Y-47920
X160020Y-51420
X160020Y-54920
X160020Y-58420
T7
X148590Y-87630
X148590Y-99630
X160890Y-87630
X160890Y-99630
X162890Y-93630
T8
X107950Y-58420
X107950Y-99060
X123190Y-58420
X123190Y-99060
T3
G00X129920Y-92900
M15
G01X129920Y-90900
M16
G05
G00X133620Y-88900
M15
G01X135620Y-88900
M16
G05
G00X133620Y-94900
M15
G01X135620Y-94900
M16
G05
T0
M30
